G04 #@! TF.GenerationSoftware,KiCad,Pcbnew,(5.0.2)-1*
G04 #@! TF.CreationDate,2019-08-18T14:58:17-04:00*
G04 #@! TF.ProjectId,LTC3260-DualRail,4c544333-3236-4302-9d44-75616c526169,rev?*
G04 #@! TF.SameCoordinates,Original*
G04 #@! TF.FileFunction,Copper,L1,Top*
G04 #@! TF.FilePolarity,Positive*
%FSLAX46Y46*%
G04 Gerber Fmt 4.6, Leading zero omitted, Abs format (unit mm)*
G04 Created by KiCad (PCBNEW (5.0.2)-1) date 8/18/2019 2:58:17 PM*
%MOMM*%
%LPD*%
G01*
G04 APERTURE LIST*
G04 #@! TA.AperFunction,Conductor*
%ADD10C,0.100000*%
G04 #@! TD*
G04 #@! TA.AperFunction,SMDPad,CuDef*
%ADD11C,1.150000*%
G04 #@! TD*
G04 #@! TA.AperFunction,ComponentPad*
%ADD12O,5.000000X2.500000*%
G04 #@! TD*
G04 #@! TA.AperFunction,ComponentPad*
%ADD13O,4.500000X2.250000*%
G04 #@! TD*
G04 #@! TA.AperFunction,ComponentPad*
%ADD14C,1.800000*%
G04 #@! TD*
G04 #@! TA.AperFunction,ComponentPad*
%ADD15C,2.050000*%
G04 #@! TD*
G04 #@! TA.AperFunction,SMDPad,CuDef*
%ADD16R,0.300000X1.400000*%
G04 #@! TD*
G04 #@! TA.AperFunction,SMDPad,CuDef*
%ADD17R,2.850000X1.650000*%
G04 #@! TD*
G04 #@! TA.AperFunction,ViaPad*
%ADD18C,0.600000*%
G04 #@! TD*
G04 #@! TA.AperFunction,Conductor*
%ADD19C,0.300000*%
G04 #@! TD*
G04 #@! TA.AperFunction,Conductor*
%ADD20C,0.250000*%
G04 #@! TD*
G04 #@! TA.AperFunction,Conductor*
%ADD21C,0.800000*%
G04 #@! TD*
G04 #@! TA.AperFunction,Conductor*
%ADD22C,0.500000*%
G04 #@! TD*
G04 #@! TA.AperFunction,Conductor*
%ADD23C,0.650000*%
G04 #@! TD*
G04 APERTURE END LIST*
D10*
G04 #@! TO.N,GND*
G04 #@! TO.C,1CByp1*
G36*
X90309225Y-78148204D02*
X90333493Y-78151804D01*
X90357292Y-78157765D01*
X90380391Y-78166030D01*
X90402570Y-78176520D01*
X90423613Y-78189132D01*
X90443319Y-78203747D01*
X90461497Y-78220223D01*
X90477973Y-78238401D01*
X90492588Y-78258107D01*
X90505200Y-78279150D01*
X90515690Y-78301329D01*
X90523955Y-78324428D01*
X90529916Y-78348227D01*
X90533516Y-78372495D01*
X90534720Y-78396999D01*
X90534720Y-79047001D01*
X90533516Y-79071505D01*
X90529916Y-79095773D01*
X90523955Y-79119572D01*
X90515690Y-79142671D01*
X90505200Y-79164850D01*
X90492588Y-79185893D01*
X90477973Y-79205599D01*
X90461497Y-79223777D01*
X90443319Y-79240253D01*
X90423613Y-79254868D01*
X90402570Y-79267480D01*
X90380391Y-79277970D01*
X90357292Y-79286235D01*
X90333493Y-79292196D01*
X90309225Y-79295796D01*
X90284721Y-79297000D01*
X89384719Y-79297000D01*
X89360215Y-79295796D01*
X89335947Y-79292196D01*
X89312148Y-79286235D01*
X89289049Y-79277970D01*
X89266870Y-79267480D01*
X89245827Y-79254868D01*
X89226121Y-79240253D01*
X89207943Y-79223777D01*
X89191467Y-79205599D01*
X89176852Y-79185893D01*
X89164240Y-79164850D01*
X89153750Y-79142671D01*
X89145485Y-79119572D01*
X89139524Y-79095773D01*
X89135924Y-79071505D01*
X89134720Y-79047001D01*
X89134720Y-78396999D01*
X89135924Y-78372495D01*
X89139524Y-78348227D01*
X89145485Y-78324428D01*
X89153750Y-78301329D01*
X89164240Y-78279150D01*
X89176852Y-78258107D01*
X89191467Y-78238401D01*
X89207943Y-78220223D01*
X89226121Y-78203747D01*
X89245827Y-78189132D01*
X89266870Y-78176520D01*
X89289049Y-78166030D01*
X89312148Y-78157765D01*
X89335947Y-78151804D01*
X89360215Y-78148204D01*
X89384719Y-78147000D01*
X90284721Y-78147000D01*
X90309225Y-78148204D01*
X90309225Y-78148204D01*
G37*
D11*
G04 #@! TD*
G04 #@! TO.P,1CByp1,1*
G04 #@! TO.N,GND*
X89834720Y-78722000D03*
D10*
G04 #@! TO.N,Net-(1CByp1-Pad2)*
G04 #@! TO.C,1CByp1*
G36*
X90309225Y-80198204D02*
X90333493Y-80201804D01*
X90357292Y-80207765D01*
X90380391Y-80216030D01*
X90402570Y-80226520D01*
X90423613Y-80239132D01*
X90443319Y-80253747D01*
X90461497Y-80270223D01*
X90477973Y-80288401D01*
X90492588Y-80308107D01*
X90505200Y-80329150D01*
X90515690Y-80351329D01*
X90523955Y-80374428D01*
X90529916Y-80398227D01*
X90533516Y-80422495D01*
X90534720Y-80446999D01*
X90534720Y-81097001D01*
X90533516Y-81121505D01*
X90529916Y-81145773D01*
X90523955Y-81169572D01*
X90515690Y-81192671D01*
X90505200Y-81214850D01*
X90492588Y-81235893D01*
X90477973Y-81255599D01*
X90461497Y-81273777D01*
X90443319Y-81290253D01*
X90423613Y-81304868D01*
X90402570Y-81317480D01*
X90380391Y-81327970D01*
X90357292Y-81336235D01*
X90333493Y-81342196D01*
X90309225Y-81345796D01*
X90284721Y-81347000D01*
X89384719Y-81347000D01*
X89360215Y-81345796D01*
X89335947Y-81342196D01*
X89312148Y-81336235D01*
X89289049Y-81327970D01*
X89266870Y-81317480D01*
X89245827Y-81304868D01*
X89226121Y-81290253D01*
X89207943Y-81273777D01*
X89191467Y-81255599D01*
X89176852Y-81235893D01*
X89164240Y-81214850D01*
X89153750Y-81192671D01*
X89145485Y-81169572D01*
X89139524Y-81145773D01*
X89135924Y-81121505D01*
X89134720Y-81097001D01*
X89134720Y-80446999D01*
X89135924Y-80422495D01*
X89139524Y-80398227D01*
X89145485Y-80374428D01*
X89153750Y-80351329D01*
X89164240Y-80329150D01*
X89176852Y-80308107D01*
X89191467Y-80288401D01*
X89207943Y-80270223D01*
X89226121Y-80253747D01*
X89245827Y-80239132D01*
X89266870Y-80226520D01*
X89289049Y-80216030D01*
X89312148Y-80207765D01*
X89335947Y-80201804D01*
X89360215Y-80198204D01*
X89384719Y-80197000D01*
X90284721Y-80197000D01*
X90309225Y-80198204D01*
X90309225Y-80198204D01*
G37*
D11*
G04 #@! TD*
G04 #@! TO.P,1CByp1,2*
G04 #@! TO.N,Net-(1CByp1-Pad2)*
X89834720Y-80772000D03*
D10*
G04 #@! TO.N,/+5V*
G04 #@! TO.C,1Cout1*
G36*
X84721225Y-83990204D02*
X84745493Y-83993804D01*
X84769292Y-83999765D01*
X84792391Y-84008030D01*
X84814570Y-84018520D01*
X84835613Y-84031132D01*
X84855319Y-84045747D01*
X84873497Y-84062223D01*
X84889973Y-84080401D01*
X84904588Y-84100107D01*
X84917200Y-84121150D01*
X84927690Y-84143329D01*
X84935955Y-84166428D01*
X84941916Y-84190227D01*
X84945516Y-84214495D01*
X84946720Y-84238999D01*
X84946720Y-84889001D01*
X84945516Y-84913505D01*
X84941916Y-84937773D01*
X84935955Y-84961572D01*
X84927690Y-84984671D01*
X84917200Y-85006850D01*
X84904588Y-85027893D01*
X84889973Y-85047599D01*
X84873497Y-85065777D01*
X84855319Y-85082253D01*
X84835613Y-85096868D01*
X84814570Y-85109480D01*
X84792391Y-85119970D01*
X84769292Y-85128235D01*
X84745493Y-85134196D01*
X84721225Y-85137796D01*
X84696721Y-85139000D01*
X83796719Y-85139000D01*
X83772215Y-85137796D01*
X83747947Y-85134196D01*
X83724148Y-85128235D01*
X83701049Y-85119970D01*
X83678870Y-85109480D01*
X83657827Y-85096868D01*
X83638121Y-85082253D01*
X83619943Y-85065777D01*
X83603467Y-85047599D01*
X83588852Y-85027893D01*
X83576240Y-85006850D01*
X83565750Y-84984671D01*
X83557485Y-84961572D01*
X83551524Y-84937773D01*
X83547924Y-84913505D01*
X83546720Y-84889001D01*
X83546720Y-84238999D01*
X83547924Y-84214495D01*
X83551524Y-84190227D01*
X83557485Y-84166428D01*
X83565750Y-84143329D01*
X83576240Y-84121150D01*
X83588852Y-84100107D01*
X83603467Y-84080401D01*
X83619943Y-84062223D01*
X83638121Y-84045747D01*
X83657827Y-84031132D01*
X83678870Y-84018520D01*
X83701049Y-84008030D01*
X83724148Y-83999765D01*
X83747947Y-83993804D01*
X83772215Y-83990204D01*
X83796719Y-83989000D01*
X84696721Y-83989000D01*
X84721225Y-83990204D01*
X84721225Y-83990204D01*
G37*
D11*
G04 #@! TD*
G04 #@! TO.P,1Cout1,1*
G04 #@! TO.N,/+5V*
X84246720Y-84564000D03*
D10*
G04 #@! TO.N,GND*
G04 #@! TO.C,1Cout1*
G36*
X84721225Y-86040204D02*
X84745493Y-86043804D01*
X84769292Y-86049765D01*
X84792391Y-86058030D01*
X84814570Y-86068520D01*
X84835613Y-86081132D01*
X84855319Y-86095747D01*
X84873497Y-86112223D01*
X84889973Y-86130401D01*
X84904588Y-86150107D01*
X84917200Y-86171150D01*
X84927690Y-86193329D01*
X84935955Y-86216428D01*
X84941916Y-86240227D01*
X84945516Y-86264495D01*
X84946720Y-86288999D01*
X84946720Y-86939001D01*
X84945516Y-86963505D01*
X84941916Y-86987773D01*
X84935955Y-87011572D01*
X84927690Y-87034671D01*
X84917200Y-87056850D01*
X84904588Y-87077893D01*
X84889973Y-87097599D01*
X84873497Y-87115777D01*
X84855319Y-87132253D01*
X84835613Y-87146868D01*
X84814570Y-87159480D01*
X84792391Y-87169970D01*
X84769292Y-87178235D01*
X84745493Y-87184196D01*
X84721225Y-87187796D01*
X84696721Y-87189000D01*
X83796719Y-87189000D01*
X83772215Y-87187796D01*
X83747947Y-87184196D01*
X83724148Y-87178235D01*
X83701049Y-87169970D01*
X83678870Y-87159480D01*
X83657827Y-87146868D01*
X83638121Y-87132253D01*
X83619943Y-87115777D01*
X83603467Y-87097599D01*
X83588852Y-87077893D01*
X83576240Y-87056850D01*
X83565750Y-87034671D01*
X83557485Y-87011572D01*
X83551524Y-86987773D01*
X83547924Y-86963505D01*
X83546720Y-86939001D01*
X83546720Y-86288999D01*
X83547924Y-86264495D01*
X83551524Y-86240227D01*
X83557485Y-86216428D01*
X83565750Y-86193329D01*
X83576240Y-86171150D01*
X83588852Y-86150107D01*
X83603467Y-86130401D01*
X83619943Y-86112223D01*
X83638121Y-86095747D01*
X83657827Y-86081132D01*
X83678870Y-86068520D01*
X83701049Y-86058030D01*
X83724148Y-86049765D01*
X83747947Y-86043804D01*
X83772215Y-86040204D01*
X83796719Y-86039000D01*
X84696721Y-86039000D01*
X84721225Y-86040204D01*
X84721225Y-86040204D01*
G37*
D11*
G04 #@! TD*
G04 #@! TO.P,1Cout1,2*
G04 #@! TO.N,GND*
X84246720Y-86614000D03*
D10*
G04 #@! TO.N,GND*
G04 #@! TO.C,1R1*
G36*
X87118225Y-85661204D02*
X87142493Y-85664804D01*
X87166292Y-85670765D01*
X87189391Y-85679030D01*
X87211570Y-85689520D01*
X87232613Y-85702132D01*
X87252319Y-85716747D01*
X87270497Y-85733223D01*
X87286973Y-85751401D01*
X87301588Y-85771107D01*
X87314200Y-85792150D01*
X87324690Y-85814329D01*
X87332955Y-85837428D01*
X87338916Y-85861227D01*
X87342516Y-85885495D01*
X87343720Y-85909999D01*
X87343720Y-86810001D01*
X87342516Y-86834505D01*
X87338916Y-86858773D01*
X87332955Y-86882572D01*
X87324690Y-86905671D01*
X87314200Y-86927850D01*
X87301588Y-86948893D01*
X87286973Y-86968599D01*
X87270497Y-86986777D01*
X87252319Y-87003253D01*
X87232613Y-87017868D01*
X87211570Y-87030480D01*
X87189391Y-87040970D01*
X87166292Y-87049235D01*
X87142493Y-87055196D01*
X87118225Y-87058796D01*
X87093721Y-87060000D01*
X86443719Y-87060000D01*
X86419215Y-87058796D01*
X86394947Y-87055196D01*
X86371148Y-87049235D01*
X86348049Y-87040970D01*
X86325870Y-87030480D01*
X86304827Y-87017868D01*
X86285121Y-87003253D01*
X86266943Y-86986777D01*
X86250467Y-86968599D01*
X86235852Y-86948893D01*
X86223240Y-86927850D01*
X86212750Y-86905671D01*
X86204485Y-86882572D01*
X86198524Y-86858773D01*
X86194924Y-86834505D01*
X86193720Y-86810001D01*
X86193720Y-85909999D01*
X86194924Y-85885495D01*
X86198524Y-85861227D01*
X86204485Y-85837428D01*
X86212750Y-85814329D01*
X86223240Y-85792150D01*
X86235852Y-85771107D01*
X86250467Y-85751401D01*
X86266943Y-85733223D01*
X86285121Y-85716747D01*
X86304827Y-85702132D01*
X86325870Y-85689520D01*
X86348049Y-85679030D01*
X86371148Y-85670765D01*
X86394947Y-85664804D01*
X86419215Y-85661204D01*
X86443719Y-85660000D01*
X87093721Y-85660000D01*
X87118225Y-85661204D01*
X87118225Y-85661204D01*
G37*
D11*
G04 #@! TD*
G04 #@! TO.P,1R1,1*
G04 #@! TO.N,GND*
X86768720Y-86360000D03*
D10*
G04 #@! TO.N,Net-(1R1-Pad2)*
G04 #@! TO.C,1R1*
G36*
X89168225Y-85661204D02*
X89192493Y-85664804D01*
X89216292Y-85670765D01*
X89239391Y-85679030D01*
X89261570Y-85689520D01*
X89282613Y-85702132D01*
X89302319Y-85716747D01*
X89320497Y-85733223D01*
X89336973Y-85751401D01*
X89351588Y-85771107D01*
X89364200Y-85792150D01*
X89374690Y-85814329D01*
X89382955Y-85837428D01*
X89388916Y-85861227D01*
X89392516Y-85885495D01*
X89393720Y-85909999D01*
X89393720Y-86810001D01*
X89392516Y-86834505D01*
X89388916Y-86858773D01*
X89382955Y-86882572D01*
X89374690Y-86905671D01*
X89364200Y-86927850D01*
X89351588Y-86948893D01*
X89336973Y-86968599D01*
X89320497Y-86986777D01*
X89302319Y-87003253D01*
X89282613Y-87017868D01*
X89261570Y-87030480D01*
X89239391Y-87040970D01*
X89216292Y-87049235D01*
X89192493Y-87055196D01*
X89168225Y-87058796D01*
X89143721Y-87060000D01*
X88493719Y-87060000D01*
X88469215Y-87058796D01*
X88444947Y-87055196D01*
X88421148Y-87049235D01*
X88398049Y-87040970D01*
X88375870Y-87030480D01*
X88354827Y-87017868D01*
X88335121Y-87003253D01*
X88316943Y-86986777D01*
X88300467Y-86968599D01*
X88285852Y-86948893D01*
X88273240Y-86927850D01*
X88262750Y-86905671D01*
X88254485Y-86882572D01*
X88248524Y-86858773D01*
X88244924Y-86834505D01*
X88243720Y-86810001D01*
X88243720Y-85909999D01*
X88244924Y-85885495D01*
X88248524Y-85861227D01*
X88254485Y-85837428D01*
X88262750Y-85814329D01*
X88273240Y-85792150D01*
X88285852Y-85771107D01*
X88300467Y-85751401D01*
X88316943Y-85733223D01*
X88335121Y-85716747D01*
X88354827Y-85702132D01*
X88375870Y-85689520D01*
X88398049Y-85679030D01*
X88421148Y-85670765D01*
X88444947Y-85664804D01*
X88469215Y-85661204D01*
X88493719Y-85660000D01*
X89143721Y-85660000D01*
X89168225Y-85661204D01*
X89168225Y-85661204D01*
G37*
D11*
G04 #@! TD*
G04 #@! TO.P,1R1,2*
G04 #@! TO.N,Net-(1R1-Pad2)*
X88818720Y-86360000D03*
D10*
G04 #@! TO.N,/+5V*
G04 #@! TO.C,1R2*
G36*
X87136225Y-83121204D02*
X87160493Y-83124804D01*
X87184292Y-83130765D01*
X87207391Y-83139030D01*
X87229570Y-83149520D01*
X87250613Y-83162132D01*
X87270319Y-83176747D01*
X87288497Y-83193223D01*
X87304973Y-83211401D01*
X87319588Y-83231107D01*
X87332200Y-83252150D01*
X87342690Y-83274329D01*
X87350955Y-83297428D01*
X87356916Y-83321227D01*
X87360516Y-83345495D01*
X87361720Y-83369999D01*
X87361720Y-84270001D01*
X87360516Y-84294505D01*
X87356916Y-84318773D01*
X87350955Y-84342572D01*
X87342690Y-84365671D01*
X87332200Y-84387850D01*
X87319588Y-84408893D01*
X87304973Y-84428599D01*
X87288497Y-84446777D01*
X87270319Y-84463253D01*
X87250613Y-84477868D01*
X87229570Y-84490480D01*
X87207391Y-84500970D01*
X87184292Y-84509235D01*
X87160493Y-84515196D01*
X87136225Y-84518796D01*
X87111721Y-84520000D01*
X86461719Y-84520000D01*
X86437215Y-84518796D01*
X86412947Y-84515196D01*
X86389148Y-84509235D01*
X86366049Y-84500970D01*
X86343870Y-84490480D01*
X86322827Y-84477868D01*
X86303121Y-84463253D01*
X86284943Y-84446777D01*
X86268467Y-84428599D01*
X86253852Y-84408893D01*
X86241240Y-84387850D01*
X86230750Y-84365671D01*
X86222485Y-84342572D01*
X86216524Y-84318773D01*
X86212924Y-84294505D01*
X86211720Y-84270001D01*
X86211720Y-83369999D01*
X86212924Y-83345495D01*
X86216524Y-83321227D01*
X86222485Y-83297428D01*
X86230750Y-83274329D01*
X86241240Y-83252150D01*
X86253852Y-83231107D01*
X86268467Y-83211401D01*
X86284943Y-83193223D01*
X86303121Y-83176747D01*
X86322827Y-83162132D01*
X86343870Y-83149520D01*
X86366049Y-83139030D01*
X86389148Y-83130765D01*
X86412947Y-83124804D01*
X86437215Y-83121204D01*
X86461719Y-83120000D01*
X87111721Y-83120000D01*
X87136225Y-83121204D01*
X87136225Y-83121204D01*
G37*
D11*
G04 #@! TD*
G04 #@! TO.P,1R2,2*
G04 #@! TO.N,/+5V*
X86786720Y-83820000D03*
D10*
G04 #@! TO.N,Net-(1R1-Pad2)*
G04 #@! TO.C,1R2*
G36*
X89186225Y-83121204D02*
X89210493Y-83124804D01*
X89234292Y-83130765D01*
X89257391Y-83139030D01*
X89279570Y-83149520D01*
X89300613Y-83162132D01*
X89320319Y-83176747D01*
X89338497Y-83193223D01*
X89354973Y-83211401D01*
X89369588Y-83231107D01*
X89382200Y-83252150D01*
X89392690Y-83274329D01*
X89400955Y-83297428D01*
X89406916Y-83321227D01*
X89410516Y-83345495D01*
X89411720Y-83369999D01*
X89411720Y-84270001D01*
X89410516Y-84294505D01*
X89406916Y-84318773D01*
X89400955Y-84342572D01*
X89392690Y-84365671D01*
X89382200Y-84387850D01*
X89369588Y-84408893D01*
X89354973Y-84428599D01*
X89338497Y-84446777D01*
X89320319Y-84463253D01*
X89300613Y-84477868D01*
X89279570Y-84490480D01*
X89257391Y-84500970D01*
X89234292Y-84509235D01*
X89210493Y-84515196D01*
X89186225Y-84518796D01*
X89161721Y-84520000D01*
X88511719Y-84520000D01*
X88487215Y-84518796D01*
X88462947Y-84515196D01*
X88439148Y-84509235D01*
X88416049Y-84500970D01*
X88393870Y-84490480D01*
X88372827Y-84477868D01*
X88353121Y-84463253D01*
X88334943Y-84446777D01*
X88318467Y-84428599D01*
X88303852Y-84408893D01*
X88291240Y-84387850D01*
X88280750Y-84365671D01*
X88272485Y-84342572D01*
X88266524Y-84318773D01*
X88262924Y-84294505D01*
X88261720Y-84270001D01*
X88261720Y-83369999D01*
X88262924Y-83345495D01*
X88266524Y-83321227D01*
X88272485Y-83297428D01*
X88280750Y-83274329D01*
X88291240Y-83252150D01*
X88303852Y-83231107D01*
X88318467Y-83211401D01*
X88334943Y-83193223D01*
X88353121Y-83176747D01*
X88372827Y-83162132D01*
X88393870Y-83149520D01*
X88416049Y-83139030D01*
X88439148Y-83130765D01*
X88462947Y-83124804D01*
X88487215Y-83121204D01*
X88511719Y-83120000D01*
X89161721Y-83120000D01*
X89186225Y-83121204D01*
X89186225Y-83121204D01*
G37*
D11*
G04 #@! TD*
G04 #@! TO.P,1R2,1*
G04 #@! TO.N,Net-(1R1-Pad2)*
X88836720Y-83820000D03*
D10*
G04 #@! TO.N,Net-(2Cadj1-Pad2)*
G04 #@! TO.C,2Cadj1*
G36*
X84721225Y-69276204D02*
X84745493Y-69279804D01*
X84769292Y-69285765D01*
X84792391Y-69294030D01*
X84814570Y-69304520D01*
X84835613Y-69317132D01*
X84855319Y-69331747D01*
X84873497Y-69348223D01*
X84889973Y-69366401D01*
X84904588Y-69386107D01*
X84917200Y-69407150D01*
X84927690Y-69429329D01*
X84935955Y-69452428D01*
X84941916Y-69476227D01*
X84945516Y-69500495D01*
X84946720Y-69524999D01*
X84946720Y-70175001D01*
X84945516Y-70199505D01*
X84941916Y-70223773D01*
X84935955Y-70247572D01*
X84927690Y-70270671D01*
X84917200Y-70292850D01*
X84904588Y-70313893D01*
X84889973Y-70333599D01*
X84873497Y-70351777D01*
X84855319Y-70368253D01*
X84835613Y-70382868D01*
X84814570Y-70395480D01*
X84792391Y-70405970D01*
X84769292Y-70414235D01*
X84745493Y-70420196D01*
X84721225Y-70423796D01*
X84696721Y-70425000D01*
X83796719Y-70425000D01*
X83772215Y-70423796D01*
X83747947Y-70420196D01*
X83724148Y-70414235D01*
X83701049Y-70405970D01*
X83678870Y-70395480D01*
X83657827Y-70382868D01*
X83638121Y-70368253D01*
X83619943Y-70351777D01*
X83603467Y-70333599D01*
X83588852Y-70313893D01*
X83576240Y-70292850D01*
X83565750Y-70270671D01*
X83557485Y-70247572D01*
X83551524Y-70223773D01*
X83547924Y-70199505D01*
X83546720Y-70175001D01*
X83546720Y-69524999D01*
X83547924Y-69500495D01*
X83551524Y-69476227D01*
X83557485Y-69452428D01*
X83565750Y-69429329D01*
X83576240Y-69407150D01*
X83588852Y-69386107D01*
X83603467Y-69366401D01*
X83619943Y-69348223D01*
X83638121Y-69331747D01*
X83657827Y-69317132D01*
X83678870Y-69304520D01*
X83701049Y-69294030D01*
X83724148Y-69285765D01*
X83747947Y-69279804D01*
X83772215Y-69276204D01*
X83796719Y-69275000D01*
X84696721Y-69275000D01*
X84721225Y-69276204D01*
X84721225Y-69276204D01*
G37*
D11*
G04 #@! TD*
G04 #@! TO.P,2Cadj1,2*
G04 #@! TO.N,Net-(2Cadj1-Pad2)*
X84246720Y-69850000D03*
D10*
G04 #@! TO.N,/-5V*
G04 #@! TO.C,2Cadj1*
G36*
X84721225Y-71326204D02*
X84745493Y-71329804D01*
X84769292Y-71335765D01*
X84792391Y-71344030D01*
X84814570Y-71354520D01*
X84835613Y-71367132D01*
X84855319Y-71381747D01*
X84873497Y-71398223D01*
X84889973Y-71416401D01*
X84904588Y-71436107D01*
X84917200Y-71457150D01*
X84927690Y-71479329D01*
X84935955Y-71502428D01*
X84941916Y-71526227D01*
X84945516Y-71550495D01*
X84946720Y-71574999D01*
X84946720Y-72225001D01*
X84945516Y-72249505D01*
X84941916Y-72273773D01*
X84935955Y-72297572D01*
X84927690Y-72320671D01*
X84917200Y-72342850D01*
X84904588Y-72363893D01*
X84889973Y-72383599D01*
X84873497Y-72401777D01*
X84855319Y-72418253D01*
X84835613Y-72432868D01*
X84814570Y-72445480D01*
X84792391Y-72455970D01*
X84769292Y-72464235D01*
X84745493Y-72470196D01*
X84721225Y-72473796D01*
X84696721Y-72475000D01*
X83796719Y-72475000D01*
X83772215Y-72473796D01*
X83747947Y-72470196D01*
X83724148Y-72464235D01*
X83701049Y-72455970D01*
X83678870Y-72445480D01*
X83657827Y-72432868D01*
X83638121Y-72418253D01*
X83619943Y-72401777D01*
X83603467Y-72383599D01*
X83588852Y-72363893D01*
X83576240Y-72342850D01*
X83565750Y-72320671D01*
X83557485Y-72297572D01*
X83551524Y-72273773D01*
X83547924Y-72249505D01*
X83546720Y-72225001D01*
X83546720Y-71574999D01*
X83547924Y-71550495D01*
X83551524Y-71526227D01*
X83557485Y-71502428D01*
X83565750Y-71479329D01*
X83576240Y-71457150D01*
X83588852Y-71436107D01*
X83603467Y-71416401D01*
X83619943Y-71398223D01*
X83638121Y-71381747D01*
X83657827Y-71367132D01*
X83678870Y-71354520D01*
X83701049Y-71344030D01*
X83724148Y-71335765D01*
X83747947Y-71329804D01*
X83772215Y-71326204D01*
X83796719Y-71325000D01*
X84696721Y-71325000D01*
X84721225Y-71326204D01*
X84721225Y-71326204D01*
G37*
D11*
G04 #@! TD*
G04 #@! TO.P,2Cadj1,1*
G04 #@! TO.N,/-5V*
X84246720Y-71900000D03*
D10*
G04 #@! TO.N,GND*
G04 #@! TO.C,2CByp1*
G36*
X90309225Y-75880204D02*
X90333493Y-75883804D01*
X90357292Y-75889765D01*
X90380391Y-75898030D01*
X90402570Y-75908520D01*
X90423613Y-75921132D01*
X90443319Y-75935747D01*
X90461497Y-75952223D01*
X90477973Y-75970401D01*
X90492588Y-75990107D01*
X90505200Y-76011150D01*
X90515690Y-76033329D01*
X90523955Y-76056428D01*
X90529916Y-76080227D01*
X90533516Y-76104495D01*
X90534720Y-76128999D01*
X90534720Y-76779001D01*
X90533516Y-76803505D01*
X90529916Y-76827773D01*
X90523955Y-76851572D01*
X90515690Y-76874671D01*
X90505200Y-76896850D01*
X90492588Y-76917893D01*
X90477973Y-76937599D01*
X90461497Y-76955777D01*
X90443319Y-76972253D01*
X90423613Y-76986868D01*
X90402570Y-76999480D01*
X90380391Y-77009970D01*
X90357292Y-77018235D01*
X90333493Y-77024196D01*
X90309225Y-77027796D01*
X90284721Y-77029000D01*
X89384719Y-77029000D01*
X89360215Y-77027796D01*
X89335947Y-77024196D01*
X89312148Y-77018235D01*
X89289049Y-77009970D01*
X89266870Y-76999480D01*
X89245827Y-76986868D01*
X89226121Y-76972253D01*
X89207943Y-76955777D01*
X89191467Y-76937599D01*
X89176852Y-76917893D01*
X89164240Y-76896850D01*
X89153750Y-76874671D01*
X89145485Y-76851572D01*
X89139524Y-76827773D01*
X89135924Y-76803505D01*
X89134720Y-76779001D01*
X89134720Y-76128999D01*
X89135924Y-76104495D01*
X89139524Y-76080227D01*
X89145485Y-76056428D01*
X89153750Y-76033329D01*
X89164240Y-76011150D01*
X89176852Y-75990107D01*
X89191467Y-75970401D01*
X89207943Y-75952223D01*
X89226121Y-75935747D01*
X89245827Y-75921132D01*
X89266870Y-75908520D01*
X89289049Y-75898030D01*
X89312148Y-75889765D01*
X89335947Y-75883804D01*
X89360215Y-75880204D01*
X89384719Y-75879000D01*
X90284721Y-75879000D01*
X90309225Y-75880204D01*
X90309225Y-75880204D01*
G37*
D11*
G04 #@! TD*
G04 #@! TO.P,2CByp1,2*
G04 #@! TO.N,GND*
X89834720Y-76454000D03*
D10*
G04 #@! TO.N,Net-(2CByp1-Pad1)*
G04 #@! TO.C,2CByp1*
G36*
X90309225Y-73830204D02*
X90333493Y-73833804D01*
X90357292Y-73839765D01*
X90380391Y-73848030D01*
X90402570Y-73858520D01*
X90423613Y-73871132D01*
X90443319Y-73885747D01*
X90461497Y-73902223D01*
X90477973Y-73920401D01*
X90492588Y-73940107D01*
X90505200Y-73961150D01*
X90515690Y-73983329D01*
X90523955Y-74006428D01*
X90529916Y-74030227D01*
X90533516Y-74054495D01*
X90534720Y-74078999D01*
X90534720Y-74729001D01*
X90533516Y-74753505D01*
X90529916Y-74777773D01*
X90523955Y-74801572D01*
X90515690Y-74824671D01*
X90505200Y-74846850D01*
X90492588Y-74867893D01*
X90477973Y-74887599D01*
X90461497Y-74905777D01*
X90443319Y-74922253D01*
X90423613Y-74936868D01*
X90402570Y-74949480D01*
X90380391Y-74959970D01*
X90357292Y-74968235D01*
X90333493Y-74974196D01*
X90309225Y-74977796D01*
X90284721Y-74979000D01*
X89384719Y-74979000D01*
X89360215Y-74977796D01*
X89335947Y-74974196D01*
X89312148Y-74968235D01*
X89289049Y-74959970D01*
X89266870Y-74949480D01*
X89245827Y-74936868D01*
X89226121Y-74922253D01*
X89207943Y-74905777D01*
X89191467Y-74887599D01*
X89176852Y-74867893D01*
X89164240Y-74846850D01*
X89153750Y-74824671D01*
X89145485Y-74801572D01*
X89139524Y-74777773D01*
X89135924Y-74753505D01*
X89134720Y-74729001D01*
X89134720Y-74078999D01*
X89135924Y-74054495D01*
X89139524Y-74030227D01*
X89145485Y-74006428D01*
X89153750Y-73983329D01*
X89164240Y-73961150D01*
X89176852Y-73940107D01*
X89191467Y-73920401D01*
X89207943Y-73902223D01*
X89226121Y-73885747D01*
X89245827Y-73871132D01*
X89266870Y-73858520D01*
X89289049Y-73848030D01*
X89312148Y-73839765D01*
X89335947Y-73833804D01*
X89360215Y-73830204D01*
X89384719Y-73829000D01*
X90284721Y-73829000D01*
X90309225Y-73830204D01*
X90309225Y-73830204D01*
G37*
D11*
G04 #@! TD*
G04 #@! TO.P,2CByp1,1*
G04 #@! TO.N,Net-(2CByp1-Pad1)*
X89834720Y-74404000D03*
D10*
G04 #@! TO.N,/-5V*
G04 #@! TO.C,2Cout1*
G36*
X82181225Y-71308204D02*
X82205493Y-71311804D01*
X82229292Y-71317765D01*
X82252391Y-71326030D01*
X82274570Y-71336520D01*
X82295613Y-71349132D01*
X82315319Y-71363747D01*
X82333497Y-71380223D01*
X82349973Y-71398401D01*
X82364588Y-71418107D01*
X82377200Y-71439150D01*
X82387690Y-71461329D01*
X82395955Y-71484428D01*
X82401916Y-71508227D01*
X82405516Y-71532495D01*
X82406720Y-71556999D01*
X82406720Y-72207001D01*
X82405516Y-72231505D01*
X82401916Y-72255773D01*
X82395955Y-72279572D01*
X82387690Y-72302671D01*
X82377200Y-72324850D01*
X82364588Y-72345893D01*
X82349973Y-72365599D01*
X82333497Y-72383777D01*
X82315319Y-72400253D01*
X82295613Y-72414868D01*
X82274570Y-72427480D01*
X82252391Y-72437970D01*
X82229292Y-72446235D01*
X82205493Y-72452196D01*
X82181225Y-72455796D01*
X82156721Y-72457000D01*
X81256719Y-72457000D01*
X81232215Y-72455796D01*
X81207947Y-72452196D01*
X81184148Y-72446235D01*
X81161049Y-72437970D01*
X81138870Y-72427480D01*
X81117827Y-72414868D01*
X81098121Y-72400253D01*
X81079943Y-72383777D01*
X81063467Y-72365599D01*
X81048852Y-72345893D01*
X81036240Y-72324850D01*
X81025750Y-72302671D01*
X81017485Y-72279572D01*
X81011524Y-72255773D01*
X81007924Y-72231505D01*
X81006720Y-72207001D01*
X81006720Y-71556999D01*
X81007924Y-71532495D01*
X81011524Y-71508227D01*
X81017485Y-71484428D01*
X81025750Y-71461329D01*
X81036240Y-71439150D01*
X81048852Y-71418107D01*
X81063467Y-71398401D01*
X81079943Y-71380223D01*
X81098121Y-71363747D01*
X81117827Y-71349132D01*
X81138870Y-71336520D01*
X81161049Y-71326030D01*
X81184148Y-71317765D01*
X81207947Y-71311804D01*
X81232215Y-71308204D01*
X81256719Y-71307000D01*
X82156721Y-71307000D01*
X82181225Y-71308204D01*
X82181225Y-71308204D01*
G37*
D11*
G04 #@! TD*
G04 #@! TO.P,2Cout1,2*
G04 #@! TO.N,/-5V*
X81706720Y-71882000D03*
D10*
G04 #@! TO.N,GND*
G04 #@! TO.C,2Cout1*
G36*
X82181225Y-69258204D02*
X82205493Y-69261804D01*
X82229292Y-69267765D01*
X82252391Y-69276030D01*
X82274570Y-69286520D01*
X82295613Y-69299132D01*
X82315319Y-69313747D01*
X82333497Y-69330223D01*
X82349973Y-69348401D01*
X82364588Y-69368107D01*
X82377200Y-69389150D01*
X82387690Y-69411329D01*
X82395955Y-69434428D01*
X82401916Y-69458227D01*
X82405516Y-69482495D01*
X82406720Y-69506999D01*
X82406720Y-70157001D01*
X82405516Y-70181505D01*
X82401916Y-70205773D01*
X82395955Y-70229572D01*
X82387690Y-70252671D01*
X82377200Y-70274850D01*
X82364588Y-70295893D01*
X82349973Y-70315599D01*
X82333497Y-70333777D01*
X82315319Y-70350253D01*
X82295613Y-70364868D01*
X82274570Y-70377480D01*
X82252391Y-70387970D01*
X82229292Y-70396235D01*
X82205493Y-70402196D01*
X82181225Y-70405796D01*
X82156721Y-70407000D01*
X81256719Y-70407000D01*
X81232215Y-70405796D01*
X81207947Y-70402196D01*
X81184148Y-70396235D01*
X81161049Y-70387970D01*
X81138870Y-70377480D01*
X81117827Y-70364868D01*
X81098121Y-70350253D01*
X81079943Y-70333777D01*
X81063467Y-70315599D01*
X81048852Y-70295893D01*
X81036240Y-70274850D01*
X81025750Y-70252671D01*
X81017485Y-70229572D01*
X81011524Y-70205773D01*
X81007924Y-70181505D01*
X81006720Y-70157001D01*
X81006720Y-69506999D01*
X81007924Y-69482495D01*
X81011524Y-69458227D01*
X81017485Y-69434428D01*
X81025750Y-69411329D01*
X81036240Y-69389150D01*
X81048852Y-69368107D01*
X81063467Y-69348401D01*
X81079943Y-69330223D01*
X81098121Y-69313747D01*
X81117827Y-69299132D01*
X81138870Y-69286520D01*
X81161049Y-69276030D01*
X81184148Y-69267765D01*
X81207947Y-69261804D01*
X81232215Y-69258204D01*
X81256719Y-69257000D01*
X82156721Y-69257000D01*
X82181225Y-69258204D01*
X82181225Y-69258204D01*
G37*
D11*
G04 #@! TD*
G04 #@! TO.P,2Cout1,1*
G04 #@! TO.N,GND*
X81706720Y-69832000D03*
D10*
G04 #@! TO.N,GND*
G04 #@! TO.C,2R1*
G36*
X87127225Y-68643204D02*
X87151493Y-68646804D01*
X87175292Y-68652765D01*
X87198391Y-68661030D01*
X87220570Y-68671520D01*
X87241613Y-68684132D01*
X87261319Y-68698747D01*
X87279497Y-68715223D01*
X87295973Y-68733401D01*
X87310588Y-68753107D01*
X87323200Y-68774150D01*
X87333690Y-68796329D01*
X87341955Y-68819428D01*
X87347916Y-68843227D01*
X87351516Y-68867495D01*
X87352720Y-68891999D01*
X87352720Y-69792001D01*
X87351516Y-69816505D01*
X87347916Y-69840773D01*
X87341955Y-69864572D01*
X87333690Y-69887671D01*
X87323200Y-69909850D01*
X87310588Y-69930893D01*
X87295973Y-69950599D01*
X87279497Y-69968777D01*
X87261319Y-69985253D01*
X87241613Y-69999868D01*
X87220570Y-70012480D01*
X87198391Y-70022970D01*
X87175292Y-70031235D01*
X87151493Y-70037196D01*
X87127225Y-70040796D01*
X87102721Y-70042000D01*
X86452719Y-70042000D01*
X86428215Y-70040796D01*
X86403947Y-70037196D01*
X86380148Y-70031235D01*
X86357049Y-70022970D01*
X86334870Y-70012480D01*
X86313827Y-69999868D01*
X86294121Y-69985253D01*
X86275943Y-69968777D01*
X86259467Y-69950599D01*
X86244852Y-69930893D01*
X86232240Y-69909850D01*
X86221750Y-69887671D01*
X86213485Y-69864572D01*
X86207524Y-69840773D01*
X86203924Y-69816505D01*
X86202720Y-69792001D01*
X86202720Y-68891999D01*
X86203924Y-68867495D01*
X86207524Y-68843227D01*
X86213485Y-68819428D01*
X86221750Y-68796329D01*
X86232240Y-68774150D01*
X86244852Y-68753107D01*
X86259467Y-68733401D01*
X86275943Y-68715223D01*
X86294121Y-68698747D01*
X86313827Y-68684132D01*
X86334870Y-68671520D01*
X86357049Y-68661030D01*
X86380148Y-68652765D01*
X86403947Y-68646804D01*
X86428215Y-68643204D01*
X86452719Y-68642000D01*
X87102721Y-68642000D01*
X87127225Y-68643204D01*
X87127225Y-68643204D01*
G37*
D11*
G04 #@! TD*
G04 #@! TO.P,2R1,2*
G04 #@! TO.N,GND*
X86777720Y-69342000D03*
D10*
G04 #@! TO.N,Net-(2Cadj1-Pad2)*
G04 #@! TO.C,2R1*
G36*
X89177225Y-68643204D02*
X89201493Y-68646804D01*
X89225292Y-68652765D01*
X89248391Y-68661030D01*
X89270570Y-68671520D01*
X89291613Y-68684132D01*
X89311319Y-68698747D01*
X89329497Y-68715223D01*
X89345973Y-68733401D01*
X89360588Y-68753107D01*
X89373200Y-68774150D01*
X89383690Y-68796329D01*
X89391955Y-68819428D01*
X89397916Y-68843227D01*
X89401516Y-68867495D01*
X89402720Y-68891999D01*
X89402720Y-69792001D01*
X89401516Y-69816505D01*
X89397916Y-69840773D01*
X89391955Y-69864572D01*
X89383690Y-69887671D01*
X89373200Y-69909850D01*
X89360588Y-69930893D01*
X89345973Y-69950599D01*
X89329497Y-69968777D01*
X89311319Y-69985253D01*
X89291613Y-69999868D01*
X89270570Y-70012480D01*
X89248391Y-70022970D01*
X89225292Y-70031235D01*
X89201493Y-70037196D01*
X89177225Y-70040796D01*
X89152721Y-70042000D01*
X88502719Y-70042000D01*
X88478215Y-70040796D01*
X88453947Y-70037196D01*
X88430148Y-70031235D01*
X88407049Y-70022970D01*
X88384870Y-70012480D01*
X88363827Y-69999868D01*
X88344121Y-69985253D01*
X88325943Y-69968777D01*
X88309467Y-69950599D01*
X88294852Y-69930893D01*
X88282240Y-69909850D01*
X88271750Y-69887671D01*
X88263485Y-69864572D01*
X88257524Y-69840773D01*
X88253924Y-69816505D01*
X88252720Y-69792001D01*
X88252720Y-68891999D01*
X88253924Y-68867495D01*
X88257524Y-68843227D01*
X88263485Y-68819428D01*
X88271750Y-68796329D01*
X88282240Y-68774150D01*
X88294852Y-68753107D01*
X88309467Y-68733401D01*
X88325943Y-68715223D01*
X88344121Y-68698747D01*
X88363827Y-68684132D01*
X88384870Y-68671520D01*
X88407049Y-68661030D01*
X88430148Y-68652765D01*
X88453947Y-68646804D01*
X88478215Y-68643204D01*
X88502719Y-68642000D01*
X89152721Y-68642000D01*
X89177225Y-68643204D01*
X89177225Y-68643204D01*
G37*
D11*
G04 #@! TD*
G04 #@! TO.P,2R1,1*
G04 #@! TO.N,Net-(2Cadj1-Pad2)*
X88827720Y-69342000D03*
D10*
G04 #@! TO.N,Net-(2Cadj1-Pad2)*
G04 #@! TO.C,2R2*
G36*
X89168225Y-71183204D02*
X89192493Y-71186804D01*
X89216292Y-71192765D01*
X89239391Y-71201030D01*
X89261570Y-71211520D01*
X89282613Y-71224132D01*
X89302319Y-71238747D01*
X89320497Y-71255223D01*
X89336973Y-71273401D01*
X89351588Y-71293107D01*
X89364200Y-71314150D01*
X89374690Y-71336329D01*
X89382955Y-71359428D01*
X89388916Y-71383227D01*
X89392516Y-71407495D01*
X89393720Y-71431999D01*
X89393720Y-72332001D01*
X89392516Y-72356505D01*
X89388916Y-72380773D01*
X89382955Y-72404572D01*
X89374690Y-72427671D01*
X89364200Y-72449850D01*
X89351588Y-72470893D01*
X89336973Y-72490599D01*
X89320497Y-72508777D01*
X89302319Y-72525253D01*
X89282613Y-72539868D01*
X89261570Y-72552480D01*
X89239391Y-72562970D01*
X89216292Y-72571235D01*
X89192493Y-72577196D01*
X89168225Y-72580796D01*
X89143721Y-72582000D01*
X88493719Y-72582000D01*
X88469215Y-72580796D01*
X88444947Y-72577196D01*
X88421148Y-72571235D01*
X88398049Y-72562970D01*
X88375870Y-72552480D01*
X88354827Y-72539868D01*
X88335121Y-72525253D01*
X88316943Y-72508777D01*
X88300467Y-72490599D01*
X88285852Y-72470893D01*
X88273240Y-72449850D01*
X88262750Y-72427671D01*
X88254485Y-72404572D01*
X88248524Y-72380773D01*
X88244924Y-72356505D01*
X88243720Y-72332001D01*
X88243720Y-71431999D01*
X88244924Y-71407495D01*
X88248524Y-71383227D01*
X88254485Y-71359428D01*
X88262750Y-71336329D01*
X88273240Y-71314150D01*
X88285852Y-71293107D01*
X88300467Y-71273401D01*
X88316943Y-71255223D01*
X88335121Y-71238747D01*
X88354827Y-71224132D01*
X88375870Y-71211520D01*
X88398049Y-71201030D01*
X88421148Y-71192765D01*
X88444947Y-71186804D01*
X88469215Y-71183204D01*
X88493719Y-71182000D01*
X89143721Y-71182000D01*
X89168225Y-71183204D01*
X89168225Y-71183204D01*
G37*
D11*
G04 #@! TD*
G04 #@! TO.P,2R2,1*
G04 #@! TO.N,Net-(2Cadj1-Pad2)*
X88818720Y-71882000D03*
D10*
G04 #@! TO.N,/-5V*
G04 #@! TO.C,2R2*
G36*
X87118225Y-71183204D02*
X87142493Y-71186804D01*
X87166292Y-71192765D01*
X87189391Y-71201030D01*
X87211570Y-71211520D01*
X87232613Y-71224132D01*
X87252319Y-71238747D01*
X87270497Y-71255223D01*
X87286973Y-71273401D01*
X87301588Y-71293107D01*
X87314200Y-71314150D01*
X87324690Y-71336329D01*
X87332955Y-71359428D01*
X87338916Y-71383227D01*
X87342516Y-71407495D01*
X87343720Y-71431999D01*
X87343720Y-72332001D01*
X87342516Y-72356505D01*
X87338916Y-72380773D01*
X87332955Y-72404572D01*
X87324690Y-72427671D01*
X87314200Y-72449850D01*
X87301588Y-72470893D01*
X87286973Y-72490599D01*
X87270497Y-72508777D01*
X87252319Y-72525253D01*
X87232613Y-72539868D01*
X87211570Y-72552480D01*
X87189391Y-72562970D01*
X87166292Y-72571235D01*
X87142493Y-72577196D01*
X87118225Y-72580796D01*
X87093721Y-72582000D01*
X86443719Y-72582000D01*
X86419215Y-72580796D01*
X86394947Y-72577196D01*
X86371148Y-72571235D01*
X86348049Y-72562970D01*
X86325870Y-72552480D01*
X86304827Y-72539868D01*
X86285121Y-72525253D01*
X86266943Y-72508777D01*
X86250467Y-72490599D01*
X86235852Y-72470893D01*
X86223240Y-72449850D01*
X86212750Y-72427671D01*
X86204485Y-72404572D01*
X86198524Y-72380773D01*
X86194924Y-72356505D01*
X86193720Y-72332001D01*
X86193720Y-71431999D01*
X86194924Y-71407495D01*
X86198524Y-71383227D01*
X86204485Y-71359428D01*
X86212750Y-71336329D01*
X86223240Y-71314150D01*
X86235852Y-71293107D01*
X86250467Y-71273401D01*
X86266943Y-71255223D01*
X86285121Y-71238747D01*
X86304827Y-71224132D01*
X86325870Y-71211520D01*
X86348049Y-71201030D01*
X86371148Y-71192765D01*
X86394947Y-71186804D01*
X86419215Y-71183204D01*
X86443719Y-71182000D01*
X87093721Y-71182000D01*
X87118225Y-71183204D01*
X87118225Y-71183204D01*
G37*
D11*
G04 #@! TD*
G04 #@! TO.P,2R2,2*
G04 #@! TO.N,/-5V*
X86768720Y-71882000D03*
D10*
G04 #@! TO.N,Net-(CFly1-Pad1)*
G04 #@! TO.C,CFly1*
G36*
X81673225Y-78175204D02*
X81697493Y-78178804D01*
X81721292Y-78184765D01*
X81744391Y-78193030D01*
X81766570Y-78203520D01*
X81787613Y-78216132D01*
X81807319Y-78230747D01*
X81825497Y-78247223D01*
X81841973Y-78265401D01*
X81856588Y-78285107D01*
X81869200Y-78306150D01*
X81879690Y-78328329D01*
X81887955Y-78351428D01*
X81893916Y-78375227D01*
X81897516Y-78399495D01*
X81898720Y-78423999D01*
X81898720Y-79074001D01*
X81897516Y-79098505D01*
X81893916Y-79122773D01*
X81887955Y-79146572D01*
X81879690Y-79169671D01*
X81869200Y-79191850D01*
X81856588Y-79212893D01*
X81841973Y-79232599D01*
X81825497Y-79250777D01*
X81807319Y-79267253D01*
X81787613Y-79281868D01*
X81766570Y-79294480D01*
X81744391Y-79304970D01*
X81721292Y-79313235D01*
X81697493Y-79319196D01*
X81673225Y-79322796D01*
X81648721Y-79324000D01*
X80748719Y-79324000D01*
X80724215Y-79322796D01*
X80699947Y-79319196D01*
X80676148Y-79313235D01*
X80653049Y-79304970D01*
X80630870Y-79294480D01*
X80609827Y-79281868D01*
X80590121Y-79267253D01*
X80571943Y-79250777D01*
X80555467Y-79232599D01*
X80540852Y-79212893D01*
X80528240Y-79191850D01*
X80517750Y-79169671D01*
X80509485Y-79146572D01*
X80503524Y-79122773D01*
X80499924Y-79098505D01*
X80498720Y-79074001D01*
X80498720Y-78423999D01*
X80499924Y-78399495D01*
X80503524Y-78375227D01*
X80509485Y-78351428D01*
X80517750Y-78328329D01*
X80528240Y-78306150D01*
X80540852Y-78285107D01*
X80555467Y-78265401D01*
X80571943Y-78247223D01*
X80590121Y-78230747D01*
X80609827Y-78216132D01*
X80630870Y-78203520D01*
X80653049Y-78193030D01*
X80676148Y-78184765D01*
X80699947Y-78178804D01*
X80724215Y-78175204D01*
X80748719Y-78174000D01*
X81648721Y-78174000D01*
X81673225Y-78175204D01*
X81673225Y-78175204D01*
G37*
D11*
G04 #@! TD*
G04 #@! TO.P,CFly1,1*
G04 #@! TO.N,Net-(CFly1-Pad1)*
X81198720Y-78749000D03*
D10*
G04 #@! TO.N,Net-(CFly1-Pad2)*
G04 #@! TO.C,CFly1*
G36*
X81673225Y-76125204D02*
X81697493Y-76128804D01*
X81721292Y-76134765D01*
X81744391Y-76143030D01*
X81766570Y-76153520D01*
X81787613Y-76166132D01*
X81807319Y-76180747D01*
X81825497Y-76197223D01*
X81841973Y-76215401D01*
X81856588Y-76235107D01*
X81869200Y-76256150D01*
X81879690Y-76278329D01*
X81887955Y-76301428D01*
X81893916Y-76325227D01*
X81897516Y-76349495D01*
X81898720Y-76373999D01*
X81898720Y-77024001D01*
X81897516Y-77048505D01*
X81893916Y-77072773D01*
X81887955Y-77096572D01*
X81879690Y-77119671D01*
X81869200Y-77141850D01*
X81856588Y-77162893D01*
X81841973Y-77182599D01*
X81825497Y-77200777D01*
X81807319Y-77217253D01*
X81787613Y-77231868D01*
X81766570Y-77244480D01*
X81744391Y-77254970D01*
X81721292Y-77263235D01*
X81697493Y-77269196D01*
X81673225Y-77272796D01*
X81648721Y-77274000D01*
X80748719Y-77274000D01*
X80724215Y-77272796D01*
X80699947Y-77269196D01*
X80676148Y-77263235D01*
X80653049Y-77254970D01*
X80630870Y-77244480D01*
X80609827Y-77231868D01*
X80590121Y-77217253D01*
X80571943Y-77200777D01*
X80555467Y-77182599D01*
X80540852Y-77162893D01*
X80528240Y-77141850D01*
X80517750Y-77119671D01*
X80509485Y-77096572D01*
X80503524Y-77072773D01*
X80499924Y-77048505D01*
X80498720Y-77024001D01*
X80498720Y-76373999D01*
X80499924Y-76349495D01*
X80503524Y-76325227D01*
X80509485Y-76301428D01*
X80517750Y-76278329D01*
X80528240Y-76256150D01*
X80540852Y-76235107D01*
X80555467Y-76215401D01*
X80571943Y-76197223D01*
X80590121Y-76180747D01*
X80609827Y-76166132D01*
X80630870Y-76153520D01*
X80653049Y-76143030D01*
X80676148Y-76134765D01*
X80699947Y-76128804D01*
X80724215Y-76125204D01*
X80748719Y-76124000D01*
X81648721Y-76124000D01*
X81673225Y-76125204D01*
X81673225Y-76125204D01*
G37*
D11*
G04 #@! TD*
G04 #@! TO.P,CFly1,2*
G04 #@! TO.N,Net-(CFly1-Pad2)*
X81198720Y-76699000D03*
D12*
G04 #@! TO.P,J1,1*
G04 #@! TO.N,+9V*
X74150220Y-83774280D03*
D13*
G04 #@! TO.P,J1,2*
G04 #@! TO.N,GND*
X74150220Y-77774280D03*
G04 #@! TD*
D14*
G04 #@! TO.P,J2,2*
G04 #@! TO.N,GND*
X94954720Y-74636000D03*
X94954720Y-69636000D03*
X99954720Y-69636000D03*
X99954720Y-74636000D03*
D15*
G04 #@! TO.P,J2,1*
G04 #@! TO.N,/-5V*
X97454720Y-72136000D03*
G04 #@! TD*
G04 #@! TO.P,J3,1*
G04 #@! TO.N,/+5V*
X97454720Y-83312000D03*
D14*
G04 #@! TO.P,J3,2*
G04 #@! TO.N,GND*
X99954720Y-85812000D03*
X99954720Y-80812000D03*
X94954720Y-80812000D03*
X94954720Y-85812000D03*
G04 #@! TD*
D16*
G04 #@! TO.P,U1,1*
G04 #@! TO.N,+9V*
X87266720Y-75270000D03*
G04 #@! TO.P,U1,2*
G04 #@! TO.N,GND*
X86766720Y-75270000D03*
G04 #@! TO.P,U1,3*
G04 #@! TO.N,Net-(2CByp1-Pad1)*
X86266720Y-75270000D03*
G04 #@! TO.P,U1,4*
G04 #@! TO.N,Net-(2Cadj1-Pad2)*
X85766720Y-75270000D03*
G04 #@! TO.P,U1,5*
G04 #@! TO.N,/-5V*
X85266720Y-75270000D03*
G04 #@! TO.P,U1,12*
G04 #@! TO.N,/+5V*
X85266720Y-79670000D03*
G04 #@! TO.P,U1,13*
G04 #@! TO.N,+9V*
X85766720Y-79670000D03*
G04 #@! TO.P,U1,14*
G04 #@! TO.N,GND*
X86266720Y-79670000D03*
G04 #@! TO.P,U1,15*
G04 #@! TO.N,Net-(1R1-Pad2)*
X86766720Y-79670000D03*
G04 #@! TO.P,U1,16*
G04 #@! TO.N,Net-(1CByp1-Pad2)*
X87266720Y-79670000D03*
G04 #@! TO.P,U1,6*
G04 #@! TO.N,Net-(2Creg1-Pad1)*
X84766720Y-75270000D03*
G04 #@! TO.P,U1,7*
G04 #@! TO.N,Net-(CFly1-Pad2)*
X84266720Y-75270000D03*
G04 #@! TO.P,U1,8*
G04 #@! TO.N,Net-(U1-Pad8)*
X83766720Y-75270000D03*
G04 #@! TO.P,U1,11*
G04 #@! TO.N,+9V*
X84766720Y-79670000D03*
G04 #@! TO.P,U1,10*
G04 #@! TO.N,Net-(CFly1-Pad1)*
X84266720Y-79670000D03*
G04 #@! TO.P,U1,9*
G04 #@! TO.N,Net-(U1-Pad9)*
X83766720Y-79670000D03*
D17*
G04 #@! TO.P,U1,17*
G04 #@! TO.N,GND*
X85516720Y-77470000D03*
G04 #@! TD*
D10*
G04 #@! TO.N,GND*
G04 #@! TO.C,1Cout2*
G36*
X92087225Y-83246204D02*
X92111493Y-83249804D01*
X92135292Y-83255765D01*
X92158391Y-83264030D01*
X92180570Y-83274520D01*
X92201613Y-83287132D01*
X92221319Y-83301747D01*
X92239497Y-83318223D01*
X92255973Y-83336401D01*
X92270588Y-83356107D01*
X92283200Y-83377150D01*
X92293690Y-83399329D01*
X92301955Y-83422428D01*
X92307916Y-83446227D01*
X92311516Y-83470495D01*
X92312720Y-83494999D01*
X92312720Y-84145001D01*
X92311516Y-84169505D01*
X92307916Y-84193773D01*
X92301955Y-84217572D01*
X92293690Y-84240671D01*
X92283200Y-84262850D01*
X92270588Y-84283893D01*
X92255973Y-84303599D01*
X92239497Y-84321777D01*
X92221319Y-84338253D01*
X92201613Y-84352868D01*
X92180570Y-84365480D01*
X92158391Y-84375970D01*
X92135292Y-84384235D01*
X92111493Y-84390196D01*
X92087225Y-84393796D01*
X92062721Y-84395000D01*
X91162719Y-84395000D01*
X91138215Y-84393796D01*
X91113947Y-84390196D01*
X91090148Y-84384235D01*
X91067049Y-84375970D01*
X91044870Y-84365480D01*
X91023827Y-84352868D01*
X91004121Y-84338253D01*
X90985943Y-84321777D01*
X90969467Y-84303599D01*
X90954852Y-84283893D01*
X90942240Y-84262850D01*
X90931750Y-84240671D01*
X90923485Y-84217572D01*
X90917524Y-84193773D01*
X90913924Y-84169505D01*
X90912720Y-84145001D01*
X90912720Y-83494999D01*
X90913924Y-83470495D01*
X90917524Y-83446227D01*
X90923485Y-83422428D01*
X90931750Y-83399329D01*
X90942240Y-83377150D01*
X90954852Y-83356107D01*
X90969467Y-83336401D01*
X90985943Y-83318223D01*
X91004121Y-83301747D01*
X91023827Y-83287132D01*
X91044870Y-83274520D01*
X91067049Y-83264030D01*
X91090148Y-83255765D01*
X91113947Y-83249804D01*
X91138215Y-83246204D01*
X91162719Y-83245000D01*
X92062721Y-83245000D01*
X92087225Y-83246204D01*
X92087225Y-83246204D01*
G37*
D11*
G04 #@! TD*
G04 #@! TO.P,1Cout2,2*
G04 #@! TO.N,GND*
X91612720Y-83820000D03*
D10*
G04 #@! TO.N,/+5V*
G04 #@! TO.C,1Cout2*
G36*
X92087225Y-85296204D02*
X92111493Y-85299804D01*
X92135292Y-85305765D01*
X92158391Y-85314030D01*
X92180570Y-85324520D01*
X92201613Y-85337132D01*
X92221319Y-85351747D01*
X92239497Y-85368223D01*
X92255973Y-85386401D01*
X92270588Y-85406107D01*
X92283200Y-85427150D01*
X92293690Y-85449329D01*
X92301955Y-85472428D01*
X92307916Y-85496227D01*
X92311516Y-85520495D01*
X92312720Y-85544999D01*
X92312720Y-86195001D01*
X92311516Y-86219505D01*
X92307916Y-86243773D01*
X92301955Y-86267572D01*
X92293690Y-86290671D01*
X92283200Y-86312850D01*
X92270588Y-86333893D01*
X92255973Y-86353599D01*
X92239497Y-86371777D01*
X92221319Y-86388253D01*
X92201613Y-86402868D01*
X92180570Y-86415480D01*
X92158391Y-86425970D01*
X92135292Y-86434235D01*
X92111493Y-86440196D01*
X92087225Y-86443796D01*
X92062721Y-86445000D01*
X91162719Y-86445000D01*
X91138215Y-86443796D01*
X91113947Y-86440196D01*
X91090148Y-86434235D01*
X91067049Y-86425970D01*
X91044870Y-86415480D01*
X91023827Y-86402868D01*
X91004121Y-86388253D01*
X90985943Y-86371777D01*
X90969467Y-86353599D01*
X90954852Y-86333893D01*
X90942240Y-86312850D01*
X90931750Y-86290671D01*
X90923485Y-86267572D01*
X90917524Y-86243773D01*
X90913924Y-86219505D01*
X90912720Y-86195001D01*
X90912720Y-85544999D01*
X90913924Y-85520495D01*
X90917524Y-85496227D01*
X90923485Y-85472428D01*
X90931750Y-85449329D01*
X90942240Y-85427150D01*
X90954852Y-85406107D01*
X90969467Y-85386401D01*
X90985943Y-85368223D01*
X91004121Y-85351747D01*
X91023827Y-85337132D01*
X91044870Y-85324520D01*
X91067049Y-85314030D01*
X91090148Y-85305765D01*
X91113947Y-85299804D01*
X91138215Y-85296204D01*
X91162719Y-85295000D01*
X92062721Y-85295000D01*
X92087225Y-85296204D01*
X92087225Y-85296204D01*
G37*
D11*
G04 #@! TD*
G04 #@! TO.P,1Cout2,1*
G04 #@! TO.N,/+5V*
X91612720Y-85870000D03*
D10*
G04 #@! TO.N,GND*
G04 #@! TO.C,2Cout2*
G36*
X92087225Y-71308204D02*
X92111493Y-71311804D01*
X92135292Y-71317765D01*
X92158391Y-71326030D01*
X92180570Y-71336520D01*
X92201613Y-71349132D01*
X92221319Y-71363747D01*
X92239497Y-71380223D01*
X92255973Y-71398401D01*
X92270588Y-71418107D01*
X92283200Y-71439150D01*
X92293690Y-71461329D01*
X92301955Y-71484428D01*
X92307916Y-71508227D01*
X92311516Y-71532495D01*
X92312720Y-71556999D01*
X92312720Y-72207001D01*
X92311516Y-72231505D01*
X92307916Y-72255773D01*
X92301955Y-72279572D01*
X92293690Y-72302671D01*
X92283200Y-72324850D01*
X92270588Y-72345893D01*
X92255973Y-72365599D01*
X92239497Y-72383777D01*
X92221319Y-72400253D01*
X92201613Y-72414868D01*
X92180570Y-72427480D01*
X92158391Y-72437970D01*
X92135292Y-72446235D01*
X92111493Y-72452196D01*
X92087225Y-72455796D01*
X92062721Y-72457000D01*
X91162719Y-72457000D01*
X91138215Y-72455796D01*
X91113947Y-72452196D01*
X91090148Y-72446235D01*
X91067049Y-72437970D01*
X91044870Y-72427480D01*
X91023827Y-72414868D01*
X91004121Y-72400253D01*
X90985943Y-72383777D01*
X90969467Y-72365599D01*
X90954852Y-72345893D01*
X90942240Y-72324850D01*
X90931750Y-72302671D01*
X90923485Y-72279572D01*
X90917524Y-72255773D01*
X90913924Y-72231505D01*
X90912720Y-72207001D01*
X90912720Y-71556999D01*
X90913924Y-71532495D01*
X90917524Y-71508227D01*
X90923485Y-71484428D01*
X90931750Y-71461329D01*
X90942240Y-71439150D01*
X90954852Y-71418107D01*
X90969467Y-71398401D01*
X90985943Y-71380223D01*
X91004121Y-71363747D01*
X91023827Y-71349132D01*
X91044870Y-71336520D01*
X91067049Y-71326030D01*
X91090148Y-71317765D01*
X91113947Y-71311804D01*
X91138215Y-71308204D01*
X91162719Y-71307000D01*
X92062721Y-71307000D01*
X92087225Y-71308204D01*
X92087225Y-71308204D01*
G37*
D11*
G04 #@! TD*
G04 #@! TO.P,2Cout2,1*
G04 #@! TO.N,GND*
X91612720Y-71882000D03*
D10*
G04 #@! TO.N,/-5V*
G04 #@! TO.C,2Cout2*
G36*
X92087225Y-69258204D02*
X92111493Y-69261804D01*
X92135292Y-69267765D01*
X92158391Y-69276030D01*
X92180570Y-69286520D01*
X92201613Y-69299132D01*
X92221319Y-69313747D01*
X92239497Y-69330223D01*
X92255973Y-69348401D01*
X92270588Y-69368107D01*
X92283200Y-69389150D01*
X92293690Y-69411329D01*
X92301955Y-69434428D01*
X92307916Y-69458227D01*
X92311516Y-69482495D01*
X92312720Y-69506999D01*
X92312720Y-70157001D01*
X92311516Y-70181505D01*
X92307916Y-70205773D01*
X92301955Y-70229572D01*
X92293690Y-70252671D01*
X92283200Y-70274850D01*
X92270588Y-70295893D01*
X92255973Y-70315599D01*
X92239497Y-70333777D01*
X92221319Y-70350253D01*
X92201613Y-70364868D01*
X92180570Y-70377480D01*
X92158391Y-70387970D01*
X92135292Y-70396235D01*
X92111493Y-70402196D01*
X92087225Y-70405796D01*
X92062721Y-70407000D01*
X91162719Y-70407000D01*
X91138215Y-70405796D01*
X91113947Y-70402196D01*
X91090148Y-70396235D01*
X91067049Y-70387970D01*
X91044870Y-70377480D01*
X91023827Y-70364868D01*
X91004121Y-70350253D01*
X90985943Y-70333777D01*
X90969467Y-70315599D01*
X90954852Y-70295893D01*
X90942240Y-70274850D01*
X90931750Y-70252671D01*
X90923485Y-70229572D01*
X90917524Y-70205773D01*
X90913924Y-70181505D01*
X90912720Y-70157001D01*
X90912720Y-69506999D01*
X90913924Y-69482495D01*
X90917524Y-69458227D01*
X90923485Y-69434428D01*
X90931750Y-69411329D01*
X90942240Y-69389150D01*
X90954852Y-69368107D01*
X90969467Y-69348401D01*
X90985943Y-69330223D01*
X91004121Y-69313747D01*
X91023827Y-69299132D01*
X91044870Y-69286520D01*
X91067049Y-69276030D01*
X91090148Y-69267765D01*
X91113947Y-69261804D01*
X91138215Y-69258204D01*
X91162719Y-69257000D01*
X92062721Y-69257000D01*
X92087225Y-69258204D01*
X92087225Y-69258204D01*
G37*
D11*
G04 #@! TD*
G04 #@! TO.P,2Cout2,2*
G04 #@! TO.N,/-5V*
X91612720Y-69832000D03*
D10*
G04 #@! TO.N,+9V*
G04 #@! TO.C,Cin1*
G36*
X80992505Y-83745204D02*
X81016773Y-83748804D01*
X81040572Y-83754765D01*
X81063671Y-83763030D01*
X81085850Y-83773520D01*
X81106893Y-83786132D01*
X81126599Y-83800747D01*
X81144777Y-83817223D01*
X81161253Y-83835401D01*
X81175868Y-83855107D01*
X81188480Y-83876150D01*
X81198970Y-83898329D01*
X81207235Y-83921428D01*
X81213196Y-83945227D01*
X81216796Y-83969495D01*
X81218000Y-83993999D01*
X81218000Y-84644001D01*
X81216796Y-84668505D01*
X81213196Y-84692773D01*
X81207235Y-84716572D01*
X81198970Y-84739671D01*
X81188480Y-84761850D01*
X81175868Y-84782893D01*
X81161253Y-84802599D01*
X81144777Y-84820777D01*
X81126599Y-84837253D01*
X81106893Y-84851868D01*
X81085850Y-84864480D01*
X81063671Y-84874970D01*
X81040572Y-84883235D01*
X81016773Y-84889196D01*
X80992505Y-84892796D01*
X80968001Y-84894000D01*
X80067999Y-84894000D01*
X80043495Y-84892796D01*
X80019227Y-84889196D01*
X79995428Y-84883235D01*
X79972329Y-84874970D01*
X79950150Y-84864480D01*
X79929107Y-84851868D01*
X79909401Y-84837253D01*
X79891223Y-84820777D01*
X79874747Y-84802599D01*
X79860132Y-84782893D01*
X79847520Y-84761850D01*
X79837030Y-84739671D01*
X79828765Y-84716572D01*
X79822804Y-84692773D01*
X79819204Y-84668505D01*
X79818000Y-84644001D01*
X79818000Y-83993999D01*
X79819204Y-83969495D01*
X79822804Y-83945227D01*
X79828765Y-83921428D01*
X79837030Y-83898329D01*
X79847520Y-83876150D01*
X79860132Y-83855107D01*
X79874747Y-83835401D01*
X79891223Y-83817223D01*
X79909401Y-83800747D01*
X79929107Y-83786132D01*
X79950150Y-83773520D01*
X79972329Y-83763030D01*
X79995428Y-83754765D01*
X80019227Y-83748804D01*
X80043495Y-83745204D01*
X80067999Y-83744000D01*
X80968001Y-83744000D01*
X80992505Y-83745204D01*
X80992505Y-83745204D01*
G37*
D11*
G04 #@! TD*
G04 #@! TO.P,Cin1,1*
G04 #@! TO.N,+9V*
X80518000Y-84319000D03*
D10*
G04 #@! TO.N,GND*
G04 #@! TO.C,Cin1*
G36*
X80992505Y-85795204D02*
X81016773Y-85798804D01*
X81040572Y-85804765D01*
X81063671Y-85813030D01*
X81085850Y-85823520D01*
X81106893Y-85836132D01*
X81126599Y-85850747D01*
X81144777Y-85867223D01*
X81161253Y-85885401D01*
X81175868Y-85905107D01*
X81188480Y-85926150D01*
X81198970Y-85948329D01*
X81207235Y-85971428D01*
X81213196Y-85995227D01*
X81216796Y-86019495D01*
X81218000Y-86043999D01*
X81218000Y-86694001D01*
X81216796Y-86718505D01*
X81213196Y-86742773D01*
X81207235Y-86766572D01*
X81198970Y-86789671D01*
X81188480Y-86811850D01*
X81175868Y-86832893D01*
X81161253Y-86852599D01*
X81144777Y-86870777D01*
X81126599Y-86887253D01*
X81106893Y-86901868D01*
X81085850Y-86914480D01*
X81063671Y-86924970D01*
X81040572Y-86933235D01*
X81016773Y-86939196D01*
X80992505Y-86942796D01*
X80968001Y-86944000D01*
X80067999Y-86944000D01*
X80043495Y-86942796D01*
X80019227Y-86939196D01*
X79995428Y-86933235D01*
X79972329Y-86924970D01*
X79950150Y-86914480D01*
X79929107Y-86901868D01*
X79909401Y-86887253D01*
X79891223Y-86870777D01*
X79874747Y-86852599D01*
X79860132Y-86832893D01*
X79847520Y-86811850D01*
X79837030Y-86789671D01*
X79828765Y-86766572D01*
X79822804Y-86742773D01*
X79819204Y-86718505D01*
X79818000Y-86694001D01*
X79818000Y-86043999D01*
X79819204Y-86019495D01*
X79822804Y-85995227D01*
X79828765Y-85971428D01*
X79837030Y-85948329D01*
X79847520Y-85926150D01*
X79860132Y-85905107D01*
X79874747Y-85885401D01*
X79891223Y-85867223D01*
X79909401Y-85850747D01*
X79929107Y-85836132D01*
X79950150Y-85823520D01*
X79972329Y-85813030D01*
X79995428Y-85804765D01*
X80019227Y-85798804D01*
X80043495Y-85795204D01*
X80067999Y-85794000D01*
X80968001Y-85794000D01*
X80992505Y-85795204D01*
X80992505Y-85795204D01*
G37*
D11*
G04 #@! TD*
G04 #@! TO.P,Cin1,2*
G04 #@! TO.N,GND*
X80518000Y-86369000D03*
D10*
G04 #@! TO.N,GND*
G04 #@! TO.C,Cin2*
G36*
X82119505Y-81470204D02*
X82143773Y-81473804D01*
X82167572Y-81479765D01*
X82190671Y-81488030D01*
X82212850Y-81498520D01*
X82233893Y-81511132D01*
X82253599Y-81525747D01*
X82271777Y-81542223D01*
X82288253Y-81560401D01*
X82302868Y-81580107D01*
X82315480Y-81601150D01*
X82325970Y-81623329D01*
X82334235Y-81646428D01*
X82340196Y-81670227D01*
X82343796Y-81694495D01*
X82345000Y-81718999D01*
X82345000Y-82619001D01*
X82343796Y-82643505D01*
X82340196Y-82667773D01*
X82334235Y-82691572D01*
X82325970Y-82714671D01*
X82315480Y-82736850D01*
X82302868Y-82757893D01*
X82288253Y-82777599D01*
X82271777Y-82795777D01*
X82253599Y-82812253D01*
X82233893Y-82826868D01*
X82212850Y-82839480D01*
X82190671Y-82849970D01*
X82167572Y-82858235D01*
X82143773Y-82864196D01*
X82119505Y-82867796D01*
X82095001Y-82869000D01*
X81444999Y-82869000D01*
X81420495Y-82867796D01*
X81396227Y-82864196D01*
X81372428Y-82858235D01*
X81349329Y-82849970D01*
X81327150Y-82839480D01*
X81306107Y-82826868D01*
X81286401Y-82812253D01*
X81268223Y-82795777D01*
X81251747Y-82777599D01*
X81237132Y-82757893D01*
X81224520Y-82736850D01*
X81214030Y-82714671D01*
X81205765Y-82691572D01*
X81199804Y-82667773D01*
X81196204Y-82643505D01*
X81195000Y-82619001D01*
X81195000Y-81718999D01*
X81196204Y-81694495D01*
X81199804Y-81670227D01*
X81205765Y-81646428D01*
X81214030Y-81623329D01*
X81224520Y-81601150D01*
X81237132Y-81580107D01*
X81251747Y-81560401D01*
X81268223Y-81542223D01*
X81286401Y-81525747D01*
X81306107Y-81511132D01*
X81327150Y-81498520D01*
X81349329Y-81488030D01*
X81372428Y-81479765D01*
X81396227Y-81473804D01*
X81420495Y-81470204D01*
X81444999Y-81469000D01*
X82095001Y-81469000D01*
X82119505Y-81470204D01*
X82119505Y-81470204D01*
G37*
D11*
G04 #@! TD*
G04 #@! TO.P,Cin2,2*
G04 #@! TO.N,GND*
X81770000Y-82169000D03*
D10*
G04 #@! TO.N,+9V*
G04 #@! TO.C,Cin2*
G36*
X84169505Y-81470204D02*
X84193773Y-81473804D01*
X84217572Y-81479765D01*
X84240671Y-81488030D01*
X84262850Y-81498520D01*
X84283893Y-81511132D01*
X84303599Y-81525747D01*
X84321777Y-81542223D01*
X84338253Y-81560401D01*
X84352868Y-81580107D01*
X84365480Y-81601150D01*
X84375970Y-81623329D01*
X84384235Y-81646428D01*
X84390196Y-81670227D01*
X84393796Y-81694495D01*
X84395000Y-81718999D01*
X84395000Y-82619001D01*
X84393796Y-82643505D01*
X84390196Y-82667773D01*
X84384235Y-82691572D01*
X84375970Y-82714671D01*
X84365480Y-82736850D01*
X84352868Y-82757893D01*
X84338253Y-82777599D01*
X84321777Y-82795777D01*
X84303599Y-82812253D01*
X84283893Y-82826868D01*
X84262850Y-82839480D01*
X84240671Y-82849970D01*
X84217572Y-82858235D01*
X84193773Y-82864196D01*
X84169505Y-82867796D01*
X84145001Y-82869000D01*
X83494999Y-82869000D01*
X83470495Y-82867796D01*
X83446227Y-82864196D01*
X83422428Y-82858235D01*
X83399329Y-82849970D01*
X83377150Y-82839480D01*
X83356107Y-82826868D01*
X83336401Y-82812253D01*
X83318223Y-82795777D01*
X83301747Y-82777599D01*
X83287132Y-82757893D01*
X83274520Y-82736850D01*
X83264030Y-82714671D01*
X83255765Y-82691572D01*
X83249804Y-82667773D01*
X83246204Y-82643505D01*
X83245000Y-82619001D01*
X83245000Y-81718999D01*
X83246204Y-81694495D01*
X83249804Y-81670227D01*
X83255765Y-81646428D01*
X83264030Y-81623329D01*
X83274520Y-81601150D01*
X83287132Y-81580107D01*
X83301747Y-81560401D01*
X83318223Y-81542223D01*
X83336401Y-81525747D01*
X83356107Y-81511132D01*
X83377150Y-81498520D01*
X83399329Y-81488030D01*
X83422428Y-81479765D01*
X83446227Y-81473804D01*
X83470495Y-81470204D01*
X83494999Y-81469000D01*
X84145001Y-81469000D01*
X84169505Y-81470204D01*
X84169505Y-81470204D01*
G37*
D11*
G04 #@! TD*
G04 #@! TO.P,Cin2,1*
G04 #@! TO.N,+9V*
X83820000Y-82169000D03*
D10*
G04 #@! TO.N,Net-(2Creg1-Pad1)*
G04 #@! TO.C,2Creg1*
G36*
X82273505Y-73215204D02*
X82297773Y-73218804D01*
X82321572Y-73224765D01*
X82344671Y-73233030D01*
X82366850Y-73243520D01*
X82387893Y-73256132D01*
X82407599Y-73270747D01*
X82425777Y-73287223D01*
X82442253Y-73305401D01*
X82456868Y-73325107D01*
X82469480Y-73346150D01*
X82479970Y-73368329D01*
X82488235Y-73391428D01*
X82494196Y-73415227D01*
X82497796Y-73439495D01*
X82499000Y-73463999D01*
X82499000Y-74364001D01*
X82497796Y-74388505D01*
X82494196Y-74412773D01*
X82488235Y-74436572D01*
X82479970Y-74459671D01*
X82469480Y-74481850D01*
X82456868Y-74502893D01*
X82442253Y-74522599D01*
X82425777Y-74540777D01*
X82407599Y-74557253D01*
X82387893Y-74571868D01*
X82366850Y-74584480D01*
X82344671Y-74594970D01*
X82321572Y-74603235D01*
X82297773Y-74609196D01*
X82273505Y-74612796D01*
X82249001Y-74614000D01*
X81598999Y-74614000D01*
X81574495Y-74612796D01*
X81550227Y-74609196D01*
X81526428Y-74603235D01*
X81503329Y-74594970D01*
X81481150Y-74584480D01*
X81460107Y-74571868D01*
X81440401Y-74557253D01*
X81422223Y-74540777D01*
X81405747Y-74522599D01*
X81391132Y-74502893D01*
X81378520Y-74481850D01*
X81368030Y-74459671D01*
X81359765Y-74436572D01*
X81353804Y-74412773D01*
X81350204Y-74388505D01*
X81349000Y-74364001D01*
X81349000Y-73463999D01*
X81350204Y-73439495D01*
X81353804Y-73415227D01*
X81359765Y-73391428D01*
X81368030Y-73368329D01*
X81378520Y-73346150D01*
X81391132Y-73325107D01*
X81405747Y-73305401D01*
X81422223Y-73287223D01*
X81440401Y-73270747D01*
X81460107Y-73256132D01*
X81481150Y-73243520D01*
X81503329Y-73233030D01*
X81526428Y-73224765D01*
X81550227Y-73218804D01*
X81574495Y-73215204D01*
X81598999Y-73214000D01*
X82249001Y-73214000D01*
X82273505Y-73215204D01*
X82273505Y-73215204D01*
G37*
D11*
G04 #@! TD*
G04 #@! TO.P,2Creg1,1*
G04 #@! TO.N,Net-(2Creg1-Pad1)*
X81924000Y-73914000D03*
D10*
G04 #@! TO.N,GND*
G04 #@! TO.C,2Creg1*
G36*
X80223505Y-73215204D02*
X80247773Y-73218804D01*
X80271572Y-73224765D01*
X80294671Y-73233030D01*
X80316850Y-73243520D01*
X80337893Y-73256132D01*
X80357599Y-73270747D01*
X80375777Y-73287223D01*
X80392253Y-73305401D01*
X80406868Y-73325107D01*
X80419480Y-73346150D01*
X80429970Y-73368329D01*
X80438235Y-73391428D01*
X80444196Y-73415227D01*
X80447796Y-73439495D01*
X80449000Y-73463999D01*
X80449000Y-74364001D01*
X80447796Y-74388505D01*
X80444196Y-74412773D01*
X80438235Y-74436572D01*
X80429970Y-74459671D01*
X80419480Y-74481850D01*
X80406868Y-74502893D01*
X80392253Y-74522599D01*
X80375777Y-74540777D01*
X80357599Y-74557253D01*
X80337893Y-74571868D01*
X80316850Y-74584480D01*
X80294671Y-74594970D01*
X80271572Y-74603235D01*
X80247773Y-74609196D01*
X80223505Y-74612796D01*
X80199001Y-74614000D01*
X79548999Y-74614000D01*
X79524495Y-74612796D01*
X79500227Y-74609196D01*
X79476428Y-74603235D01*
X79453329Y-74594970D01*
X79431150Y-74584480D01*
X79410107Y-74571868D01*
X79390401Y-74557253D01*
X79372223Y-74540777D01*
X79355747Y-74522599D01*
X79341132Y-74502893D01*
X79328520Y-74481850D01*
X79318030Y-74459671D01*
X79309765Y-74436572D01*
X79303804Y-74412773D01*
X79300204Y-74388505D01*
X79299000Y-74364001D01*
X79299000Y-73463999D01*
X79300204Y-73439495D01*
X79303804Y-73415227D01*
X79309765Y-73391428D01*
X79318030Y-73368329D01*
X79328520Y-73346150D01*
X79341132Y-73325107D01*
X79355747Y-73305401D01*
X79372223Y-73287223D01*
X79390401Y-73270747D01*
X79410107Y-73256132D01*
X79431150Y-73243520D01*
X79453329Y-73233030D01*
X79476428Y-73224765D01*
X79500227Y-73218804D01*
X79524495Y-73215204D01*
X79548999Y-73214000D01*
X80199001Y-73214000D01*
X80223505Y-73215204D01*
X80223505Y-73215204D01*
G37*
D11*
G04 #@! TD*
G04 #@! TO.P,2Creg1,2*
G04 #@! TO.N,GND*
X79874000Y-73914000D03*
D18*
G04 #@! TO.N,GND*
X85567520Y-69710300D03*
X87599520Y-85090000D03*
X86227920Y-85090000D03*
X85567520Y-85902800D03*
X85567520Y-86817200D03*
X86024720Y-80975200D03*
X85567520Y-70612000D03*
X86761320Y-70624700D03*
X87891620Y-70612000D03*
X82976720Y-69405500D03*
X82976720Y-70345300D03*
X82989420Y-67894200D03*
X84500720Y-67856100D03*
X90571320Y-73101200D03*
X91714320Y-73126600D03*
X93124020Y-72898000D03*
X88519000Y-76073000D03*
X91498420Y-77127100D03*
X88475820Y-77609700D03*
X88488520Y-78803500D03*
X91777820Y-78371700D03*
X91041220Y-81965800D03*
X76829920Y-75935840D03*
X70779640Y-76123800D03*
X74112120Y-75432920D03*
X78994000Y-86106000D03*
X78994000Y-87376000D03*
X81851500Y-87439500D03*
X81915000Y-86106000D03*
X79502000Y-80518000D03*
X80772000Y-80010000D03*
X69850000Y-66294000D03*
X72898000Y-66294000D03*
X75946000Y-66294000D03*
X78994000Y-66294000D03*
X81788000Y-66294000D03*
X90170000Y-66294000D03*
X93218000Y-66294000D03*
X96520000Y-66294000D03*
X99314000Y-66294000D03*
X101346000Y-67818000D03*
X101346000Y-70104000D03*
X101346000Y-73406000D03*
X101346000Y-75692000D03*
X101346000Y-77978000D03*
X101346000Y-80010000D03*
X101346000Y-82296000D03*
X101346000Y-85090000D03*
X101346000Y-87630000D03*
X98806000Y-88138000D03*
X96012000Y-88138000D03*
X93218000Y-88138000D03*
X77724000Y-88138000D03*
X74676000Y-88138000D03*
X72136000Y-88138000D03*
X69596000Y-88138000D03*
X69088000Y-85852000D03*
X69088000Y-83312000D03*
X69088000Y-80518000D03*
X69088000Y-77216000D03*
X69088000Y-74168000D03*
X69088000Y-71120000D03*
X69088000Y-68326000D03*
G04 #@! TD*
D19*
G04 #@! TO.N,GND*
X86766720Y-76220000D02*
X85516720Y-77470000D01*
X86766720Y-75270000D02*
X86766720Y-76220000D01*
D20*
X86266720Y-80620000D02*
X86024720Y-80862000D01*
X86266720Y-79670000D02*
X86266720Y-80620000D01*
D21*
X74160380Y-77794600D02*
X72450440Y-77794600D01*
X74160380Y-77794600D02*
X74971160Y-77794600D01*
X74112120Y-77527900D02*
X73855580Y-77784440D01*
X74112120Y-75432920D02*
X74112120Y-77527900D01*
X75704180Y-75935840D02*
X73855580Y-77784440D01*
X76829920Y-75935840D02*
X75704180Y-75935840D01*
X72194940Y-76123800D02*
X73855580Y-77784440D01*
X70779640Y-76123800D02*
X72194940Y-76123800D01*
G04 #@! TO.N,Net-(1CByp1-Pad2)*
X89834720Y-80772000D02*
X89034720Y-80772000D01*
X89034720Y-80772000D02*
X88310720Y-80772000D01*
D19*
X87818720Y-80772000D02*
X89034720Y-80772000D01*
X87266720Y-80220000D02*
X87818720Y-80772000D01*
X87266720Y-79670000D02*
X87266720Y-80220000D01*
D21*
G04 #@! TO.N,/+5V*
X84990720Y-83820000D02*
X84246720Y-84564000D01*
X86786720Y-83820000D02*
X84990720Y-83820000D01*
X85266720Y-83544000D02*
X85266720Y-81549202D01*
X84990720Y-83820000D02*
X85266720Y-83544000D01*
D19*
X85266720Y-79670000D02*
X85266720Y-81549202D01*
X85266720Y-81549202D02*
X85266720Y-81026000D01*
D21*
X94170720Y-83312000D02*
X91612720Y-85870000D01*
X97454720Y-83312000D02*
X94170720Y-83312000D01*
X83623348Y-85187372D02*
X84246720Y-84564000D01*
X82815001Y-85995719D02*
X83623348Y-85187372D01*
X82815001Y-87159379D02*
X82815001Y-85995719D01*
X83444632Y-87789010D02*
X82815001Y-87159379D01*
X89693710Y-87789010D02*
X83444632Y-87789010D01*
X91612720Y-85870000D02*
X89693710Y-87789010D01*
D20*
G04 #@! TO.N,Net-(1R1-Pad2)*
X88696720Y-83566000D02*
X88836720Y-83566000D01*
D21*
X88836720Y-86342000D02*
X88818720Y-86360000D01*
X88836720Y-83820000D02*
X88836720Y-86342000D01*
D19*
X86766720Y-81242000D02*
X86849721Y-81242000D01*
X86849721Y-81242000D02*
X86786720Y-81262000D01*
D21*
X86924721Y-81908001D02*
X86924721Y-81242000D01*
X88836720Y-83820000D02*
X86924721Y-81908001D01*
D19*
X86766720Y-79670000D02*
X86924721Y-81242000D01*
X86924721Y-81242000D02*
X86766720Y-81242000D01*
D22*
G04 #@! TO.N,Net-(2Cadj1-Pad2)*
X87668710Y-73032010D02*
X86398710Y-73032010D01*
X88818720Y-71882000D02*
X87668710Y-73032010D01*
X86398710Y-73032010D02*
X86024720Y-73406000D01*
D19*
X85766720Y-73664000D02*
X86024720Y-73406000D01*
X85766720Y-75270000D02*
X85766720Y-73664000D01*
D21*
X88818720Y-69351000D02*
X88827720Y-69342000D01*
X88818720Y-71882000D02*
X88818720Y-69351000D01*
X84870092Y-69226628D02*
X84246720Y-69850000D01*
X86054730Y-68041990D02*
X84870092Y-69226628D01*
X88327710Y-68041990D02*
X86054730Y-68041990D01*
X88827720Y-68542000D02*
X88327710Y-68041990D01*
X88827720Y-69342000D02*
X88827720Y-68542000D01*
G04 #@! TO.N,Net-(2CByp1-Pad1)*
X89834720Y-73729000D02*
X89765720Y-73660000D01*
X89834720Y-74404000D02*
X89834720Y-73729000D01*
X89765720Y-73660000D02*
X88818720Y-73660000D01*
D20*
X86926720Y-73660000D02*
X88818720Y-73660000D01*
X86266720Y-74320000D02*
X86926720Y-73660000D01*
X86266720Y-75270000D02*
X86266720Y-74320000D01*
D21*
G04 #@! TO.N,Net-(CFly1-Pad1)*
X81198720Y-78749000D02*
X82541000Y-78749000D01*
D20*
X82645001Y-78644999D02*
X82541000Y-78749000D01*
X84176721Y-78644999D02*
X82645001Y-78644999D01*
X84266720Y-78734998D02*
X84176721Y-78644999D01*
X84266720Y-79670000D02*
X84266720Y-78734998D01*
D21*
X82541000Y-78749000D02*
X83049000Y-78749000D01*
D20*
G04 #@! TO.N,Net-(CFly1-Pad2)*
X84151723Y-76319999D02*
X83954001Y-76319999D01*
X84266720Y-75270000D02*
X84266720Y-76205002D01*
X84266720Y-76205002D02*
X84151723Y-76319999D01*
X83954001Y-76319999D02*
X83566000Y-76708000D01*
X83566000Y-76708000D02*
X83058000Y-76708000D01*
D21*
X83049000Y-76699000D02*
X81198720Y-76699000D01*
X83058000Y-76708000D02*
X83049000Y-76699000D01*
D20*
G04 #@! TO.N,+9V*
X84766720Y-78720000D02*
X84766720Y-79670000D01*
X84841721Y-78644999D02*
X84766720Y-78720000D01*
X85691719Y-78644999D02*
X84841721Y-78644999D01*
X85766720Y-78720000D02*
X85691719Y-78644999D01*
X85766720Y-79670000D02*
X85766720Y-78720000D01*
X85866719Y-78620001D02*
X87160719Y-78620001D01*
X85766720Y-78720000D02*
X85866719Y-78620001D01*
X87160719Y-78620001D02*
X87802720Y-77978000D01*
D19*
X87716720Y-75270000D02*
X87266720Y-75270000D01*
X87802720Y-75356000D02*
X87716720Y-75270000D01*
X87802720Y-77978000D02*
X87802720Y-75356000D01*
D21*
X80510160Y-84347880D02*
X80609440Y-84447160D01*
X79973280Y-83774280D02*
X80518000Y-84319000D01*
X74150220Y-83774280D02*
X79973280Y-83774280D01*
D20*
X84766720Y-80620000D02*
X84487720Y-80899000D01*
X84766720Y-79670000D02*
X84766720Y-80620000D01*
D21*
X83820000Y-81369000D02*
X84163000Y-81026000D01*
X83820000Y-82169000D02*
X83820000Y-81369000D01*
X81670000Y-84319000D02*
X83820000Y-82169000D01*
X80518000Y-84319000D02*
X81670000Y-84319000D01*
G04 #@! TO.N,/-5V*
X86768720Y-71882000D02*
X81706720Y-71882000D01*
X84246720Y-71900000D02*
X84246720Y-72898000D01*
X84246720Y-72898000D02*
X84754720Y-73406000D01*
D19*
X85266720Y-73918000D02*
X84246720Y-72898000D01*
X85266720Y-75270000D02*
X85266720Y-73918000D01*
D21*
X81083348Y-71258628D02*
X81706720Y-71882000D01*
X80406710Y-70581990D02*
X81083348Y-71258628D01*
X80406710Y-69154912D02*
X80406710Y-70581990D01*
X89497700Y-67041980D02*
X82519642Y-67041980D01*
X82519642Y-67041980D02*
X80406710Y-69154912D01*
X91612720Y-69157000D02*
X89497700Y-67041980D01*
X91612720Y-69832000D02*
X91612720Y-69157000D01*
X93916720Y-72136000D02*
X97454720Y-72136000D01*
X91612720Y-69832000D02*
X93916720Y-72136000D01*
D19*
G04 #@! TO.N,Net-(2Creg1-Pad1)*
X84652729Y-74156009D02*
X83681009Y-74156009D01*
X84766720Y-75270000D02*
X84766720Y-74270000D01*
X84766720Y-74270000D02*
X84652729Y-74156009D01*
X83681009Y-74156009D02*
X83439000Y-73914000D01*
D23*
X83439000Y-73914000D02*
X81924000Y-73914000D01*
G04 #@! TD*
D10*
G04 #@! TO.N,GND*
G36*
X101373506Y-65868382D02*
X101612156Y-66027844D01*
X101771618Y-66266494D01*
X101833000Y-66575085D01*
X101833001Y-87856910D01*
X101771618Y-88165506D01*
X101612156Y-88404156D01*
X101373506Y-88563618D01*
X101064915Y-88625000D01*
X69369085Y-88625000D01*
X69060494Y-88563618D01*
X68821844Y-88404156D01*
X68662382Y-88165506D01*
X68601000Y-87856915D01*
X68601000Y-86712500D01*
X79260000Y-86712500D01*
X79260000Y-87054993D01*
X79344950Y-87260082D01*
X79501918Y-87417049D01*
X79707007Y-87502000D01*
X80174500Y-87502000D01*
X80314000Y-87362500D01*
X80314000Y-86573000D01*
X80722000Y-86573000D01*
X80722000Y-87362500D01*
X80861500Y-87502000D01*
X81328993Y-87502000D01*
X81534082Y-87417049D01*
X81691050Y-87260082D01*
X81776000Y-87054993D01*
X81776000Y-86712500D01*
X81636500Y-86573000D01*
X80722000Y-86573000D01*
X80314000Y-86573000D01*
X79399500Y-86573000D01*
X79260000Y-86712500D01*
X68601000Y-86712500D01*
X68601000Y-85683007D01*
X79260000Y-85683007D01*
X79260000Y-86025500D01*
X79399500Y-86165000D01*
X80314000Y-86165000D01*
X80314000Y-85375500D01*
X80722000Y-85375500D01*
X80722000Y-86165000D01*
X81636500Y-86165000D01*
X81776000Y-86025500D01*
X81776000Y-85683007D01*
X81691050Y-85477918D01*
X81534082Y-85320951D01*
X81328993Y-85236000D01*
X80861500Y-85236000D01*
X80722000Y-85375500D01*
X80314000Y-85375500D01*
X80174500Y-85236000D01*
X79707007Y-85236000D01*
X79501918Y-85320951D01*
X79344950Y-85477918D01*
X79260000Y-85683007D01*
X68601000Y-85683007D01*
X68601000Y-83774280D01*
X71370834Y-83774280D01*
X71487252Y-84359551D01*
X71818781Y-84855719D01*
X72314949Y-85187248D01*
X72752487Y-85274280D01*
X75547953Y-85274280D01*
X75985491Y-85187248D01*
X76481659Y-84855719D01*
X76769937Y-84424280D01*
X79563103Y-84424280D01*
X79563103Y-84644001D01*
X79601536Y-84837216D01*
X79710984Y-85001016D01*
X79874784Y-85110464D01*
X80067999Y-85148897D01*
X80968001Y-85148897D01*
X81161216Y-85110464D01*
X81325016Y-85001016D01*
X81346408Y-84969000D01*
X81605984Y-84969000D01*
X81670000Y-84981734D01*
X81734016Y-84969000D01*
X81734018Y-84969000D01*
X81923617Y-84931286D01*
X82138624Y-84787624D01*
X82174891Y-84733346D01*
X83784341Y-83123897D01*
X84145001Y-83123897D01*
X84338216Y-83085464D01*
X84502016Y-82976016D01*
X84611464Y-82812216D01*
X84616720Y-82785790D01*
X84616720Y-83274762D01*
X84576374Y-83315109D01*
X84522096Y-83351376D01*
X84485833Y-83405648D01*
X84157379Y-83734103D01*
X83796719Y-83734103D01*
X83603504Y-83772536D01*
X83439704Y-83881984D01*
X83330256Y-84045784D01*
X83291823Y-84238999D01*
X83291823Y-84599660D01*
X83209001Y-84682482D01*
X83208995Y-84682486D01*
X82400653Y-85490830D01*
X82346378Y-85527095D01*
X82219633Y-85716784D01*
X82202716Y-85742102D01*
X82152267Y-85995719D01*
X82165002Y-86059740D01*
X82165001Y-87095362D01*
X82152267Y-87159379D01*
X82165001Y-87223395D01*
X82165001Y-87223396D01*
X82202715Y-87412995D01*
X82346377Y-87628003D01*
X82400655Y-87664270D01*
X82939744Y-88203361D01*
X82976008Y-88257634D01*
X83030280Y-88293897D01*
X83191014Y-88401296D01*
X83444632Y-88451744D01*
X83508650Y-88439010D01*
X89629694Y-88439010D01*
X89693710Y-88451744D01*
X89757726Y-88439010D01*
X89757728Y-88439010D01*
X89947327Y-88401296D01*
X90162334Y-88257634D01*
X90198601Y-88203356D01*
X91504175Y-86897782D01*
X94157438Y-86897782D01*
X94254246Y-87123185D01*
X94809335Y-87291437D01*
X95386557Y-87234458D01*
X95655194Y-87123185D01*
X95752002Y-86897782D01*
X99157438Y-86897782D01*
X99254246Y-87123185D01*
X99809335Y-87291437D01*
X100386557Y-87234458D01*
X100655194Y-87123185D01*
X100752002Y-86897782D01*
X99954720Y-86100500D01*
X99157438Y-86897782D01*
X95752002Y-86897782D01*
X94954720Y-86100500D01*
X94157438Y-86897782D01*
X91504175Y-86897782D01*
X91702061Y-86699897D01*
X92062721Y-86699897D01*
X92255936Y-86661464D01*
X92419736Y-86552016D01*
X92529184Y-86388216D01*
X92567617Y-86195001D01*
X92567617Y-85834340D01*
X92735342Y-85666615D01*
X93475283Y-85666615D01*
X93532262Y-86243837D01*
X93643535Y-86512474D01*
X93868938Y-86609282D01*
X94666220Y-85812000D01*
X95243220Y-85812000D01*
X96040502Y-86609282D01*
X96265905Y-86512474D01*
X96434157Y-85957385D01*
X96405455Y-85666615D01*
X98475283Y-85666615D01*
X98532262Y-86243837D01*
X98643535Y-86512474D01*
X98868938Y-86609282D01*
X99666220Y-85812000D01*
X100243220Y-85812000D01*
X101040502Y-86609282D01*
X101265905Y-86512474D01*
X101434157Y-85957385D01*
X101377178Y-85380163D01*
X101265905Y-85111526D01*
X101040502Y-85014718D01*
X100243220Y-85812000D01*
X99666220Y-85812000D01*
X98868938Y-85014718D01*
X98643535Y-85111526D01*
X98475283Y-85666615D01*
X96405455Y-85666615D01*
X96377178Y-85380163D01*
X96265905Y-85111526D01*
X96040502Y-85014718D01*
X95243220Y-85812000D01*
X94666220Y-85812000D01*
X93868938Y-85014718D01*
X93643535Y-85111526D01*
X93475283Y-85666615D01*
X92735342Y-85666615D01*
X93675740Y-84726218D01*
X94157438Y-84726218D01*
X94954720Y-85523500D01*
X95752002Y-84726218D01*
X99157438Y-84726218D01*
X99954720Y-85523500D01*
X100752002Y-84726218D01*
X100655194Y-84500815D01*
X100100105Y-84332563D01*
X99522883Y-84389542D01*
X99254246Y-84500815D01*
X99157438Y-84726218D01*
X95752002Y-84726218D01*
X95655194Y-84500815D01*
X95100105Y-84332563D01*
X94522883Y-84389542D01*
X94254246Y-84500815D01*
X94157438Y-84726218D01*
X93675740Y-84726218D01*
X94439959Y-83962000D01*
X96343908Y-83962000D01*
X96373827Y-84034230D01*
X96732490Y-84392893D01*
X97201107Y-84587000D01*
X97708333Y-84587000D01*
X98176950Y-84392893D01*
X98535613Y-84034230D01*
X98729720Y-83565613D01*
X98729720Y-83058387D01*
X98535613Y-82589770D01*
X98176950Y-82231107D01*
X97708333Y-82037000D01*
X97201107Y-82037000D01*
X96732490Y-82231107D01*
X96373827Y-82589770D01*
X96343908Y-82662000D01*
X94234736Y-82662000D01*
X94170719Y-82649266D01*
X94106703Y-82662000D01*
X94106702Y-82662000D01*
X93917103Y-82699714D01*
X93702096Y-82843376D01*
X93665833Y-82897649D01*
X92870720Y-83692762D01*
X92870720Y-83615998D01*
X92731222Y-83615998D01*
X92870720Y-83476500D01*
X92870720Y-83134007D01*
X92785770Y-82928918D01*
X92628802Y-82771951D01*
X92423713Y-82687000D01*
X91956220Y-82687000D01*
X91816720Y-82826500D01*
X91816720Y-83616000D01*
X91836720Y-83616000D01*
X91836720Y-84024000D01*
X91816720Y-84024000D01*
X91816720Y-84044000D01*
X91408720Y-84044000D01*
X91408720Y-84024000D01*
X90494220Y-84024000D01*
X90354720Y-84163500D01*
X90354720Y-84505993D01*
X90439670Y-84711082D01*
X90596638Y-84868049D01*
X90801727Y-84953000D01*
X91269220Y-84953000D01*
X91408718Y-84813502D01*
X91408718Y-84953000D01*
X91610483Y-84953000D01*
X91523380Y-85040103D01*
X91162719Y-85040103D01*
X90969504Y-85078536D01*
X90805704Y-85187984D01*
X90696256Y-85351784D01*
X90657823Y-85544999D01*
X90657823Y-85905659D01*
X89622579Y-86940904D01*
X89648617Y-86810001D01*
X89648617Y-85909999D01*
X89610184Y-85716784D01*
X89500736Y-85552984D01*
X89486720Y-85543619D01*
X89486720Y-84648408D01*
X89518736Y-84627016D01*
X89628184Y-84463216D01*
X89666617Y-84270001D01*
X89666617Y-83369999D01*
X89628184Y-83176784D01*
X89599602Y-83134007D01*
X90354720Y-83134007D01*
X90354720Y-83476500D01*
X90494220Y-83616000D01*
X91408720Y-83616000D01*
X91408720Y-82826500D01*
X91269220Y-82687000D01*
X90801727Y-82687000D01*
X90596638Y-82771951D01*
X90439670Y-82928918D01*
X90354720Y-83134007D01*
X89599602Y-83134007D01*
X89518736Y-83012984D01*
X89354936Y-82903536D01*
X89161721Y-82865103D01*
X88801061Y-82865103D01*
X87833740Y-81897782D01*
X94157438Y-81897782D01*
X94254246Y-82123185D01*
X94809335Y-82291437D01*
X95386557Y-82234458D01*
X95655194Y-82123185D01*
X95752002Y-81897782D01*
X99157438Y-81897782D01*
X99254246Y-82123185D01*
X99809335Y-82291437D01*
X100386557Y-82234458D01*
X100655194Y-82123185D01*
X100752002Y-81897782D01*
X99954720Y-81100500D01*
X99157438Y-81897782D01*
X95752002Y-81897782D01*
X94954720Y-81100500D01*
X94157438Y-81897782D01*
X87833740Y-81897782D01*
X87574721Y-81638764D01*
X87574721Y-81177982D01*
X87554547Y-81076561D01*
X87662648Y-81148791D01*
X87798836Y-81175881D01*
X87842096Y-81240624D01*
X88057103Y-81384286D01*
X88246702Y-81422000D01*
X89006312Y-81422000D01*
X89027704Y-81454016D01*
X89191504Y-81563464D01*
X89384719Y-81601897D01*
X90284721Y-81601897D01*
X90477936Y-81563464D01*
X90641736Y-81454016D01*
X90751184Y-81290216D01*
X90789617Y-81097001D01*
X90789617Y-80666615D01*
X93475283Y-80666615D01*
X93532262Y-81243837D01*
X93643535Y-81512474D01*
X93868938Y-81609282D01*
X94666220Y-80812000D01*
X95243220Y-80812000D01*
X96040502Y-81609282D01*
X96265905Y-81512474D01*
X96434157Y-80957385D01*
X96405455Y-80666615D01*
X98475283Y-80666615D01*
X98532262Y-81243837D01*
X98643535Y-81512474D01*
X98868938Y-81609282D01*
X99666220Y-80812000D01*
X100243220Y-80812000D01*
X101040502Y-81609282D01*
X101265905Y-81512474D01*
X101434157Y-80957385D01*
X101377178Y-80380163D01*
X101265905Y-80111526D01*
X101040502Y-80014718D01*
X100243220Y-80812000D01*
X99666220Y-80812000D01*
X98868938Y-80014718D01*
X98643535Y-80111526D01*
X98475283Y-80666615D01*
X96405455Y-80666615D01*
X96377178Y-80380163D01*
X96265905Y-80111526D01*
X96040502Y-80014718D01*
X95243220Y-80812000D01*
X94666220Y-80812000D01*
X93868938Y-80014718D01*
X93643535Y-80111526D01*
X93475283Y-80666615D01*
X90789617Y-80666615D01*
X90789617Y-80446999D01*
X90751184Y-80253784D01*
X90641736Y-80089984D01*
X90477936Y-79980536D01*
X90284721Y-79942103D01*
X89384719Y-79942103D01*
X89191504Y-79980536D01*
X89027704Y-80089984D01*
X89006312Y-80122000D01*
X88246702Y-80122000D01*
X88057103Y-80159714D01*
X87886267Y-80273862D01*
X87671617Y-80059213D01*
X87671617Y-79065500D01*
X88576720Y-79065500D01*
X88576720Y-79407993D01*
X88661670Y-79613082D01*
X88818638Y-79770049D01*
X89023727Y-79855000D01*
X89491220Y-79855000D01*
X89630720Y-79715500D01*
X89630720Y-78926000D01*
X90038720Y-78926000D01*
X90038720Y-79715500D01*
X90178220Y-79855000D01*
X90645713Y-79855000D01*
X90850802Y-79770049D01*
X90894633Y-79726218D01*
X94157438Y-79726218D01*
X94954720Y-80523500D01*
X95752002Y-79726218D01*
X99157438Y-79726218D01*
X99954720Y-80523500D01*
X100752002Y-79726218D01*
X100655194Y-79500815D01*
X100100105Y-79332563D01*
X99522883Y-79389542D01*
X99254246Y-79500815D01*
X99157438Y-79726218D01*
X95752002Y-79726218D01*
X95655194Y-79500815D01*
X95100105Y-79332563D01*
X94522883Y-79389542D01*
X94254246Y-79500815D01*
X94157438Y-79726218D01*
X90894633Y-79726218D01*
X91007770Y-79613082D01*
X91092720Y-79407993D01*
X91092720Y-79065500D01*
X90953220Y-78926000D01*
X90038720Y-78926000D01*
X89630720Y-78926000D01*
X88716220Y-78926000D01*
X88576720Y-79065500D01*
X87671617Y-79065500D01*
X87671617Y-78970000D01*
X87652214Y-78872455D01*
X87596959Y-78789761D01*
X87551598Y-78759451D01*
X87955630Y-78355420D01*
X87958791Y-78354791D01*
X88091104Y-78266384D01*
X88179511Y-78134072D01*
X88199017Y-78036007D01*
X88576720Y-78036007D01*
X88576720Y-78378500D01*
X88716220Y-78518000D01*
X89630720Y-78518000D01*
X89630720Y-77728500D01*
X90038720Y-77728500D01*
X90038720Y-78518000D01*
X90953220Y-78518000D01*
X91092720Y-78378500D01*
X91092720Y-78036007D01*
X91007770Y-77830918D01*
X90850802Y-77673951D01*
X90645713Y-77589000D01*
X90178220Y-77589000D01*
X90038720Y-77728500D01*
X89630720Y-77728500D01*
X89491220Y-77589000D01*
X89023727Y-77589000D01*
X88818638Y-77673951D01*
X88661670Y-77830918D01*
X88576720Y-78036007D01*
X88199017Y-78036007D01*
X88202720Y-78017394D01*
X88202720Y-76797500D01*
X88576720Y-76797500D01*
X88576720Y-77139993D01*
X88661670Y-77345082D01*
X88818638Y-77502049D01*
X89023727Y-77587000D01*
X89491220Y-77587000D01*
X89630720Y-77447500D01*
X89630720Y-76658000D01*
X90038720Y-76658000D01*
X90038720Y-77447500D01*
X90178220Y-77587000D01*
X90645713Y-77587000D01*
X90850802Y-77502049D01*
X91007770Y-77345082D01*
X91092720Y-77139993D01*
X91092720Y-76797500D01*
X90953220Y-76658000D01*
X90038720Y-76658000D01*
X89630720Y-76658000D01*
X88716220Y-76658000D01*
X88576720Y-76797500D01*
X88202720Y-76797500D01*
X88202720Y-75768007D01*
X88576720Y-75768007D01*
X88576720Y-76110500D01*
X88716220Y-76250000D01*
X89630720Y-76250000D01*
X89630720Y-75460500D01*
X90038720Y-75460500D01*
X90038720Y-76250000D01*
X90953220Y-76250000D01*
X91092720Y-76110500D01*
X91092720Y-75768007D01*
X91073574Y-75721782D01*
X94157438Y-75721782D01*
X94254246Y-75947185D01*
X94809335Y-76115437D01*
X95386557Y-76058458D01*
X95655194Y-75947185D01*
X95752002Y-75721782D01*
X99157438Y-75721782D01*
X99254246Y-75947185D01*
X99809335Y-76115437D01*
X100386557Y-76058458D01*
X100655194Y-75947185D01*
X100752002Y-75721782D01*
X99954720Y-74924500D01*
X99157438Y-75721782D01*
X95752002Y-75721782D01*
X94954720Y-74924500D01*
X94157438Y-75721782D01*
X91073574Y-75721782D01*
X91007770Y-75562918D01*
X90850802Y-75405951D01*
X90645713Y-75321000D01*
X90178220Y-75321000D01*
X90038720Y-75460500D01*
X89630720Y-75460500D01*
X89491220Y-75321000D01*
X89023727Y-75321000D01*
X88818638Y-75405951D01*
X88661670Y-75562918D01*
X88576720Y-75768007D01*
X88202720Y-75768007D01*
X88202720Y-75395392D01*
X88210556Y-75355999D01*
X88193449Y-75270000D01*
X88179511Y-75199928D01*
X88091104Y-75067616D01*
X88057703Y-75045299D01*
X88027422Y-75015018D01*
X88005104Y-74981616D01*
X87872792Y-74893209D01*
X87756114Y-74870000D01*
X87716720Y-74862164D01*
X87677326Y-74870000D01*
X87671617Y-74870000D01*
X87671617Y-74570000D01*
X87652214Y-74472455D01*
X87596959Y-74389761D01*
X87514265Y-74334506D01*
X87416720Y-74315103D01*
X87415113Y-74315103D01*
X87389770Y-74253918D01*
X87232802Y-74096951D01*
X87083240Y-74035000D01*
X88287539Y-74035000D01*
X88350096Y-74128624D01*
X88565103Y-74272286D01*
X88754702Y-74310000D01*
X88879823Y-74310000D01*
X88879823Y-74729001D01*
X88918256Y-74922216D01*
X89027704Y-75086016D01*
X89191504Y-75195464D01*
X89384719Y-75233897D01*
X90284721Y-75233897D01*
X90477936Y-75195464D01*
X90641736Y-75086016D01*
X90751184Y-74922216D01*
X90789617Y-74729001D01*
X90789617Y-74490615D01*
X93475283Y-74490615D01*
X93532262Y-75067837D01*
X93643535Y-75336474D01*
X93868938Y-75433282D01*
X94666220Y-74636000D01*
X95243220Y-74636000D01*
X96040502Y-75433282D01*
X96265905Y-75336474D01*
X96434157Y-74781385D01*
X96405455Y-74490615D01*
X98475283Y-74490615D01*
X98532262Y-75067837D01*
X98643535Y-75336474D01*
X98868938Y-75433282D01*
X99666220Y-74636000D01*
X100243220Y-74636000D01*
X101040502Y-75433282D01*
X101265905Y-75336474D01*
X101434157Y-74781385D01*
X101377178Y-74204163D01*
X101265905Y-73935526D01*
X101040502Y-73838718D01*
X100243220Y-74636000D01*
X99666220Y-74636000D01*
X98868938Y-73838718D01*
X98643535Y-73935526D01*
X98475283Y-74490615D01*
X96405455Y-74490615D01*
X96377178Y-74204163D01*
X96265905Y-73935526D01*
X96040502Y-73838718D01*
X95243220Y-74636000D01*
X94666220Y-74636000D01*
X93868938Y-73838718D01*
X93643535Y-73935526D01*
X93475283Y-74490615D01*
X90789617Y-74490615D01*
X90789617Y-74078999D01*
X90751184Y-73885784D01*
X90641736Y-73721984D01*
X90477936Y-73612536D01*
X90474137Y-73611780D01*
X90461892Y-73550218D01*
X94157438Y-73550218D01*
X94954720Y-74347500D01*
X95752002Y-73550218D01*
X99157438Y-73550218D01*
X99954720Y-74347500D01*
X100752002Y-73550218D01*
X100655194Y-73324815D01*
X100100105Y-73156563D01*
X99522883Y-73213542D01*
X99254246Y-73324815D01*
X99157438Y-73550218D01*
X95752002Y-73550218D01*
X95655194Y-73324815D01*
X95100105Y-73156563D01*
X94522883Y-73213542D01*
X94254246Y-73324815D01*
X94157438Y-73550218D01*
X90461892Y-73550218D01*
X90447006Y-73475383D01*
X90303344Y-73260376D01*
X90261981Y-73232739D01*
X90234344Y-73191376D01*
X90019337Y-73047714D01*
X89829738Y-73010000D01*
X89829736Y-73010000D01*
X89765720Y-72997266D01*
X89701704Y-73010000D01*
X88754702Y-73010000D01*
X88565103Y-73047714D01*
X88350096Y-73191376D01*
X88287539Y-73285000D01*
X88122826Y-73285000D01*
X88570929Y-72836897D01*
X89143721Y-72836897D01*
X89336936Y-72798464D01*
X89500736Y-72689016D01*
X89610184Y-72525216D01*
X89648617Y-72332001D01*
X89648617Y-72225500D01*
X90354720Y-72225500D01*
X90354720Y-72567993D01*
X90439670Y-72773082D01*
X90596638Y-72930049D01*
X90801727Y-73015000D01*
X91269220Y-73015000D01*
X91408720Y-72875500D01*
X91408720Y-72086000D01*
X90494220Y-72086000D01*
X90354720Y-72225500D01*
X89648617Y-72225500D01*
X89648617Y-71431999D01*
X89610184Y-71238784D01*
X89500736Y-71074984D01*
X89468720Y-71053592D01*
X89468720Y-70176422D01*
X89509736Y-70149016D01*
X89619184Y-69985216D01*
X89657617Y-69792001D01*
X89657617Y-68891999D01*
X89619184Y-68698784D01*
X89509736Y-68534984D01*
X89485889Y-68519050D01*
X89473415Y-68456341D01*
X89440006Y-68288383D01*
X89296344Y-68073376D01*
X89242071Y-68037112D01*
X88896938Y-67691980D01*
X89228463Y-67691980D01*
X90757944Y-69221462D01*
X90696256Y-69313784D01*
X90657823Y-69506999D01*
X90657823Y-70157001D01*
X90696256Y-70350216D01*
X90805704Y-70514016D01*
X90969504Y-70623464D01*
X91162719Y-70661897D01*
X91523380Y-70661897D01*
X91610483Y-70749000D01*
X91408718Y-70749000D01*
X91408718Y-70888498D01*
X91269220Y-70749000D01*
X90801727Y-70749000D01*
X90596638Y-70833951D01*
X90439670Y-70990918D01*
X90354720Y-71196007D01*
X90354720Y-71538500D01*
X90494220Y-71678000D01*
X91408720Y-71678000D01*
X91408720Y-71658000D01*
X91816720Y-71658000D01*
X91816720Y-71678000D01*
X91836720Y-71678000D01*
X91836720Y-72086000D01*
X91816720Y-72086000D01*
X91816720Y-72875500D01*
X91956220Y-73015000D01*
X92423713Y-73015000D01*
X92628802Y-72930049D01*
X92785770Y-72773082D01*
X92870720Y-72567993D01*
X92870720Y-72225500D01*
X92731222Y-72086002D01*
X92870720Y-72086002D01*
X92870720Y-72009238D01*
X93411831Y-72550349D01*
X93448096Y-72604624D01*
X93663103Y-72748286D01*
X93852702Y-72786000D01*
X93852703Y-72786000D01*
X93916719Y-72798734D01*
X93980736Y-72786000D01*
X96343908Y-72786000D01*
X96373827Y-72858230D01*
X96732490Y-73216893D01*
X97201107Y-73411000D01*
X97708333Y-73411000D01*
X98176950Y-73216893D01*
X98535613Y-72858230D01*
X98729720Y-72389613D01*
X98729720Y-71882387D01*
X98535613Y-71413770D01*
X98176950Y-71055107D01*
X97708333Y-70861000D01*
X97201107Y-70861000D01*
X96732490Y-71055107D01*
X96373827Y-71413770D01*
X96343908Y-71486000D01*
X94185958Y-71486000D01*
X93421740Y-70721782D01*
X94157438Y-70721782D01*
X94254246Y-70947185D01*
X94809335Y-71115437D01*
X95386557Y-71058458D01*
X95655194Y-70947185D01*
X95752002Y-70721782D01*
X99157438Y-70721782D01*
X99254246Y-70947185D01*
X99809335Y-71115437D01*
X100386557Y-71058458D01*
X100655194Y-70947185D01*
X100752002Y-70721782D01*
X99954720Y-69924500D01*
X99157438Y-70721782D01*
X95752002Y-70721782D01*
X94954720Y-69924500D01*
X94157438Y-70721782D01*
X93421740Y-70721782D01*
X92567617Y-69867660D01*
X92567617Y-69506999D01*
X92564359Y-69490615D01*
X93475283Y-69490615D01*
X93532262Y-70067837D01*
X93643535Y-70336474D01*
X93868938Y-70433282D01*
X94666220Y-69636000D01*
X95243220Y-69636000D01*
X96040502Y-70433282D01*
X96265905Y-70336474D01*
X96434157Y-69781385D01*
X96405455Y-69490615D01*
X98475283Y-69490615D01*
X98532262Y-70067837D01*
X98643535Y-70336474D01*
X98868938Y-70433282D01*
X99666220Y-69636000D01*
X100243220Y-69636000D01*
X101040502Y-70433282D01*
X101265905Y-70336474D01*
X101434157Y-69781385D01*
X101377178Y-69204163D01*
X101265905Y-68935526D01*
X101040502Y-68838718D01*
X100243220Y-69636000D01*
X99666220Y-69636000D01*
X98868938Y-68838718D01*
X98643535Y-68935526D01*
X98475283Y-69490615D01*
X96405455Y-69490615D01*
X96377178Y-69204163D01*
X96265905Y-68935526D01*
X96040502Y-68838718D01*
X95243220Y-69636000D01*
X94666220Y-69636000D01*
X93868938Y-68838718D01*
X93643535Y-68935526D01*
X93475283Y-69490615D01*
X92564359Y-69490615D01*
X92529184Y-69313784D01*
X92419736Y-69149984D01*
X92255936Y-69040536D01*
X92252137Y-69039780D01*
X92225006Y-68903383D01*
X92081344Y-68688376D01*
X92027069Y-68652111D01*
X91925176Y-68550218D01*
X94157438Y-68550218D01*
X94954720Y-69347500D01*
X95752002Y-68550218D01*
X99157438Y-68550218D01*
X99954720Y-69347500D01*
X100752002Y-68550218D01*
X100655194Y-68324815D01*
X100100105Y-68156563D01*
X99522883Y-68213542D01*
X99254246Y-68324815D01*
X99157438Y-68550218D01*
X95752002Y-68550218D01*
X95655194Y-68324815D01*
X95100105Y-68156563D01*
X94522883Y-68213542D01*
X94254246Y-68324815D01*
X94157438Y-68550218D01*
X91925176Y-68550218D01*
X90002591Y-66627634D01*
X89966324Y-66573356D01*
X89751317Y-66429694D01*
X89561718Y-66391980D01*
X89561716Y-66391980D01*
X89497700Y-66379246D01*
X89433684Y-66391980D01*
X82583658Y-66391980D01*
X82519641Y-66379246D01*
X82455625Y-66391980D01*
X82455624Y-66391980D01*
X82266025Y-66429694D01*
X82051018Y-66573356D01*
X82014753Y-66627631D01*
X79992364Y-68650021D01*
X79938086Y-68686288D01*
X79794424Y-68901296D01*
X79770792Y-69020103D01*
X79743976Y-69154912D01*
X79756710Y-69218929D01*
X79756711Y-70517969D01*
X79743976Y-70581990D01*
X79778141Y-70753742D01*
X79794425Y-70835607D01*
X79938087Y-71050614D01*
X79992362Y-71086879D01*
X80668996Y-71763515D01*
X80669002Y-71763519D01*
X80751823Y-71846340D01*
X80751823Y-72207001D01*
X80790256Y-72400216D01*
X80899704Y-72564016D01*
X81063504Y-72673464D01*
X81256719Y-72711897D01*
X82156721Y-72711897D01*
X82349936Y-72673464D01*
X82513736Y-72564016D01*
X82535128Y-72532000D01*
X83406284Y-72532000D01*
X83439704Y-72582016D01*
X83596721Y-72686932D01*
X83596721Y-72833979D01*
X83583986Y-72898000D01*
X83617457Y-73066266D01*
X83634435Y-73151617D01*
X83778097Y-73366624D01*
X83832371Y-73402889D01*
X84185491Y-73756009D01*
X83993837Y-73756009D01*
X83980637Y-73689646D01*
X83853551Y-73499449D01*
X83663354Y-73372363D01*
X83495628Y-73339000D01*
X82729033Y-73339000D01*
X82715464Y-73270784D01*
X82606016Y-73106984D01*
X82442216Y-72997536D01*
X82249001Y-72959103D01*
X81598999Y-72959103D01*
X81405784Y-72997536D01*
X81241984Y-73106984D01*
X81132536Y-73270784D01*
X81094103Y-73463999D01*
X81094103Y-74364001D01*
X81132536Y-74557216D01*
X81241984Y-74721016D01*
X81405784Y-74830464D01*
X81598999Y-74868897D01*
X82249001Y-74868897D01*
X82442216Y-74830464D01*
X82606016Y-74721016D01*
X82715464Y-74557216D01*
X82729033Y-74489000D01*
X83377935Y-74489000D01*
X83361823Y-74570000D01*
X83361823Y-75970000D01*
X83381226Y-76067545D01*
X83436481Y-76150239D01*
X83519175Y-76205494D01*
X83535023Y-76208646D01*
X83515028Y-76228642D01*
X83302617Y-76086714D01*
X83113018Y-76049000D01*
X83113016Y-76049000D01*
X83049000Y-76036266D01*
X82984984Y-76049000D01*
X82027128Y-76049000D01*
X82005736Y-76016984D01*
X81841936Y-75907536D01*
X81648721Y-75869103D01*
X80748719Y-75869103D01*
X80555504Y-75907536D01*
X80391704Y-76016984D01*
X80282256Y-76180784D01*
X80243823Y-76373999D01*
X80243823Y-77024001D01*
X80282256Y-77217216D01*
X80391704Y-77381016D01*
X80555504Y-77490464D01*
X80748719Y-77528897D01*
X81648721Y-77528897D01*
X81841936Y-77490464D01*
X82005736Y-77381016D01*
X82027128Y-77349000D01*
X82948739Y-77349000D01*
X83058000Y-77370734D01*
X83311617Y-77320285D01*
X83526623Y-77176623D01*
X83549542Y-77142322D01*
X83673220Y-77266000D01*
X85312720Y-77266000D01*
X85312720Y-77246000D01*
X85720720Y-77246000D01*
X85720720Y-77266000D01*
X85740720Y-77266000D01*
X85740720Y-77674000D01*
X85720720Y-77674000D01*
X85720720Y-77694000D01*
X85312720Y-77694000D01*
X85312720Y-77674000D01*
X83673220Y-77674000D01*
X83533720Y-77813500D01*
X83533720Y-78269999D01*
X83502094Y-78269999D01*
X83302617Y-78136714D01*
X83113018Y-78099000D01*
X82027128Y-78099000D01*
X82005736Y-78066984D01*
X81841936Y-77957536D01*
X81648721Y-77919103D01*
X80748719Y-77919103D01*
X80555504Y-77957536D01*
X80391704Y-78066984D01*
X80282256Y-78230784D01*
X80243823Y-78423999D01*
X80243823Y-79074001D01*
X80282256Y-79267216D01*
X80391704Y-79431016D01*
X80555504Y-79540464D01*
X80748719Y-79578897D01*
X81648721Y-79578897D01*
X81841936Y-79540464D01*
X82005736Y-79431016D01*
X82027128Y-79399000D01*
X83113018Y-79399000D01*
X83302617Y-79361286D01*
X83361823Y-79321726D01*
X83361823Y-80370000D01*
X83381226Y-80467545D01*
X83436481Y-80550239D01*
X83519175Y-80605494D01*
X83616720Y-80624897D01*
X83644865Y-80624897D01*
X83405652Y-80864111D01*
X83351377Y-80900376D01*
X83207715Y-81115383D01*
X83171844Y-81295716D01*
X83161831Y-81346050D01*
X83137984Y-81361984D01*
X83028536Y-81525784D01*
X82990103Y-81718999D01*
X82990103Y-82079659D01*
X82903000Y-82166762D01*
X82903000Y-81964998D01*
X82763502Y-81964998D01*
X82903000Y-81825500D01*
X82903000Y-81358007D01*
X82818049Y-81152918D01*
X82661082Y-80995950D01*
X82455993Y-80911000D01*
X82113500Y-80911000D01*
X81974000Y-81050500D01*
X81974000Y-81965000D01*
X81994000Y-81965000D01*
X81994000Y-82373000D01*
X81974000Y-82373000D01*
X81974000Y-82393000D01*
X81566000Y-82393000D01*
X81566000Y-82373000D01*
X80776500Y-82373000D01*
X80637000Y-82512500D01*
X80637000Y-82979993D01*
X80721951Y-83185082D01*
X80878918Y-83342050D01*
X81084007Y-83427000D01*
X81426500Y-83427000D01*
X81565998Y-83287502D01*
X81565998Y-83427000D01*
X81642763Y-83427000D01*
X81400763Y-83669000D01*
X81346408Y-83669000D01*
X81325016Y-83636984D01*
X81161216Y-83527536D01*
X80968001Y-83489103D01*
X80607341Y-83489103D01*
X80478171Y-83359934D01*
X80441904Y-83305656D01*
X80226897Y-83161994D01*
X80037298Y-83124280D01*
X80037296Y-83124280D01*
X79973280Y-83111546D01*
X79909264Y-83124280D01*
X76769937Y-83124280D01*
X76481659Y-82692841D01*
X75985491Y-82361312D01*
X75547953Y-82274280D01*
X72752487Y-82274280D01*
X72314949Y-82361312D01*
X71818781Y-82692841D01*
X71487252Y-83189009D01*
X71370834Y-83774280D01*
X68601000Y-83774280D01*
X68601000Y-81358007D01*
X80637000Y-81358007D01*
X80637000Y-81825500D01*
X80776500Y-81965000D01*
X81566000Y-81965000D01*
X81566000Y-81050500D01*
X81426500Y-80911000D01*
X81084007Y-80911000D01*
X80878918Y-80995950D01*
X80721951Y-81152918D01*
X80637000Y-81358007D01*
X68601000Y-81358007D01*
X68601000Y-77311454D01*
X71407109Y-77311454D01*
X71495260Y-77570280D01*
X72450171Y-77570280D01*
X72450170Y-77978280D01*
X71495260Y-77978280D01*
X71407109Y-78237106D01*
X71690909Y-78820091D01*
X72192692Y-79251102D01*
X72821220Y-79457280D01*
X73946220Y-79457280D01*
X73946220Y-78474330D01*
X74354220Y-78474330D01*
X74354220Y-79457280D01*
X75479220Y-79457280D01*
X76107748Y-79251102D01*
X76609531Y-78820091D01*
X76893331Y-78237106D01*
X76805180Y-77978280D01*
X75850270Y-77978280D01*
X75850270Y-77570280D01*
X76805180Y-77570280D01*
X76893331Y-77311454D01*
X76609531Y-76728469D01*
X76107748Y-76297458D01*
X75479220Y-76091280D01*
X74354220Y-76091280D01*
X74354220Y-77074230D01*
X73946220Y-77074230D01*
X73946220Y-76091280D01*
X72821220Y-76091280D01*
X72192692Y-76297458D01*
X71690909Y-76728469D01*
X71407109Y-77311454D01*
X68601000Y-77311454D01*
X68601000Y-74257500D01*
X78741000Y-74257500D01*
X78741000Y-74724993D01*
X78825951Y-74930082D01*
X78982918Y-75087050D01*
X79188007Y-75172000D01*
X79530500Y-75172000D01*
X79670000Y-75032500D01*
X79670000Y-74118000D01*
X80078000Y-74118000D01*
X80078000Y-75032500D01*
X80217500Y-75172000D01*
X80559993Y-75172000D01*
X80765082Y-75087050D01*
X80922049Y-74930082D01*
X81007000Y-74724993D01*
X81007000Y-74257500D01*
X80867500Y-74118000D01*
X80078000Y-74118000D01*
X79670000Y-74118000D01*
X78880500Y-74118000D01*
X78741000Y-74257500D01*
X68601000Y-74257500D01*
X68601000Y-73103007D01*
X78741000Y-73103007D01*
X78741000Y-73570500D01*
X78880500Y-73710000D01*
X79670000Y-73710000D01*
X79670000Y-72795500D01*
X80078000Y-72795500D01*
X80078000Y-73710000D01*
X80867500Y-73710000D01*
X81007000Y-73570500D01*
X81007000Y-73103007D01*
X80922049Y-72897918D01*
X80765082Y-72740950D01*
X80559993Y-72656000D01*
X80217500Y-72656000D01*
X80078000Y-72795500D01*
X79670000Y-72795500D01*
X79530500Y-72656000D01*
X79188007Y-72656000D01*
X78982918Y-72740950D01*
X78825951Y-72897918D01*
X78741000Y-73103007D01*
X68601000Y-73103007D01*
X68601000Y-66575085D01*
X68662382Y-66266494D01*
X68821844Y-66027844D01*
X69060494Y-65868382D01*
X69369085Y-65807000D01*
X101064915Y-65807000D01*
X101373506Y-65868382D01*
X101373506Y-65868382D01*
G37*
X101373506Y-65868382D02*
X101612156Y-66027844D01*
X101771618Y-66266494D01*
X101833000Y-66575085D01*
X101833001Y-87856910D01*
X101771618Y-88165506D01*
X101612156Y-88404156D01*
X101373506Y-88563618D01*
X101064915Y-88625000D01*
X69369085Y-88625000D01*
X69060494Y-88563618D01*
X68821844Y-88404156D01*
X68662382Y-88165506D01*
X68601000Y-87856915D01*
X68601000Y-86712500D01*
X79260000Y-86712500D01*
X79260000Y-87054993D01*
X79344950Y-87260082D01*
X79501918Y-87417049D01*
X79707007Y-87502000D01*
X80174500Y-87502000D01*
X80314000Y-87362500D01*
X80314000Y-86573000D01*
X80722000Y-86573000D01*
X80722000Y-87362500D01*
X80861500Y-87502000D01*
X81328993Y-87502000D01*
X81534082Y-87417049D01*
X81691050Y-87260082D01*
X81776000Y-87054993D01*
X81776000Y-86712500D01*
X81636500Y-86573000D01*
X80722000Y-86573000D01*
X80314000Y-86573000D01*
X79399500Y-86573000D01*
X79260000Y-86712500D01*
X68601000Y-86712500D01*
X68601000Y-85683007D01*
X79260000Y-85683007D01*
X79260000Y-86025500D01*
X79399500Y-86165000D01*
X80314000Y-86165000D01*
X80314000Y-85375500D01*
X80722000Y-85375500D01*
X80722000Y-86165000D01*
X81636500Y-86165000D01*
X81776000Y-86025500D01*
X81776000Y-85683007D01*
X81691050Y-85477918D01*
X81534082Y-85320951D01*
X81328993Y-85236000D01*
X80861500Y-85236000D01*
X80722000Y-85375500D01*
X80314000Y-85375500D01*
X80174500Y-85236000D01*
X79707007Y-85236000D01*
X79501918Y-85320951D01*
X79344950Y-85477918D01*
X79260000Y-85683007D01*
X68601000Y-85683007D01*
X68601000Y-83774280D01*
X71370834Y-83774280D01*
X71487252Y-84359551D01*
X71818781Y-84855719D01*
X72314949Y-85187248D01*
X72752487Y-85274280D01*
X75547953Y-85274280D01*
X75985491Y-85187248D01*
X76481659Y-84855719D01*
X76769937Y-84424280D01*
X79563103Y-84424280D01*
X79563103Y-84644001D01*
X79601536Y-84837216D01*
X79710984Y-85001016D01*
X79874784Y-85110464D01*
X80067999Y-85148897D01*
X80968001Y-85148897D01*
X81161216Y-85110464D01*
X81325016Y-85001016D01*
X81346408Y-84969000D01*
X81605984Y-84969000D01*
X81670000Y-84981734D01*
X81734016Y-84969000D01*
X81734018Y-84969000D01*
X81923617Y-84931286D01*
X82138624Y-84787624D01*
X82174891Y-84733346D01*
X83784341Y-83123897D01*
X84145001Y-83123897D01*
X84338216Y-83085464D01*
X84502016Y-82976016D01*
X84611464Y-82812216D01*
X84616720Y-82785790D01*
X84616720Y-83274762D01*
X84576374Y-83315109D01*
X84522096Y-83351376D01*
X84485833Y-83405648D01*
X84157379Y-83734103D01*
X83796719Y-83734103D01*
X83603504Y-83772536D01*
X83439704Y-83881984D01*
X83330256Y-84045784D01*
X83291823Y-84238999D01*
X83291823Y-84599660D01*
X83209001Y-84682482D01*
X83208995Y-84682486D01*
X82400653Y-85490830D01*
X82346378Y-85527095D01*
X82219633Y-85716784D01*
X82202716Y-85742102D01*
X82152267Y-85995719D01*
X82165002Y-86059740D01*
X82165001Y-87095362D01*
X82152267Y-87159379D01*
X82165001Y-87223395D01*
X82165001Y-87223396D01*
X82202715Y-87412995D01*
X82346377Y-87628003D01*
X82400655Y-87664270D01*
X82939744Y-88203361D01*
X82976008Y-88257634D01*
X83030280Y-88293897D01*
X83191014Y-88401296D01*
X83444632Y-88451744D01*
X83508650Y-88439010D01*
X89629694Y-88439010D01*
X89693710Y-88451744D01*
X89757726Y-88439010D01*
X89757728Y-88439010D01*
X89947327Y-88401296D01*
X90162334Y-88257634D01*
X90198601Y-88203356D01*
X91504175Y-86897782D01*
X94157438Y-86897782D01*
X94254246Y-87123185D01*
X94809335Y-87291437D01*
X95386557Y-87234458D01*
X95655194Y-87123185D01*
X95752002Y-86897782D01*
X99157438Y-86897782D01*
X99254246Y-87123185D01*
X99809335Y-87291437D01*
X100386557Y-87234458D01*
X100655194Y-87123185D01*
X100752002Y-86897782D01*
X99954720Y-86100500D01*
X99157438Y-86897782D01*
X95752002Y-86897782D01*
X94954720Y-86100500D01*
X94157438Y-86897782D01*
X91504175Y-86897782D01*
X91702061Y-86699897D01*
X92062721Y-86699897D01*
X92255936Y-86661464D01*
X92419736Y-86552016D01*
X92529184Y-86388216D01*
X92567617Y-86195001D01*
X92567617Y-85834340D01*
X92735342Y-85666615D01*
X93475283Y-85666615D01*
X93532262Y-86243837D01*
X93643535Y-86512474D01*
X93868938Y-86609282D01*
X94666220Y-85812000D01*
X95243220Y-85812000D01*
X96040502Y-86609282D01*
X96265905Y-86512474D01*
X96434157Y-85957385D01*
X96405455Y-85666615D01*
X98475283Y-85666615D01*
X98532262Y-86243837D01*
X98643535Y-86512474D01*
X98868938Y-86609282D01*
X99666220Y-85812000D01*
X100243220Y-85812000D01*
X101040502Y-86609282D01*
X101265905Y-86512474D01*
X101434157Y-85957385D01*
X101377178Y-85380163D01*
X101265905Y-85111526D01*
X101040502Y-85014718D01*
X100243220Y-85812000D01*
X99666220Y-85812000D01*
X98868938Y-85014718D01*
X98643535Y-85111526D01*
X98475283Y-85666615D01*
X96405455Y-85666615D01*
X96377178Y-85380163D01*
X96265905Y-85111526D01*
X96040502Y-85014718D01*
X95243220Y-85812000D01*
X94666220Y-85812000D01*
X93868938Y-85014718D01*
X93643535Y-85111526D01*
X93475283Y-85666615D01*
X92735342Y-85666615D01*
X93675740Y-84726218D01*
X94157438Y-84726218D01*
X94954720Y-85523500D01*
X95752002Y-84726218D01*
X99157438Y-84726218D01*
X99954720Y-85523500D01*
X100752002Y-84726218D01*
X100655194Y-84500815D01*
X100100105Y-84332563D01*
X99522883Y-84389542D01*
X99254246Y-84500815D01*
X99157438Y-84726218D01*
X95752002Y-84726218D01*
X95655194Y-84500815D01*
X95100105Y-84332563D01*
X94522883Y-84389542D01*
X94254246Y-84500815D01*
X94157438Y-84726218D01*
X93675740Y-84726218D01*
X94439959Y-83962000D01*
X96343908Y-83962000D01*
X96373827Y-84034230D01*
X96732490Y-84392893D01*
X97201107Y-84587000D01*
X97708333Y-84587000D01*
X98176950Y-84392893D01*
X98535613Y-84034230D01*
X98729720Y-83565613D01*
X98729720Y-83058387D01*
X98535613Y-82589770D01*
X98176950Y-82231107D01*
X97708333Y-82037000D01*
X97201107Y-82037000D01*
X96732490Y-82231107D01*
X96373827Y-82589770D01*
X96343908Y-82662000D01*
X94234736Y-82662000D01*
X94170719Y-82649266D01*
X94106703Y-82662000D01*
X94106702Y-82662000D01*
X93917103Y-82699714D01*
X93702096Y-82843376D01*
X93665833Y-82897649D01*
X92870720Y-83692762D01*
X92870720Y-83615998D01*
X92731222Y-83615998D01*
X92870720Y-83476500D01*
X92870720Y-83134007D01*
X92785770Y-82928918D01*
X92628802Y-82771951D01*
X92423713Y-82687000D01*
X91956220Y-82687000D01*
X91816720Y-82826500D01*
X91816720Y-83616000D01*
X91836720Y-83616000D01*
X91836720Y-84024000D01*
X91816720Y-84024000D01*
X91816720Y-84044000D01*
X91408720Y-84044000D01*
X91408720Y-84024000D01*
X90494220Y-84024000D01*
X90354720Y-84163500D01*
X90354720Y-84505993D01*
X90439670Y-84711082D01*
X90596638Y-84868049D01*
X90801727Y-84953000D01*
X91269220Y-84953000D01*
X91408718Y-84813502D01*
X91408718Y-84953000D01*
X91610483Y-84953000D01*
X91523380Y-85040103D01*
X91162719Y-85040103D01*
X90969504Y-85078536D01*
X90805704Y-85187984D01*
X90696256Y-85351784D01*
X90657823Y-85544999D01*
X90657823Y-85905659D01*
X89622579Y-86940904D01*
X89648617Y-86810001D01*
X89648617Y-85909999D01*
X89610184Y-85716784D01*
X89500736Y-85552984D01*
X89486720Y-85543619D01*
X89486720Y-84648408D01*
X89518736Y-84627016D01*
X89628184Y-84463216D01*
X89666617Y-84270001D01*
X89666617Y-83369999D01*
X89628184Y-83176784D01*
X89599602Y-83134007D01*
X90354720Y-83134007D01*
X90354720Y-83476500D01*
X90494220Y-83616000D01*
X91408720Y-83616000D01*
X91408720Y-82826500D01*
X91269220Y-82687000D01*
X90801727Y-82687000D01*
X90596638Y-82771951D01*
X90439670Y-82928918D01*
X90354720Y-83134007D01*
X89599602Y-83134007D01*
X89518736Y-83012984D01*
X89354936Y-82903536D01*
X89161721Y-82865103D01*
X88801061Y-82865103D01*
X87833740Y-81897782D01*
X94157438Y-81897782D01*
X94254246Y-82123185D01*
X94809335Y-82291437D01*
X95386557Y-82234458D01*
X95655194Y-82123185D01*
X95752002Y-81897782D01*
X99157438Y-81897782D01*
X99254246Y-82123185D01*
X99809335Y-82291437D01*
X100386557Y-82234458D01*
X100655194Y-82123185D01*
X100752002Y-81897782D01*
X99954720Y-81100500D01*
X99157438Y-81897782D01*
X95752002Y-81897782D01*
X94954720Y-81100500D01*
X94157438Y-81897782D01*
X87833740Y-81897782D01*
X87574721Y-81638764D01*
X87574721Y-81177982D01*
X87554547Y-81076561D01*
X87662648Y-81148791D01*
X87798836Y-81175881D01*
X87842096Y-81240624D01*
X88057103Y-81384286D01*
X88246702Y-81422000D01*
X89006312Y-81422000D01*
X89027704Y-81454016D01*
X89191504Y-81563464D01*
X89384719Y-81601897D01*
X90284721Y-81601897D01*
X90477936Y-81563464D01*
X90641736Y-81454016D01*
X90751184Y-81290216D01*
X90789617Y-81097001D01*
X90789617Y-80666615D01*
X93475283Y-80666615D01*
X93532262Y-81243837D01*
X93643535Y-81512474D01*
X93868938Y-81609282D01*
X94666220Y-80812000D01*
X95243220Y-80812000D01*
X96040502Y-81609282D01*
X96265905Y-81512474D01*
X96434157Y-80957385D01*
X96405455Y-80666615D01*
X98475283Y-80666615D01*
X98532262Y-81243837D01*
X98643535Y-81512474D01*
X98868938Y-81609282D01*
X99666220Y-80812000D01*
X100243220Y-80812000D01*
X101040502Y-81609282D01*
X101265905Y-81512474D01*
X101434157Y-80957385D01*
X101377178Y-80380163D01*
X101265905Y-80111526D01*
X101040502Y-80014718D01*
X100243220Y-80812000D01*
X99666220Y-80812000D01*
X98868938Y-80014718D01*
X98643535Y-80111526D01*
X98475283Y-80666615D01*
X96405455Y-80666615D01*
X96377178Y-80380163D01*
X96265905Y-80111526D01*
X96040502Y-80014718D01*
X95243220Y-80812000D01*
X94666220Y-80812000D01*
X93868938Y-80014718D01*
X93643535Y-80111526D01*
X93475283Y-80666615D01*
X90789617Y-80666615D01*
X90789617Y-80446999D01*
X90751184Y-80253784D01*
X90641736Y-80089984D01*
X90477936Y-79980536D01*
X90284721Y-79942103D01*
X89384719Y-79942103D01*
X89191504Y-79980536D01*
X89027704Y-80089984D01*
X89006312Y-80122000D01*
X88246702Y-80122000D01*
X88057103Y-80159714D01*
X87886267Y-80273862D01*
X87671617Y-80059213D01*
X87671617Y-79065500D01*
X88576720Y-79065500D01*
X88576720Y-79407993D01*
X88661670Y-79613082D01*
X88818638Y-79770049D01*
X89023727Y-79855000D01*
X89491220Y-79855000D01*
X89630720Y-79715500D01*
X89630720Y-78926000D01*
X90038720Y-78926000D01*
X90038720Y-79715500D01*
X90178220Y-79855000D01*
X90645713Y-79855000D01*
X90850802Y-79770049D01*
X90894633Y-79726218D01*
X94157438Y-79726218D01*
X94954720Y-80523500D01*
X95752002Y-79726218D01*
X99157438Y-79726218D01*
X99954720Y-80523500D01*
X100752002Y-79726218D01*
X100655194Y-79500815D01*
X100100105Y-79332563D01*
X99522883Y-79389542D01*
X99254246Y-79500815D01*
X99157438Y-79726218D01*
X95752002Y-79726218D01*
X95655194Y-79500815D01*
X95100105Y-79332563D01*
X94522883Y-79389542D01*
X94254246Y-79500815D01*
X94157438Y-79726218D01*
X90894633Y-79726218D01*
X91007770Y-79613082D01*
X91092720Y-79407993D01*
X91092720Y-79065500D01*
X90953220Y-78926000D01*
X90038720Y-78926000D01*
X89630720Y-78926000D01*
X88716220Y-78926000D01*
X88576720Y-79065500D01*
X87671617Y-79065500D01*
X87671617Y-78970000D01*
X87652214Y-78872455D01*
X87596959Y-78789761D01*
X87551598Y-78759451D01*
X87955630Y-78355420D01*
X87958791Y-78354791D01*
X88091104Y-78266384D01*
X88179511Y-78134072D01*
X88199017Y-78036007D01*
X88576720Y-78036007D01*
X88576720Y-78378500D01*
X88716220Y-78518000D01*
X89630720Y-78518000D01*
X89630720Y-77728500D01*
X90038720Y-77728500D01*
X90038720Y-78518000D01*
X90953220Y-78518000D01*
X91092720Y-78378500D01*
X91092720Y-78036007D01*
X91007770Y-77830918D01*
X90850802Y-77673951D01*
X90645713Y-77589000D01*
X90178220Y-77589000D01*
X90038720Y-77728500D01*
X89630720Y-77728500D01*
X89491220Y-77589000D01*
X89023727Y-77589000D01*
X88818638Y-77673951D01*
X88661670Y-77830918D01*
X88576720Y-78036007D01*
X88199017Y-78036007D01*
X88202720Y-78017394D01*
X88202720Y-76797500D01*
X88576720Y-76797500D01*
X88576720Y-77139993D01*
X88661670Y-77345082D01*
X88818638Y-77502049D01*
X89023727Y-77587000D01*
X89491220Y-77587000D01*
X89630720Y-77447500D01*
X89630720Y-76658000D01*
X90038720Y-76658000D01*
X90038720Y-77447500D01*
X90178220Y-77587000D01*
X90645713Y-77587000D01*
X90850802Y-77502049D01*
X91007770Y-77345082D01*
X91092720Y-77139993D01*
X91092720Y-76797500D01*
X90953220Y-76658000D01*
X90038720Y-76658000D01*
X89630720Y-76658000D01*
X88716220Y-76658000D01*
X88576720Y-76797500D01*
X88202720Y-76797500D01*
X88202720Y-75768007D01*
X88576720Y-75768007D01*
X88576720Y-76110500D01*
X88716220Y-76250000D01*
X89630720Y-76250000D01*
X89630720Y-75460500D01*
X90038720Y-75460500D01*
X90038720Y-76250000D01*
X90953220Y-76250000D01*
X91092720Y-76110500D01*
X91092720Y-75768007D01*
X91073574Y-75721782D01*
X94157438Y-75721782D01*
X94254246Y-75947185D01*
X94809335Y-76115437D01*
X95386557Y-76058458D01*
X95655194Y-75947185D01*
X95752002Y-75721782D01*
X99157438Y-75721782D01*
X99254246Y-75947185D01*
X99809335Y-76115437D01*
X100386557Y-76058458D01*
X100655194Y-75947185D01*
X100752002Y-75721782D01*
X99954720Y-74924500D01*
X99157438Y-75721782D01*
X95752002Y-75721782D01*
X94954720Y-74924500D01*
X94157438Y-75721782D01*
X91073574Y-75721782D01*
X91007770Y-75562918D01*
X90850802Y-75405951D01*
X90645713Y-75321000D01*
X90178220Y-75321000D01*
X90038720Y-75460500D01*
X89630720Y-75460500D01*
X89491220Y-75321000D01*
X89023727Y-75321000D01*
X88818638Y-75405951D01*
X88661670Y-75562918D01*
X88576720Y-75768007D01*
X88202720Y-75768007D01*
X88202720Y-75395392D01*
X88210556Y-75355999D01*
X88193449Y-75270000D01*
X88179511Y-75199928D01*
X88091104Y-75067616D01*
X88057703Y-75045299D01*
X88027422Y-75015018D01*
X88005104Y-74981616D01*
X87872792Y-74893209D01*
X87756114Y-74870000D01*
X87716720Y-74862164D01*
X87677326Y-74870000D01*
X87671617Y-74870000D01*
X87671617Y-74570000D01*
X87652214Y-74472455D01*
X87596959Y-74389761D01*
X87514265Y-74334506D01*
X87416720Y-74315103D01*
X87415113Y-74315103D01*
X87389770Y-74253918D01*
X87232802Y-74096951D01*
X87083240Y-74035000D01*
X88287539Y-74035000D01*
X88350096Y-74128624D01*
X88565103Y-74272286D01*
X88754702Y-74310000D01*
X88879823Y-74310000D01*
X88879823Y-74729001D01*
X88918256Y-74922216D01*
X89027704Y-75086016D01*
X89191504Y-75195464D01*
X89384719Y-75233897D01*
X90284721Y-75233897D01*
X90477936Y-75195464D01*
X90641736Y-75086016D01*
X90751184Y-74922216D01*
X90789617Y-74729001D01*
X90789617Y-74490615D01*
X93475283Y-74490615D01*
X93532262Y-75067837D01*
X93643535Y-75336474D01*
X93868938Y-75433282D01*
X94666220Y-74636000D01*
X95243220Y-74636000D01*
X96040502Y-75433282D01*
X96265905Y-75336474D01*
X96434157Y-74781385D01*
X96405455Y-74490615D01*
X98475283Y-74490615D01*
X98532262Y-75067837D01*
X98643535Y-75336474D01*
X98868938Y-75433282D01*
X99666220Y-74636000D01*
X100243220Y-74636000D01*
X101040502Y-75433282D01*
X101265905Y-75336474D01*
X101434157Y-74781385D01*
X101377178Y-74204163D01*
X101265905Y-73935526D01*
X101040502Y-73838718D01*
X100243220Y-74636000D01*
X99666220Y-74636000D01*
X98868938Y-73838718D01*
X98643535Y-73935526D01*
X98475283Y-74490615D01*
X96405455Y-74490615D01*
X96377178Y-74204163D01*
X96265905Y-73935526D01*
X96040502Y-73838718D01*
X95243220Y-74636000D01*
X94666220Y-74636000D01*
X93868938Y-73838718D01*
X93643535Y-73935526D01*
X93475283Y-74490615D01*
X90789617Y-74490615D01*
X90789617Y-74078999D01*
X90751184Y-73885784D01*
X90641736Y-73721984D01*
X90477936Y-73612536D01*
X90474137Y-73611780D01*
X90461892Y-73550218D01*
X94157438Y-73550218D01*
X94954720Y-74347500D01*
X95752002Y-73550218D01*
X99157438Y-73550218D01*
X99954720Y-74347500D01*
X100752002Y-73550218D01*
X100655194Y-73324815D01*
X100100105Y-73156563D01*
X99522883Y-73213542D01*
X99254246Y-73324815D01*
X99157438Y-73550218D01*
X95752002Y-73550218D01*
X95655194Y-73324815D01*
X95100105Y-73156563D01*
X94522883Y-73213542D01*
X94254246Y-73324815D01*
X94157438Y-73550218D01*
X90461892Y-73550218D01*
X90447006Y-73475383D01*
X90303344Y-73260376D01*
X90261981Y-73232739D01*
X90234344Y-73191376D01*
X90019337Y-73047714D01*
X89829738Y-73010000D01*
X89829736Y-73010000D01*
X89765720Y-72997266D01*
X89701704Y-73010000D01*
X88754702Y-73010000D01*
X88565103Y-73047714D01*
X88350096Y-73191376D01*
X88287539Y-73285000D01*
X88122826Y-73285000D01*
X88570929Y-72836897D01*
X89143721Y-72836897D01*
X89336936Y-72798464D01*
X89500736Y-72689016D01*
X89610184Y-72525216D01*
X89648617Y-72332001D01*
X89648617Y-72225500D01*
X90354720Y-72225500D01*
X90354720Y-72567993D01*
X90439670Y-72773082D01*
X90596638Y-72930049D01*
X90801727Y-73015000D01*
X91269220Y-73015000D01*
X91408720Y-72875500D01*
X91408720Y-72086000D01*
X90494220Y-72086000D01*
X90354720Y-72225500D01*
X89648617Y-72225500D01*
X89648617Y-71431999D01*
X89610184Y-71238784D01*
X89500736Y-71074984D01*
X89468720Y-71053592D01*
X89468720Y-70176422D01*
X89509736Y-70149016D01*
X89619184Y-69985216D01*
X89657617Y-69792001D01*
X89657617Y-68891999D01*
X89619184Y-68698784D01*
X89509736Y-68534984D01*
X89485889Y-68519050D01*
X89473415Y-68456341D01*
X89440006Y-68288383D01*
X89296344Y-68073376D01*
X89242071Y-68037112D01*
X88896938Y-67691980D01*
X89228463Y-67691980D01*
X90757944Y-69221462D01*
X90696256Y-69313784D01*
X90657823Y-69506999D01*
X90657823Y-70157001D01*
X90696256Y-70350216D01*
X90805704Y-70514016D01*
X90969504Y-70623464D01*
X91162719Y-70661897D01*
X91523380Y-70661897D01*
X91610483Y-70749000D01*
X91408718Y-70749000D01*
X91408718Y-70888498D01*
X91269220Y-70749000D01*
X90801727Y-70749000D01*
X90596638Y-70833951D01*
X90439670Y-70990918D01*
X90354720Y-71196007D01*
X90354720Y-71538500D01*
X90494220Y-71678000D01*
X91408720Y-71678000D01*
X91408720Y-71658000D01*
X91816720Y-71658000D01*
X91816720Y-71678000D01*
X91836720Y-71678000D01*
X91836720Y-72086000D01*
X91816720Y-72086000D01*
X91816720Y-72875500D01*
X91956220Y-73015000D01*
X92423713Y-73015000D01*
X92628802Y-72930049D01*
X92785770Y-72773082D01*
X92870720Y-72567993D01*
X92870720Y-72225500D01*
X92731222Y-72086002D01*
X92870720Y-72086002D01*
X92870720Y-72009238D01*
X93411831Y-72550349D01*
X93448096Y-72604624D01*
X93663103Y-72748286D01*
X93852702Y-72786000D01*
X93852703Y-72786000D01*
X93916719Y-72798734D01*
X93980736Y-72786000D01*
X96343908Y-72786000D01*
X96373827Y-72858230D01*
X96732490Y-73216893D01*
X97201107Y-73411000D01*
X97708333Y-73411000D01*
X98176950Y-73216893D01*
X98535613Y-72858230D01*
X98729720Y-72389613D01*
X98729720Y-71882387D01*
X98535613Y-71413770D01*
X98176950Y-71055107D01*
X97708333Y-70861000D01*
X97201107Y-70861000D01*
X96732490Y-71055107D01*
X96373827Y-71413770D01*
X96343908Y-71486000D01*
X94185958Y-71486000D01*
X93421740Y-70721782D01*
X94157438Y-70721782D01*
X94254246Y-70947185D01*
X94809335Y-71115437D01*
X95386557Y-71058458D01*
X95655194Y-70947185D01*
X95752002Y-70721782D01*
X99157438Y-70721782D01*
X99254246Y-70947185D01*
X99809335Y-71115437D01*
X100386557Y-71058458D01*
X100655194Y-70947185D01*
X100752002Y-70721782D01*
X99954720Y-69924500D01*
X99157438Y-70721782D01*
X95752002Y-70721782D01*
X94954720Y-69924500D01*
X94157438Y-70721782D01*
X93421740Y-70721782D01*
X92567617Y-69867660D01*
X92567617Y-69506999D01*
X92564359Y-69490615D01*
X93475283Y-69490615D01*
X93532262Y-70067837D01*
X93643535Y-70336474D01*
X93868938Y-70433282D01*
X94666220Y-69636000D01*
X95243220Y-69636000D01*
X96040502Y-70433282D01*
X96265905Y-70336474D01*
X96434157Y-69781385D01*
X96405455Y-69490615D01*
X98475283Y-69490615D01*
X98532262Y-70067837D01*
X98643535Y-70336474D01*
X98868938Y-70433282D01*
X99666220Y-69636000D01*
X100243220Y-69636000D01*
X101040502Y-70433282D01*
X101265905Y-70336474D01*
X101434157Y-69781385D01*
X101377178Y-69204163D01*
X101265905Y-68935526D01*
X101040502Y-68838718D01*
X100243220Y-69636000D01*
X99666220Y-69636000D01*
X98868938Y-68838718D01*
X98643535Y-68935526D01*
X98475283Y-69490615D01*
X96405455Y-69490615D01*
X96377178Y-69204163D01*
X96265905Y-68935526D01*
X96040502Y-68838718D01*
X95243220Y-69636000D01*
X94666220Y-69636000D01*
X93868938Y-68838718D01*
X93643535Y-68935526D01*
X93475283Y-69490615D01*
X92564359Y-69490615D01*
X92529184Y-69313784D01*
X92419736Y-69149984D01*
X92255936Y-69040536D01*
X92252137Y-69039780D01*
X92225006Y-68903383D01*
X92081344Y-68688376D01*
X92027069Y-68652111D01*
X91925176Y-68550218D01*
X94157438Y-68550218D01*
X94954720Y-69347500D01*
X95752002Y-68550218D01*
X99157438Y-68550218D01*
X99954720Y-69347500D01*
X100752002Y-68550218D01*
X100655194Y-68324815D01*
X100100105Y-68156563D01*
X99522883Y-68213542D01*
X99254246Y-68324815D01*
X99157438Y-68550218D01*
X95752002Y-68550218D01*
X95655194Y-68324815D01*
X95100105Y-68156563D01*
X94522883Y-68213542D01*
X94254246Y-68324815D01*
X94157438Y-68550218D01*
X91925176Y-68550218D01*
X90002591Y-66627634D01*
X89966324Y-66573356D01*
X89751317Y-66429694D01*
X89561718Y-66391980D01*
X89561716Y-66391980D01*
X89497700Y-66379246D01*
X89433684Y-66391980D01*
X82583658Y-66391980D01*
X82519641Y-66379246D01*
X82455625Y-66391980D01*
X82455624Y-66391980D01*
X82266025Y-66429694D01*
X82051018Y-66573356D01*
X82014753Y-66627631D01*
X79992364Y-68650021D01*
X79938086Y-68686288D01*
X79794424Y-68901296D01*
X79770792Y-69020103D01*
X79743976Y-69154912D01*
X79756710Y-69218929D01*
X79756711Y-70517969D01*
X79743976Y-70581990D01*
X79778141Y-70753742D01*
X79794425Y-70835607D01*
X79938087Y-71050614D01*
X79992362Y-71086879D01*
X80668996Y-71763515D01*
X80669002Y-71763519D01*
X80751823Y-71846340D01*
X80751823Y-72207001D01*
X80790256Y-72400216D01*
X80899704Y-72564016D01*
X81063504Y-72673464D01*
X81256719Y-72711897D01*
X82156721Y-72711897D01*
X82349936Y-72673464D01*
X82513736Y-72564016D01*
X82535128Y-72532000D01*
X83406284Y-72532000D01*
X83439704Y-72582016D01*
X83596721Y-72686932D01*
X83596721Y-72833979D01*
X83583986Y-72898000D01*
X83617457Y-73066266D01*
X83634435Y-73151617D01*
X83778097Y-73366624D01*
X83832371Y-73402889D01*
X84185491Y-73756009D01*
X83993837Y-73756009D01*
X83980637Y-73689646D01*
X83853551Y-73499449D01*
X83663354Y-73372363D01*
X83495628Y-73339000D01*
X82729033Y-73339000D01*
X82715464Y-73270784D01*
X82606016Y-73106984D01*
X82442216Y-72997536D01*
X82249001Y-72959103D01*
X81598999Y-72959103D01*
X81405784Y-72997536D01*
X81241984Y-73106984D01*
X81132536Y-73270784D01*
X81094103Y-73463999D01*
X81094103Y-74364001D01*
X81132536Y-74557216D01*
X81241984Y-74721016D01*
X81405784Y-74830464D01*
X81598999Y-74868897D01*
X82249001Y-74868897D01*
X82442216Y-74830464D01*
X82606016Y-74721016D01*
X82715464Y-74557216D01*
X82729033Y-74489000D01*
X83377935Y-74489000D01*
X83361823Y-74570000D01*
X83361823Y-75970000D01*
X83381226Y-76067545D01*
X83436481Y-76150239D01*
X83519175Y-76205494D01*
X83535023Y-76208646D01*
X83515028Y-76228642D01*
X83302617Y-76086714D01*
X83113018Y-76049000D01*
X83113016Y-76049000D01*
X83049000Y-76036266D01*
X82984984Y-76049000D01*
X82027128Y-76049000D01*
X82005736Y-76016984D01*
X81841936Y-75907536D01*
X81648721Y-75869103D01*
X80748719Y-75869103D01*
X80555504Y-75907536D01*
X80391704Y-76016984D01*
X80282256Y-76180784D01*
X80243823Y-76373999D01*
X80243823Y-77024001D01*
X80282256Y-77217216D01*
X80391704Y-77381016D01*
X80555504Y-77490464D01*
X80748719Y-77528897D01*
X81648721Y-77528897D01*
X81841936Y-77490464D01*
X82005736Y-77381016D01*
X82027128Y-77349000D01*
X82948739Y-77349000D01*
X83058000Y-77370734D01*
X83311617Y-77320285D01*
X83526623Y-77176623D01*
X83549542Y-77142322D01*
X83673220Y-77266000D01*
X85312720Y-77266000D01*
X85312720Y-77246000D01*
X85720720Y-77246000D01*
X85720720Y-77266000D01*
X85740720Y-77266000D01*
X85740720Y-77674000D01*
X85720720Y-77674000D01*
X85720720Y-77694000D01*
X85312720Y-77694000D01*
X85312720Y-77674000D01*
X83673220Y-77674000D01*
X83533720Y-77813500D01*
X83533720Y-78269999D01*
X83502094Y-78269999D01*
X83302617Y-78136714D01*
X83113018Y-78099000D01*
X82027128Y-78099000D01*
X82005736Y-78066984D01*
X81841936Y-77957536D01*
X81648721Y-77919103D01*
X80748719Y-77919103D01*
X80555504Y-77957536D01*
X80391704Y-78066984D01*
X80282256Y-78230784D01*
X80243823Y-78423999D01*
X80243823Y-79074001D01*
X80282256Y-79267216D01*
X80391704Y-79431016D01*
X80555504Y-79540464D01*
X80748719Y-79578897D01*
X81648721Y-79578897D01*
X81841936Y-79540464D01*
X82005736Y-79431016D01*
X82027128Y-79399000D01*
X83113018Y-79399000D01*
X83302617Y-79361286D01*
X83361823Y-79321726D01*
X83361823Y-80370000D01*
X83381226Y-80467545D01*
X83436481Y-80550239D01*
X83519175Y-80605494D01*
X83616720Y-80624897D01*
X83644865Y-80624897D01*
X83405652Y-80864111D01*
X83351377Y-80900376D01*
X83207715Y-81115383D01*
X83171844Y-81295716D01*
X83161831Y-81346050D01*
X83137984Y-81361984D01*
X83028536Y-81525784D01*
X82990103Y-81718999D01*
X82990103Y-82079659D01*
X82903000Y-82166762D01*
X82903000Y-81964998D01*
X82763502Y-81964998D01*
X82903000Y-81825500D01*
X82903000Y-81358007D01*
X82818049Y-81152918D01*
X82661082Y-80995950D01*
X82455993Y-80911000D01*
X82113500Y-80911000D01*
X81974000Y-81050500D01*
X81974000Y-81965000D01*
X81994000Y-81965000D01*
X81994000Y-82373000D01*
X81974000Y-82373000D01*
X81974000Y-82393000D01*
X81566000Y-82393000D01*
X81566000Y-82373000D01*
X80776500Y-82373000D01*
X80637000Y-82512500D01*
X80637000Y-82979993D01*
X80721951Y-83185082D01*
X80878918Y-83342050D01*
X81084007Y-83427000D01*
X81426500Y-83427000D01*
X81565998Y-83287502D01*
X81565998Y-83427000D01*
X81642763Y-83427000D01*
X81400763Y-83669000D01*
X81346408Y-83669000D01*
X81325016Y-83636984D01*
X81161216Y-83527536D01*
X80968001Y-83489103D01*
X80607341Y-83489103D01*
X80478171Y-83359934D01*
X80441904Y-83305656D01*
X80226897Y-83161994D01*
X80037298Y-83124280D01*
X80037296Y-83124280D01*
X79973280Y-83111546D01*
X79909264Y-83124280D01*
X76769937Y-83124280D01*
X76481659Y-82692841D01*
X75985491Y-82361312D01*
X75547953Y-82274280D01*
X72752487Y-82274280D01*
X72314949Y-82361312D01*
X71818781Y-82692841D01*
X71487252Y-83189009D01*
X71370834Y-83774280D01*
X68601000Y-83774280D01*
X68601000Y-81358007D01*
X80637000Y-81358007D01*
X80637000Y-81825500D01*
X80776500Y-81965000D01*
X81566000Y-81965000D01*
X81566000Y-81050500D01*
X81426500Y-80911000D01*
X81084007Y-80911000D01*
X80878918Y-80995950D01*
X80721951Y-81152918D01*
X80637000Y-81358007D01*
X68601000Y-81358007D01*
X68601000Y-77311454D01*
X71407109Y-77311454D01*
X71495260Y-77570280D01*
X72450171Y-77570280D01*
X72450170Y-77978280D01*
X71495260Y-77978280D01*
X71407109Y-78237106D01*
X71690909Y-78820091D01*
X72192692Y-79251102D01*
X72821220Y-79457280D01*
X73946220Y-79457280D01*
X73946220Y-78474330D01*
X74354220Y-78474330D01*
X74354220Y-79457280D01*
X75479220Y-79457280D01*
X76107748Y-79251102D01*
X76609531Y-78820091D01*
X76893331Y-78237106D01*
X76805180Y-77978280D01*
X75850270Y-77978280D01*
X75850270Y-77570280D01*
X76805180Y-77570280D01*
X76893331Y-77311454D01*
X76609531Y-76728469D01*
X76107748Y-76297458D01*
X75479220Y-76091280D01*
X74354220Y-76091280D01*
X74354220Y-77074230D01*
X73946220Y-77074230D01*
X73946220Y-76091280D01*
X72821220Y-76091280D01*
X72192692Y-76297458D01*
X71690909Y-76728469D01*
X71407109Y-77311454D01*
X68601000Y-77311454D01*
X68601000Y-74257500D01*
X78741000Y-74257500D01*
X78741000Y-74724993D01*
X78825951Y-74930082D01*
X78982918Y-75087050D01*
X79188007Y-75172000D01*
X79530500Y-75172000D01*
X79670000Y-75032500D01*
X79670000Y-74118000D01*
X80078000Y-74118000D01*
X80078000Y-75032500D01*
X80217500Y-75172000D01*
X80559993Y-75172000D01*
X80765082Y-75087050D01*
X80922049Y-74930082D01*
X81007000Y-74724993D01*
X81007000Y-74257500D01*
X80867500Y-74118000D01*
X80078000Y-74118000D01*
X79670000Y-74118000D01*
X78880500Y-74118000D01*
X78741000Y-74257500D01*
X68601000Y-74257500D01*
X68601000Y-73103007D01*
X78741000Y-73103007D01*
X78741000Y-73570500D01*
X78880500Y-73710000D01*
X79670000Y-73710000D01*
X79670000Y-72795500D01*
X80078000Y-72795500D01*
X80078000Y-73710000D01*
X80867500Y-73710000D01*
X81007000Y-73570500D01*
X81007000Y-73103007D01*
X80922049Y-72897918D01*
X80765082Y-72740950D01*
X80559993Y-72656000D01*
X80217500Y-72656000D01*
X80078000Y-72795500D01*
X79670000Y-72795500D01*
X79530500Y-72656000D01*
X79188007Y-72656000D01*
X78982918Y-72740950D01*
X78825951Y-72897918D01*
X78741000Y-73103007D01*
X68601000Y-73103007D01*
X68601000Y-66575085D01*
X68662382Y-66266494D01*
X68821844Y-66027844D01*
X69060494Y-65868382D01*
X69369085Y-65807000D01*
X101064915Y-65807000D01*
X101373506Y-65868382D01*
G36*
X88006823Y-83909342D02*
X88006823Y-84270001D01*
X88045256Y-84463216D01*
X88154704Y-84627016D01*
X88186720Y-84648409D01*
X88186721Y-85519564D01*
X88136704Y-85552984D01*
X88027256Y-85716784D01*
X87988823Y-85909999D01*
X87988823Y-86810001D01*
X88027256Y-87003216D01*
X88117991Y-87139010D01*
X87901720Y-87139010D01*
X87901720Y-86703500D01*
X87762220Y-86564000D01*
X86972720Y-86564000D01*
X86972720Y-86584000D01*
X86564720Y-86584000D01*
X86564720Y-86564000D01*
X85775220Y-86564000D01*
X85635720Y-86703500D01*
X85635720Y-87139010D01*
X85504720Y-87139010D01*
X85504720Y-86957500D01*
X85365220Y-86818000D01*
X84450720Y-86818000D01*
X84450720Y-86838000D01*
X84042720Y-86838000D01*
X84042720Y-86818000D01*
X84022720Y-86818000D01*
X84022720Y-86410000D01*
X84042720Y-86410000D01*
X84042720Y-86390000D01*
X84450720Y-86390000D01*
X84450720Y-86410000D01*
X85365220Y-86410000D01*
X85504720Y-86270500D01*
X85504720Y-85928007D01*
X85419770Y-85722918D01*
X85262802Y-85565951D01*
X85221896Y-85549007D01*
X85635720Y-85549007D01*
X85635720Y-86016500D01*
X85775220Y-86156000D01*
X86564720Y-86156000D01*
X86564720Y-85241500D01*
X86972720Y-85241500D01*
X86972720Y-86156000D01*
X87762220Y-86156000D01*
X87901720Y-86016500D01*
X87901720Y-85549007D01*
X87816769Y-85343918D01*
X87659802Y-85186950D01*
X87454713Y-85102000D01*
X87112220Y-85102000D01*
X86972720Y-85241500D01*
X86564720Y-85241500D01*
X86425220Y-85102000D01*
X86082727Y-85102000D01*
X85877638Y-85186950D01*
X85720671Y-85343918D01*
X85635720Y-85549007D01*
X85221896Y-85549007D01*
X85057713Y-85481000D01*
X84590220Y-85481000D01*
X84450722Y-85620498D01*
X84450722Y-85481000D01*
X84248957Y-85481000D01*
X84336060Y-85393897D01*
X84696721Y-85393897D01*
X84889936Y-85355464D01*
X85053736Y-85246016D01*
X85163184Y-85082216D01*
X85201617Y-84889001D01*
X85201617Y-84528341D01*
X85259958Y-84470000D01*
X85999789Y-84470000D01*
X86104704Y-84627016D01*
X86268504Y-84736464D01*
X86461719Y-84774897D01*
X87111721Y-84774897D01*
X87304936Y-84736464D01*
X87468736Y-84627016D01*
X87578184Y-84463216D01*
X87616617Y-84270001D01*
X87616617Y-83519135D01*
X88006823Y-83909342D01*
X88006823Y-83909342D01*
G37*
X88006823Y-83909342D02*
X88006823Y-84270001D01*
X88045256Y-84463216D01*
X88154704Y-84627016D01*
X88186720Y-84648409D01*
X88186721Y-85519564D01*
X88136704Y-85552984D01*
X88027256Y-85716784D01*
X87988823Y-85909999D01*
X87988823Y-86810001D01*
X88027256Y-87003216D01*
X88117991Y-87139010D01*
X87901720Y-87139010D01*
X87901720Y-86703500D01*
X87762220Y-86564000D01*
X86972720Y-86564000D01*
X86972720Y-86584000D01*
X86564720Y-86584000D01*
X86564720Y-86564000D01*
X85775220Y-86564000D01*
X85635720Y-86703500D01*
X85635720Y-87139010D01*
X85504720Y-87139010D01*
X85504720Y-86957500D01*
X85365220Y-86818000D01*
X84450720Y-86818000D01*
X84450720Y-86838000D01*
X84042720Y-86838000D01*
X84042720Y-86818000D01*
X84022720Y-86818000D01*
X84022720Y-86410000D01*
X84042720Y-86410000D01*
X84042720Y-86390000D01*
X84450720Y-86390000D01*
X84450720Y-86410000D01*
X85365220Y-86410000D01*
X85504720Y-86270500D01*
X85504720Y-85928007D01*
X85419770Y-85722918D01*
X85262802Y-85565951D01*
X85221896Y-85549007D01*
X85635720Y-85549007D01*
X85635720Y-86016500D01*
X85775220Y-86156000D01*
X86564720Y-86156000D01*
X86564720Y-85241500D01*
X86972720Y-85241500D01*
X86972720Y-86156000D01*
X87762220Y-86156000D01*
X87901720Y-86016500D01*
X87901720Y-85549007D01*
X87816769Y-85343918D01*
X87659802Y-85186950D01*
X87454713Y-85102000D01*
X87112220Y-85102000D01*
X86972720Y-85241500D01*
X86564720Y-85241500D01*
X86425220Y-85102000D01*
X86082727Y-85102000D01*
X85877638Y-85186950D01*
X85720671Y-85343918D01*
X85635720Y-85549007D01*
X85221896Y-85549007D01*
X85057713Y-85481000D01*
X84590220Y-85481000D01*
X84450722Y-85620498D01*
X84450722Y-85481000D01*
X84248957Y-85481000D01*
X84336060Y-85393897D01*
X84696721Y-85393897D01*
X84889936Y-85355464D01*
X85053736Y-85246016D01*
X85163184Y-85082216D01*
X85201617Y-84889001D01*
X85201617Y-84528341D01*
X85259958Y-84470000D01*
X85999789Y-84470000D01*
X86104704Y-84627016D01*
X86268504Y-84736464D01*
X86461719Y-84774897D01*
X87111721Y-84774897D01*
X87304936Y-84736464D01*
X87468736Y-84627016D01*
X87578184Y-84463216D01*
X87616617Y-84270001D01*
X87616617Y-83519135D01*
X88006823Y-83909342D01*
G36*
X86341720Y-79466000D02*
X86361823Y-79466000D01*
X86361823Y-79874000D01*
X86341720Y-79874000D01*
X86341720Y-80788500D01*
X86404227Y-80851007D01*
X86312435Y-80988383D01*
X86274721Y-81177982D01*
X86274721Y-81843985D01*
X86261987Y-81908001D01*
X86274721Y-81972017D01*
X86274721Y-81972018D01*
X86312435Y-82161617D01*
X86456097Y-82376625D01*
X86510375Y-82412892D01*
X86962585Y-82865103D01*
X86461719Y-82865103D01*
X86268504Y-82903536D01*
X86104704Y-83012984D01*
X85999789Y-83170000D01*
X85916720Y-83170000D01*
X85916720Y-81485184D01*
X85879006Y-81295585D01*
X85735344Y-81080578D01*
X85666720Y-81034725D01*
X85666720Y-80709132D01*
X85800638Y-80843049D01*
X86005727Y-80928000D01*
X86052220Y-80928000D01*
X86191720Y-80788500D01*
X86191720Y-79874000D01*
X86171617Y-79874000D01*
X86171617Y-79466000D01*
X86191720Y-79466000D01*
X86191720Y-79446000D01*
X86341720Y-79446000D01*
X86341720Y-79466000D01*
X86341720Y-79466000D01*
G37*
X86341720Y-79466000D02*
X86361823Y-79466000D01*
X86361823Y-79874000D01*
X86341720Y-79874000D01*
X86341720Y-80788500D01*
X86404227Y-80851007D01*
X86312435Y-80988383D01*
X86274721Y-81177982D01*
X86274721Y-81843985D01*
X86261987Y-81908001D01*
X86274721Y-81972017D01*
X86274721Y-81972018D01*
X86312435Y-82161617D01*
X86456097Y-82376625D01*
X86510375Y-82412892D01*
X86962585Y-82865103D01*
X86461719Y-82865103D01*
X86268504Y-82903536D01*
X86104704Y-83012984D01*
X85999789Y-83170000D01*
X85916720Y-83170000D01*
X85916720Y-81485184D01*
X85879006Y-81295585D01*
X85735344Y-81080578D01*
X85666720Y-81034725D01*
X85666720Y-80709132D01*
X85800638Y-80843049D01*
X86005727Y-80928000D01*
X86052220Y-80928000D01*
X86191720Y-80788500D01*
X86191720Y-79874000D01*
X86171617Y-79874000D01*
X86171617Y-79466000D01*
X86191720Y-79466000D01*
X86191720Y-79446000D01*
X86341720Y-79446000D01*
X86341720Y-79466000D01*
G36*
X86841720Y-75066000D02*
X86861823Y-75066000D01*
X86861823Y-75255225D01*
X86858884Y-75270000D01*
X86861823Y-75284775D01*
X86861823Y-75474000D01*
X86841720Y-75474000D01*
X86841720Y-75494000D01*
X86691720Y-75494000D01*
X86691720Y-75474000D01*
X86671617Y-75474000D01*
X86671617Y-75066000D01*
X86691720Y-75066000D01*
X86691720Y-75046000D01*
X86841720Y-75046000D01*
X86841720Y-75066000D01*
X86841720Y-75066000D01*
G37*
X86841720Y-75066000D02*
X86861823Y-75066000D01*
X86861823Y-75255225D01*
X86858884Y-75270000D01*
X86861823Y-75284775D01*
X86861823Y-75474000D01*
X86841720Y-75474000D01*
X86841720Y-75494000D01*
X86691720Y-75494000D01*
X86691720Y-75474000D01*
X86671617Y-75474000D01*
X86671617Y-75066000D01*
X86691720Y-75066000D01*
X86691720Y-75046000D01*
X86841720Y-75046000D01*
X86841720Y-75066000D01*
G36*
X84455743Y-68721740D02*
X84455740Y-68721742D01*
X84157379Y-69020103D01*
X83796719Y-69020103D01*
X83603504Y-69058536D01*
X83439704Y-69167984D01*
X83330256Y-69331784D01*
X83291823Y-69524999D01*
X83291823Y-70175001D01*
X83330256Y-70368216D01*
X83439704Y-70532016D01*
X83603504Y-70641464D01*
X83796719Y-70679897D01*
X84696721Y-70679897D01*
X84889936Y-70641464D01*
X85053736Y-70532016D01*
X85163184Y-70368216D01*
X85201617Y-70175001D01*
X85201617Y-69814341D01*
X85374978Y-69640980D01*
X85374980Y-69640977D01*
X85644720Y-69371237D01*
X85644720Y-69546002D01*
X85784218Y-69546002D01*
X85644720Y-69685500D01*
X85644720Y-70152993D01*
X85729671Y-70358082D01*
X85886638Y-70515050D01*
X86091727Y-70600000D01*
X86434220Y-70600000D01*
X86573720Y-70460500D01*
X86573720Y-69546000D01*
X86981720Y-69546000D01*
X86981720Y-70460500D01*
X87121220Y-70600000D01*
X87463713Y-70600000D01*
X87668802Y-70515050D01*
X87825769Y-70358082D01*
X87910720Y-70152993D01*
X87910720Y-69685500D01*
X87771220Y-69546000D01*
X86981720Y-69546000D01*
X86573720Y-69546000D01*
X86553720Y-69546000D01*
X86553720Y-69138000D01*
X86573720Y-69138000D01*
X86573720Y-69118000D01*
X86981720Y-69118000D01*
X86981720Y-69138000D01*
X87771220Y-69138000D01*
X87910720Y-68998500D01*
X87910720Y-68691990D01*
X88040796Y-68691990D01*
X88036256Y-68698784D01*
X87997823Y-68891999D01*
X87997823Y-69792001D01*
X88036256Y-69985216D01*
X88145704Y-70149016D01*
X88168721Y-70164395D01*
X88168720Y-71053591D01*
X88136704Y-71074984D01*
X88027256Y-71238784D01*
X87988823Y-71431999D01*
X87988823Y-72004790D01*
X87582975Y-72410639D01*
X87598617Y-72332001D01*
X87598617Y-71431999D01*
X87560184Y-71238784D01*
X87450736Y-71074984D01*
X87286936Y-70965536D01*
X87093721Y-70927103D01*
X86443719Y-70927103D01*
X86250504Y-70965536D01*
X86086704Y-71074984D01*
X85981789Y-71232000D01*
X85063101Y-71232000D01*
X85053736Y-71217984D01*
X84889936Y-71108536D01*
X84696721Y-71070103D01*
X83796719Y-71070103D01*
X83603504Y-71108536D01*
X83439704Y-71217984D01*
X83430339Y-71232000D01*
X82535128Y-71232000D01*
X82513736Y-71199984D01*
X82349936Y-71090536D01*
X82156721Y-71052103D01*
X81796060Y-71052103D01*
X81708957Y-70965000D01*
X81910722Y-70965000D01*
X81910722Y-70825502D01*
X82050220Y-70965000D01*
X82517713Y-70965000D01*
X82722802Y-70880049D01*
X82879770Y-70723082D01*
X82964720Y-70517993D01*
X82964720Y-70175500D01*
X82825220Y-70036000D01*
X81910720Y-70036000D01*
X81910720Y-70056000D01*
X81502720Y-70056000D01*
X81502720Y-70036000D01*
X81482720Y-70036000D01*
X81482720Y-69628000D01*
X81502720Y-69628000D01*
X81502720Y-69608000D01*
X81910720Y-69608000D01*
X81910720Y-69628000D01*
X82825220Y-69628000D01*
X82964720Y-69488500D01*
X82964720Y-69146007D01*
X82879770Y-68940918D01*
X82722802Y-68783951D01*
X82517713Y-68699000D01*
X82050220Y-68699000D01*
X81910722Y-68838498D01*
X81910722Y-68699000D01*
X81781859Y-68699000D01*
X82788880Y-67691980D01*
X85485502Y-67691980D01*
X84455743Y-68721740D01*
X84455743Y-68721740D01*
G37*
X84455743Y-68721740D02*
X84455740Y-68721742D01*
X84157379Y-69020103D01*
X83796719Y-69020103D01*
X83603504Y-69058536D01*
X83439704Y-69167984D01*
X83330256Y-69331784D01*
X83291823Y-69524999D01*
X83291823Y-70175001D01*
X83330256Y-70368216D01*
X83439704Y-70532016D01*
X83603504Y-70641464D01*
X83796719Y-70679897D01*
X84696721Y-70679897D01*
X84889936Y-70641464D01*
X85053736Y-70532016D01*
X85163184Y-70368216D01*
X85201617Y-70175001D01*
X85201617Y-69814341D01*
X85374978Y-69640980D01*
X85374980Y-69640977D01*
X85644720Y-69371237D01*
X85644720Y-69546002D01*
X85784218Y-69546002D01*
X85644720Y-69685500D01*
X85644720Y-70152993D01*
X85729671Y-70358082D01*
X85886638Y-70515050D01*
X86091727Y-70600000D01*
X86434220Y-70600000D01*
X86573720Y-70460500D01*
X86573720Y-69546000D01*
X86981720Y-69546000D01*
X86981720Y-70460500D01*
X87121220Y-70600000D01*
X87463713Y-70600000D01*
X87668802Y-70515050D01*
X87825769Y-70358082D01*
X87910720Y-70152993D01*
X87910720Y-69685500D01*
X87771220Y-69546000D01*
X86981720Y-69546000D01*
X86573720Y-69546000D01*
X86553720Y-69546000D01*
X86553720Y-69138000D01*
X86573720Y-69138000D01*
X86573720Y-69118000D01*
X86981720Y-69118000D01*
X86981720Y-69138000D01*
X87771220Y-69138000D01*
X87910720Y-68998500D01*
X87910720Y-68691990D01*
X88040796Y-68691990D01*
X88036256Y-68698784D01*
X87997823Y-68891999D01*
X87997823Y-69792001D01*
X88036256Y-69985216D01*
X88145704Y-70149016D01*
X88168721Y-70164395D01*
X88168720Y-71053591D01*
X88136704Y-71074984D01*
X88027256Y-71238784D01*
X87988823Y-71431999D01*
X87988823Y-72004790D01*
X87582975Y-72410639D01*
X87598617Y-72332001D01*
X87598617Y-71431999D01*
X87560184Y-71238784D01*
X87450736Y-71074984D01*
X87286936Y-70965536D01*
X87093721Y-70927103D01*
X86443719Y-70927103D01*
X86250504Y-70965536D01*
X86086704Y-71074984D01*
X85981789Y-71232000D01*
X85063101Y-71232000D01*
X85053736Y-71217984D01*
X84889936Y-71108536D01*
X84696721Y-71070103D01*
X83796719Y-71070103D01*
X83603504Y-71108536D01*
X83439704Y-71217984D01*
X83430339Y-71232000D01*
X82535128Y-71232000D01*
X82513736Y-71199984D01*
X82349936Y-71090536D01*
X82156721Y-71052103D01*
X81796060Y-71052103D01*
X81708957Y-70965000D01*
X81910722Y-70965000D01*
X81910722Y-70825502D01*
X82050220Y-70965000D01*
X82517713Y-70965000D01*
X82722802Y-70880049D01*
X82879770Y-70723082D01*
X82964720Y-70517993D01*
X82964720Y-70175500D01*
X82825220Y-70036000D01*
X81910720Y-70036000D01*
X81910720Y-70056000D01*
X81502720Y-70056000D01*
X81502720Y-70036000D01*
X81482720Y-70036000D01*
X81482720Y-69628000D01*
X81502720Y-69628000D01*
X81502720Y-69608000D01*
X81910720Y-69608000D01*
X81910720Y-69628000D01*
X82825220Y-69628000D01*
X82964720Y-69488500D01*
X82964720Y-69146007D01*
X82879770Y-68940918D01*
X82722802Y-68783951D01*
X82517713Y-68699000D01*
X82050220Y-68699000D01*
X81910722Y-68838498D01*
X81910722Y-68699000D01*
X81781859Y-68699000D01*
X82788880Y-67691980D01*
X85485502Y-67691980D01*
X84455743Y-68721740D01*
G36*
X74354220Y-77570280D02*
X75450170Y-77570280D01*
X75450171Y-77978280D01*
X74354220Y-77978280D01*
X74354220Y-78074230D01*
X73946220Y-78074230D01*
X73946220Y-77978280D01*
X72850270Y-77978280D01*
X72850270Y-77570280D01*
X73946220Y-77570280D01*
X73946220Y-77474330D01*
X74354220Y-77474330D01*
X74354220Y-77570280D01*
X74354220Y-77570280D01*
G37*
X74354220Y-77570280D02*
X75450170Y-77570280D01*
X75450171Y-77978280D01*
X74354220Y-77978280D01*
X74354220Y-78074230D01*
X73946220Y-78074230D01*
X73946220Y-77978280D01*
X72850270Y-77978280D01*
X72850270Y-77570280D01*
X73946220Y-77570280D01*
X73946220Y-77474330D01*
X74354220Y-77474330D01*
X74354220Y-77570280D01*
G04 #@! TD*
M02*
