G04 #@! TF.GenerationSoftware,KiCad,Pcbnew,(5.0.2)-1*
G04 #@! TF.CreationDate,2019-08-18T14:58:17-04:00*
G04 #@! TF.ProjectId,LTC3260-DualRail,4c544333-3236-4302-9d44-75616c526169,rev?*
G04 #@! TF.SameCoordinates,Original*
G04 #@! TF.FileFunction,Legend,Top*
G04 #@! TF.FilePolarity,Positive*
%FSLAX46Y46*%
G04 Gerber Fmt 4.6, Leading zero omitted, Abs format (unit mm)*
G04 Created by KiCad (PCBNEW (5.0.2)-1) date 8/18/2019 2:58:17 PM*
%MOMM*%
%LPD*%
G01*
G04 APERTURE LIST*
%ADD10C,0.080000*%
%ADD11C,0.120000*%
%ADD12C,0.127000*%
%ADD13C,0.400000*%
%ADD14C,0.150000*%
%ADD15C,0.070000*%
G04 APERTURE END LIST*
D10*
X69525142Y-67756190D02*
X69287047Y-67756190D01*
X69287047Y-67256190D01*
X69620380Y-67256190D02*
X69906095Y-67256190D01*
X69763238Y-67756190D02*
X69763238Y-67256190D01*
X70358476Y-67708571D02*
X70334666Y-67732380D01*
X70263238Y-67756190D01*
X70215619Y-67756190D01*
X70144190Y-67732380D01*
X70096571Y-67684761D01*
X70072761Y-67637142D01*
X70048952Y-67541904D01*
X70048952Y-67470476D01*
X70072761Y-67375238D01*
X70096571Y-67327619D01*
X70144190Y-67280000D01*
X70215619Y-67256190D01*
X70263238Y-67256190D01*
X70334666Y-67280000D01*
X70358476Y-67303809D01*
X70525142Y-67256190D02*
X70834666Y-67256190D01*
X70668000Y-67446666D01*
X70739428Y-67446666D01*
X70787047Y-67470476D01*
X70810857Y-67494285D01*
X70834666Y-67541904D01*
X70834666Y-67660952D01*
X70810857Y-67708571D01*
X70787047Y-67732380D01*
X70739428Y-67756190D01*
X70596571Y-67756190D01*
X70548952Y-67732380D01*
X70525142Y-67708571D01*
X71025142Y-67303809D02*
X71048952Y-67280000D01*
X71096571Y-67256190D01*
X71215619Y-67256190D01*
X71263238Y-67280000D01*
X71287047Y-67303809D01*
X71310857Y-67351428D01*
X71310857Y-67399047D01*
X71287047Y-67470476D01*
X71001333Y-67756190D01*
X71310857Y-67756190D01*
X71739428Y-67256190D02*
X71644190Y-67256190D01*
X71596571Y-67280000D01*
X71572761Y-67303809D01*
X71525142Y-67375238D01*
X71501333Y-67470476D01*
X71501333Y-67660952D01*
X71525142Y-67708571D01*
X71548952Y-67732380D01*
X71596571Y-67756190D01*
X71691809Y-67756190D01*
X71739428Y-67732380D01*
X71763238Y-67708571D01*
X71787047Y-67660952D01*
X71787047Y-67541904D01*
X71763238Y-67494285D01*
X71739428Y-67470476D01*
X71691809Y-67446666D01*
X71596571Y-67446666D01*
X71548952Y-67470476D01*
X71525142Y-67494285D01*
X71501333Y-67541904D01*
X72096571Y-67256190D02*
X72144190Y-67256190D01*
X72191809Y-67280000D01*
X72215619Y-67303809D01*
X72239428Y-67351428D01*
X72263238Y-67446666D01*
X72263238Y-67565714D01*
X72239428Y-67660952D01*
X72215619Y-67708571D01*
X72191809Y-67732380D01*
X72144190Y-67756190D01*
X72096571Y-67756190D01*
X72048952Y-67732380D01*
X72025142Y-67708571D01*
X72001333Y-67660952D01*
X71977523Y-67565714D01*
X71977523Y-67446666D01*
X72001333Y-67351428D01*
X72025142Y-67303809D01*
X72048952Y-67280000D01*
X72096571Y-67256190D01*
X72858476Y-67494285D02*
X73025142Y-67494285D01*
X73096571Y-67756190D02*
X72858476Y-67756190D01*
X72858476Y-67256190D01*
X73096571Y-67256190D01*
X73263238Y-67422857D02*
X73382285Y-67756190D01*
X73501333Y-67422857D01*
X73906095Y-67756190D02*
X73906095Y-67494285D01*
X73882285Y-67446666D01*
X73834666Y-67422857D01*
X73739428Y-67422857D01*
X73691809Y-67446666D01*
X73906095Y-67732380D02*
X73858476Y-67756190D01*
X73739428Y-67756190D01*
X73691809Y-67732380D01*
X73668000Y-67684761D01*
X73668000Y-67637142D01*
X73691809Y-67589523D01*
X73739428Y-67565714D01*
X73858476Y-67565714D01*
X73906095Y-67541904D01*
X74215619Y-67756190D02*
X74168000Y-67732380D01*
X74144190Y-67684761D01*
X74144190Y-67256190D01*
X74620380Y-67422857D02*
X74620380Y-67756190D01*
X74406095Y-67422857D02*
X74406095Y-67684761D01*
X74429904Y-67732380D01*
X74477523Y-67756190D01*
X74548952Y-67756190D01*
X74596571Y-67732380D01*
X74620380Y-67708571D01*
X75072761Y-67756190D02*
X75072761Y-67494285D01*
X75048952Y-67446666D01*
X75001333Y-67422857D01*
X74906095Y-67422857D01*
X74858476Y-67446666D01*
X75072761Y-67732380D02*
X75025142Y-67756190D01*
X74906095Y-67756190D01*
X74858476Y-67732380D01*
X74834666Y-67684761D01*
X74834666Y-67637142D01*
X74858476Y-67589523D01*
X74906095Y-67565714D01*
X75025142Y-67565714D01*
X75072761Y-67541904D01*
X75239428Y-67422857D02*
X75429904Y-67422857D01*
X75310857Y-67256190D02*
X75310857Y-67684761D01*
X75334666Y-67732380D01*
X75382285Y-67756190D01*
X75429904Y-67756190D01*
X75596571Y-67756190D02*
X75596571Y-67422857D01*
X75596571Y-67256190D02*
X75572761Y-67280000D01*
X75596571Y-67303809D01*
X75620380Y-67280000D01*
X75596571Y-67256190D01*
X75596571Y-67303809D01*
X75906095Y-67756190D02*
X75858476Y-67732380D01*
X75834666Y-67708571D01*
X75810857Y-67660952D01*
X75810857Y-67518095D01*
X75834666Y-67470476D01*
X75858476Y-67446666D01*
X75906095Y-67422857D01*
X75977523Y-67422857D01*
X76025142Y-67446666D01*
X76048952Y-67470476D01*
X76072761Y-67518095D01*
X76072761Y-67660952D01*
X76048952Y-67708571D01*
X76025142Y-67732380D01*
X75977523Y-67756190D01*
X75906095Y-67756190D01*
X76287047Y-67422857D02*
X76287047Y-67756190D01*
X76287047Y-67470476D02*
X76310857Y-67446666D01*
X76358476Y-67422857D01*
X76429904Y-67422857D01*
X76477523Y-67446666D01*
X76501333Y-67494285D01*
X76501333Y-67756190D01*
X77287047Y-67494285D02*
X77358476Y-67518095D01*
X77382285Y-67541904D01*
X77406095Y-67589523D01*
X77406095Y-67660952D01*
X77382285Y-67708571D01*
X77358476Y-67732380D01*
X77310857Y-67756190D01*
X77120380Y-67756190D01*
X77120380Y-67256190D01*
X77287047Y-67256190D01*
X77334666Y-67280000D01*
X77358476Y-67303809D01*
X77382285Y-67351428D01*
X77382285Y-67399047D01*
X77358476Y-67446666D01*
X77334666Y-67470476D01*
X77287047Y-67494285D01*
X77120380Y-67494285D01*
X77691809Y-67756190D02*
X77644190Y-67732380D01*
X77620380Y-67708571D01*
X77596571Y-67660952D01*
X77596571Y-67518095D01*
X77620380Y-67470476D01*
X77644190Y-67446666D01*
X77691809Y-67422857D01*
X77763238Y-67422857D01*
X77810857Y-67446666D01*
X77834666Y-67470476D01*
X77858476Y-67518095D01*
X77858476Y-67660952D01*
X77834666Y-67708571D01*
X77810857Y-67732380D01*
X77763238Y-67756190D01*
X77691809Y-67756190D01*
X78287047Y-67756190D02*
X78287047Y-67494285D01*
X78263238Y-67446666D01*
X78215619Y-67422857D01*
X78120380Y-67422857D01*
X78072761Y-67446666D01*
X78287047Y-67732380D02*
X78239428Y-67756190D01*
X78120380Y-67756190D01*
X78072761Y-67732380D01*
X78048952Y-67684761D01*
X78048952Y-67637142D01*
X78072761Y-67589523D01*
X78120380Y-67565714D01*
X78239428Y-67565714D01*
X78287047Y-67541904D01*
X78525142Y-67756190D02*
X78525142Y-67422857D01*
X78525142Y-67518095D02*
X78548952Y-67470476D01*
X78572761Y-67446666D01*
X78620380Y-67422857D01*
X78668000Y-67422857D01*
X79048952Y-67756190D02*
X79048952Y-67256190D01*
X79048952Y-67732380D02*
X79001333Y-67756190D01*
X78906095Y-67756190D01*
X78858476Y-67732380D01*
X78834666Y-67708571D01*
X78810857Y-67660952D01*
X78810857Y-67518095D01*
X78834666Y-67470476D01*
X78858476Y-67446666D01*
X78906095Y-67422857D01*
X79001333Y-67422857D01*
X79048952Y-67446666D01*
X70072761Y-68776666D02*
X70048952Y-68752857D01*
X70001333Y-68681428D01*
X69977523Y-68633809D01*
X69953714Y-68562380D01*
X69929904Y-68443333D01*
X69929904Y-68348095D01*
X69953714Y-68229047D01*
X69977523Y-68157619D01*
X70001333Y-68110000D01*
X70048952Y-68038571D01*
X70072761Y-68014761D01*
X70548952Y-68538571D02*
X70525142Y-68562380D01*
X70453714Y-68586190D01*
X70406095Y-68586190D01*
X70334666Y-68562380D01*
X70287047Y-68514761D01*
X70263238Y-68467142D01*
X70239428Y-68371904D01*
X70239428Y-68300476D01*
X70263238Y-68205238D01*
X70287047Y-68157619D01*
X70334666Y-68110000D01*
X70406095Y-68086190D01*
X70453714Y-68086190D01*
X70525142Y-68110000D01*
X70548952Y-68133809D01*
X70715619Y-68776666D02*
X70739428Y-68752857D01*
X70787047Y-68681428D01*
X70810857Y-68633809D01*
X70834666Y-68562380D01*
X70858476Y-68443333D01*
X70858476Y-68348095D01*
X70834666Y-68229047D01*
X70810857Y-68157619D01*
X70787047Y-68110000D01*
X70739428Y-68038571D01*
X70715619Y-68014761D01*
X71406095Y-68086190D02*
X71691809Y-68086190D01*
X71548952Y-68586190D02*
X71548952Y-68086190D01*
X71929904Y-68586190D02*
X71882285Y-68562380D01*
X71858476Y-68538571D01*
X71834666Y-68490952D01*
X71834666Y-68348095D01*
X71858476Y-68300476D01*
X71882285Y-68276666D01*
X71929904Y-68252857D01*
X72001333Y-68252857D01*
X72048952Y-68276666D01*
X72072761Y-68300476D01*
X72096571Y-68348095D01*
X72096571Y-68490952D01*
X72072761Y-68538571D01*
X72048952Y-68562380D01*
X72001333Y-68586190D01*
X71929904Y-68586190D01*
X72310857Y-68252857D02*
X72310857Y-68586190D01*
X72310857Y-68300476D02*
X72334666Y-68276666D01*
X72382285Y-68252857D01*
X72453714Y-68252857D01*
X72501333Y-68276666D01*
X72525142Y-68324285D01*
X72525142Y-68586190D01*
X72715619Y-68252857D02*
X72834666Y-68586190D01*
X72953714Y-68252857D02*
X72834666Y-68586190D01*
X72787047Y-68705238D01*
X72763238Y-68729047D01*
X72715619Y-68752857D01*
X73810857Y-68538571D02*
X73787047Y-68562380D01*
X73715619Y-68586190D01*
X73668000Y-68586190D01*
X73596571Y-68562380D01*
X73548952Y-68514761D01*
X73525142Y-68467142D01*
X73501333Y-68371904D01*
X73501333Y-68300476D01*
X73525142Y-68205238D01*
X73548952Y-68157619D01*
X73596571Y-68110000D01*
X73668000Y-68086190D01*
X73715619Y-68086190D01*
X73787047Y-68110000D01*
X73810857Y-68133809D01*
X74096571Y-68586190D02*
X74048952Y-68562380D01*
X74025142Y-68538571D01*
X74001333Y-68490952D01*
X74001333Y-68348095D01*
X74025142Y-68300476D01*
X74048952Y-68276666D01*
X74096571Y-68252857D01*
X74168000Y-68252857D01*
X74215619Y-68276666D01*
X74239428Y-68300476D01*
X74263238Y-68348095D01*
X74263238Y-68490952D01*
X74239428Y-68538571D01*
X74215619Y-68562380D01*
X74168000Y-68586190D01*
X74096571Y-68586190D01*
X74477523Y-68586190D02*
X74477523Y-68252857D01*
X74477523Y-68348095D02*
X74501333Y-68300476D01*
X74525142Y-68276666D01*
X74572761Y-68252857D01*
X74620380Y-68252857D01*
X74763238Y-68562380D02*
X74810857Y-68586190D01*
X74906095Y-68586190D01*
X74953714Y-68562380D01*
X74977523Y-68514761D01*
X74977523Y-68490952D01*
X74953714Y-68443333D01*
X74906095Y-68419523D01*
X74834666Y-68419523D01*
X74787047Y-68395714D01*
X74763238Y-68348095D01*
X74763238Y-68324285D01*
X74787047Y-68276666D01*
X74834666Y-68252857D01*
X74906095Y-68252857D01*
X74953714Y-68276666D01*
X75120380Y-68252857D02*
X75310857Y-68252857D01*
X75191809Y-68086190D02*
X75191809Y-68514761D01*
X75215619Y-68562380D01*
X75263238Y-68586190D01*
X75310857Y-68586190D01*
X75668000Y-68562380D02*
X75620380Y-68586190D01*
X75525142Y-68586190D01*
X75477523Y-68562380D01*
X75453714Y-68514761D01*
X75453714Y-68324285D01*
X75477523Y-68276666D01*
X75525142Y-68252857D01*
X75620380Y-68252857D01*
X75668000Y-68276666D01*
X75691809Y-68324285D01*
X75691809Y-68371904D01*
X75453714Y-68419523D01*
X75906095Y-68252857D02*
X75906095Y-68586190D01*
X75906095Y-68300476D02*
X75929904Y-68276666D01*
X75977523Y-68252857D01*
X76048952Y-68252857D01*
X76096571Y-68276666D01*
X76120380Y-68324285D01*
X76120380Y-68586190D01*
X76715619Y-68133809D02*
X76739428Y-68110000D01*
X76787047Y-68086190D01*
X76906095Y-68086190D01*
X76953714Y-68110000D01*
X76977523Y-68133809D01*
X77001333Y-68181428D01*
X77001333Y-68229047D01*
X76977523Y-68300476D01*
X76691809Y-68586190D01*
X77001333Y-68586190D01*
X77310857Y-68086190D02*
X77358476Y-68086190D01*
X77406095Y-68110000D01*
X77429904Y-68133809D01*
X77453714Y-68181428D01*
X77477523Y-68276666D01*
X77477523Y-68395714D01*
X77453714Y-68490952D01*
X77429904Y-68538571D01*
X77406095Y-68562380D01*
X77358476Y-68586190D01*
X77310857Y-68586190D01*
X77263238Y-68562380D01*
X77239428Y-68538571D01*
X77215619Y-68490952D01*
X77191809Y-68395714D01*
X77191809Y-68276666D01*
X77215619Y-68181428D01*
X77239428Y-68133809D01*
X77263238Y-68110000D01*
X77310857Y-68086190D01*
X77953714Y-68586190D02*
X77668000Y-68586190D01*
X77810857Y-68586190D02*
X77810857Y-68086190D01*
X77763238Y-68157619D01*
X77715619Y-68205238D01*
X77668000Y-68229047D01*
X78191809Y-68586190D02*
X78287047Y-68586190D01*
X78334666Y-68562380D01*
X78358476Y-68538571D01*
X78406095Y-68467142D01*
X78429904Y-68371904D01*
X78429904Y-68181428D01*
X78406095Y-68133809D01*
X78382285Y-68110000D01*
X78334666Y-68086190D01*
X78239428Y-68086190D01*
X78191809Y-68110000D01*
X78168000Y-68133809D01*
X78144190Y-68181428D01*
X78144190Y-68300476D01*
X78168000Y-68348095D01*
X78191809Y-68371904D01*
X78239428Y-68395714D01*
X78334666Y-68395714D01*
X78382285Y-68371904D01*
X78406095Y-68348095D01*
X78429904Y-68300476D01*
D11*
G04 #@! TO.C,1CByp1*
X90544720Y-79485748D02*
X90544720Y-80008252D01*
X89124720Y-79485748D02*
X89124720Y-80008252D01*
G04 #@! TO.C,1Cout1*
X84956720Y-85327748D02*
X84956720Y-85850252D01*
X83536720Y-85327748D02*
X83536720Y-85850252D01*
G04 #@! TO.C,1R1*
X87532468Y-85650000D02*
X88054972Y-85650000D01*
X87532468Y-87070000D02*
X88054972Y-87070000D01*
G04 #@! TO.C,1R2*
X88072972Y-83110000D02*
X87550468Y-83110000D01*
X88072972Y-84530000D02*
X87550468Y-84530000D01*
G04 #@! TO.C,2Cadj1*
X84956720Y-71136252D02*
X84956720Y-70613748D01*
X83536720Y-71136252D02*
X83536720Y-70613748D01*
G04 #@! TO.C,2CByp1*
X89124720Y-75167748D02*
X89124720Y-75690252D01*
X90544720Y-75167748D02*
X90544720Y-75690252D01*
G04 #@! TO.C,2Cout1*
X80996720Y-70595748D02*
X80996720Y-71118252D01*
X82416720Y-70595748D02*
X82416720Y-71118252D01*
G04 #@! TO.C,2R1*
X88063972Y-68632000D02*
X87541468Y-68632000D01*
X88063972Y-70052000D02*
X87541468Y-70052000D01*
G04 #@! TO.C,2R2*
X88054972Y-72592000D02*
X87532468Y-72592000D01*
X88054972Y-71172000D02*
X87532468Y-71172000D01*
G04 #@! TO.C,CFly1*
X80488720Y-77985252D02*
X80488720Y-77462748D01*
X81908720Y-77985252D02*
X81908720Y-77462748D01*
D12*
G04 #@! TO.C,J1*
X78650220Y-84574280D02*
X76800220Y-84574280D01*
X71600220Y-84574280D02*
X69650220Y-84574280D01*
X69650220Y-84574280D02*
X69650220Y-70074280D01*
X69650220Y-70074280D02*
X78650220Y-70074280D01*
X78650220Y-70074280D02*
X78650220Y-84574280D01*
D13*
X74350220Y-85774280D02*
G75*
G03X74350220Y-85774280I-200000J0D01*
G01*
D11*
G04 #@! TO.C,J2*
X96004720Y-68781000D02*
X98904720Y-68781000D01*
X96004720Y-75491000D02*
X98904720Y-75491000D01*
X100809720Y-70686000D02*
X100809720Y-73586000D01*
X94099720Y-70686000D02*
X94099720Y-73586000D01*
G04 #@! TO.C,J3*
X94099720Y-81862000D02*
X94099720Y-84762000D01*
X100809720Y-81862000D02*
X100809720Y-84762000D01*
X96004720Y-86667000D02*
X98904720Y-86667000D01*
X96004720Y-79957000D02*
X98904720Y-79957000D01*
D14*
G04 #@! TO.C,U1*
X87941720Y-75795000D02*
X87716720Y-75795000D01*
X87941720Y-79145000D02*
X87641720Y-79145000D01*
X83091720Y-79145000D02*
X83391720Y-79145000D01*
X83091720Y-75795000D02*
X83391720Y-75795000D01*
X87941720Y-75795000D02*
X87941720Y-79145000D01*
X83091720Y-75795000D02*
X83091720Y-79145000D01*
X87716720Y-75795000D02*
X87716720Y-74570000D01*
D11*
G04 #@! TO.C,1Cout2*
X92322720Y-85106252D02*
X92322720Y-84583748D01*
X90902720Y-85106252D02*
X90902720Y-84583748D01*
G04 #@! TO.C,2Cout2*
X90902720Y-71118252D02*
X90902720Y-70595748D01*
X92322720Y-71118252D02*
X92322720Y-70595748D01*
G04 #@! TO.C,Cin1*
X81228000Y-85082748D02*
X81228000Y-85605252D01*
X79808000Y-85082748D02*
X79808000Y-85605252D01*
G04 #@! TO.C,Cin2*
X83056252Y-81459000D02*
X82533748Y-81459000D01*
X83056252Y-82879000D02*
X82533748Y-82879000D01*
G04 #@! TO.C,2Creg1*
X81160252Y-74624000D02*
X80637748Y-74624000D01*
X81160252Y-73204000D02*
X80637748Y-73204000D01*
G04 #@! TO.C,1CByp1*
D15*
X91330910Y-80749904D02*
X91330910Y-81035619D01*
X91330910Y-80892761D02*
X90830910Y-80892761D01*
X90902339Y-80940380D01*
X90949958Y-80988000D01*
X90973767Y-81035619D01*
X91283291Y-80249904D02*
X91307100Y-80273714D01*
X91330910Y-80345142D01*
X91330910Y-80392761D01*
X91307100Y-80464190D01*
X91259481Y-80511809D01*
X91211862Y-80535619D01*
X91116624Y-80559428D01*
X91045196Y-80559428D01*
X90949958Y-80535619D01*
X90902339Y-80511809D01*
X90854720Y-80464190D01*
X90830910Y-80392761D01*
X90830910Y-80345142D01*
X90854720Y-80273714D01*
X90878529Y-80249904D01*
X91069005Y-79868952D02*
X91092815Y-79797523D01*
X91116624Y-79773714D01*
X91164243Y-79749904D01*
X91235672Y-79749904D01*
X91283291Y-79773714D01*
X91307100Y-79797523D01*
X91330910Y-79845142D01*
X91330910Y-80035619D01*
X90830910Y-80035619D01*
X90830910Y-79868952D01*
X90854720Y-79821333D01*
X90878529Y-79797523D01*
X90926148Y-79773714D01*
X90973767Y-79773714D01*
X91021386Y-79797523D01*
X91045196Y-79821333D01*
X91069005Y-79868952D01*
X91069005Y-80035619D01*
X90997577Y-79583238D02*
X91330910Y-79464190D01*
X90997577Y-79345142D02*
X91330910Y-79464190D01*
X91449958Y-79511809D01*
X91473767Y-79535619D01*
X91497577Y-79583238D01*
X90997577Y-79154666D02*
X91497577Y-79154666D01*
X91021386Y-79154666D02*
X90997577Y-79107047D01*
X90997577Y-79011809D01*
X91021386Y-78964190D01*
X91045196Y-78940380D01*
X91092815Y-78916571D01*
X91235672Y-78916571D01*
X91283291Y-78940380D01*
X91307100Y-78964190D01*
X91330910Y-79011809D01*
X91330910Y-79107047D01*
X91307100Y-79154666D01*
X91330910Y-78440380D02*
X91330910Y-78726095D01*
X91330910Y-78583238D02*
X90830910Y-78583238D01*
X90902339Y-78630857D01*
X90949958Y-78678476D01*
X90973767Y-78726095D01*
G04 #@! TO.C,1Cout1*
X83202910Y-86520476D02*
X83202910Y-86806190D01*
X83202910Y-86663333D02*
X82702910Y-86663333D01*
X82774339Y-86710952D01*
X82821958Y-86758571D01*
X82845767Y-86806190D01*
X83155291Y-86020476D02*
X83179100Y-86044285D01*
X83202910Y-86115714D01*
X83202910Y-86163333D01*
X83179100Y-86234761D01*
X83131481Y-86282380D01*
X83083862Y-86306190D01*
X82988624Y-86330000D01*
X82917196Y-86330000D01*
X82821958Y-86306190D01*
X82774339Y-86282380D01*
X82726720Y-86234761D01*
X82702910Y-86163333D01*
X82702910Y-86115714D01*
X82726720Y-86044285D01*
X82750529Y-86020476D01*
X83202910Y-85734761D02*
X83179100Y-85782380D01*
X83155291Y-85806190D01*
X83107672Y-85830000D01*
X82964815Y-85830000D01*
X82917196Y-85806190D01*
X82893386Y-85782380D01*
X82869577Y-85734761D01*
X82869577Y-85663333D01*
X82893386Y-85615714D01*
X82917196Y-85591904D01*
X82964815Y-85568095D01*
X83107672Y-85568095D01*
X83155291Y-85591904D01*
X83179100Y-85615714D01*
X83202910Y-85663333D01*
X83202910Y-85734761D01*
X82869577Y-85139523D02*
X83202910Y-85139523D01*
X82869577Y-85353809D02*
X83131481Y-85353809D01*
X83179100Y-85330000D01*
X83202910Y-85282380D01*
X83202910Y-85210952D01*
X83179100Y-85163333D01*
X83155291Y-85139523D01*
X82869577Y-84972857D02*
X82869577Y-84782380D01*
X82702910Y-84901428D02*
X83131481Y-84901428D01*
X83179100Y-84877619D01*
X83202910Y-84830000D01*
X83202910Y-84782380D01*
X83202910Y-84353809D02*
X83202910Y-84639523D01*
X83202910Y-84496666D02*
X82702910Y-84496666D01*
X82774339Y-84544285D01*
X82821958Y-84591904D01*
X82845767Y-84639523D01*
G04 #@! TO.C,1R1*
D10*
X90314910Y-86705238D02*
X90314910Y-86990952D01*
X90314910Y-86848095D02*
X89814910Y-86848095D01*
X89886339Y-86895714D01*
X89933958Y-86943333D01*
X89957767Y-86990952D01*
X90314910Y-86205238D02*
X90076815Y-86371904D01*
X90314910Y-86490952D02*
X89814910Y-86490952D01*
X89814910Y-86300476D01*
X89838720Y-86252857D01*
X89862529Y-86229047D01*
X89910148Y-86205238D01*
X89981577Y-86205238D01*
X90029196Y-86229047D01*
X90053005Y-86252857D01*
X90076815Y-86300476D01*
X90076815Y-86490952D01*
X90314910Y-85729047D02*
X90314910Y-86014761D01*
X90314910Y-85871904D02*
X89814910Y-85871904D01*
X89886339Y-85919523D01*
X89933958Y-85967142D01*
X89957767Y-86014761D01*
G04 #@! TO.C,1R2*
X90332910Y-84165238D02*
X90332910Y-84450952D01*
X90332910Y-84308095D02*
X89832910Y-84308095D01*
X89904339Y-84355714D01*
X89951958Y-84403333D01*
X89975767Y-84450952D01*
X90332910Y-83665238D02*
X90094815Y-83831904D01*
X90332910Y-83950952D02*
X89832910Y-83950952D01*
X89832910Y-83760476D01*
X89856720Y-83712857D01*
X89880529Y-83689047D01*
X89928148Y-83665238D01*
X89999577Y-83665238D01*
X90047196Y-83689047D01*
X90071005Y-83712857D01*
X90094815Y-83760476D01*
X90094815Y-83950952D01*
X89880529Y-83474761D02*
X89856720Y-83450952D01*
X89832910Y-83403333D01*
X89832910Y-83284285D01*
X89856720Y-83236666D01*
X89880529Y-83212857D01*
X89928148Y-83189047D01*
X89975767Y-83189047D01*
X90047196Y-83212857D01*
X90332910Y-83498571D01*
X90332910Y-83189047D01*
G04 #@! TO.C,2Cadj1*
D15*
X83044339Y-68371809D02*
X83068148Y-68348000D01*
X83115767Y-68324190D01*
X83234815Y-68324190D01*
X83282434Y-68348000D01*
X83306243Y-68371809D01*
X83330053Y-68419428D01*
X83330053Y-68467047D01*
X83306243Y-68538476D01*
X83020529Y-68824190D01*
X83330053Y-68824190D01*
X83830053Y-68776571D02*
X83806243Y-68800380D01*
X83734815Y-68824190D01*
X83687196Y-68824190D01*
X83615767Y-68800380D01*
X83568148Y-68752761D01*
X83544339Y-68705142D01*
X83520529Y-68609904D01*
X83520529Y-68538476D01*
X83544339Y-68443238D01*
X83568148Y-68395619D01*
X83615767Y-68348000D01*
X83687196Y-68324190D01*
X83734815Y-68324190D01*
X83806243Y-68348000D01*
X83830053Y-68371809D01*
X84258624Y-68824190D02*
X84258624Y-68562285D01*
X84234815Y-68514666D01*
X84187196Y-68490857D01*
X84091958Y-68490857D01*
X84044339Y-68514666D01*
X84258624Y-68800380D02*
X84211005Y-68824190D01*
X84091958Y-68824190D01*
X84044339Y-68800380D01*
X84020529Y-68752761D01*
X84020529Y-68705142D01*
X84044339Y-68657523D01*
X84091958Y-68633714D01*
X84211005Y-68633714D01*
X84258624Y-68609904D01*
X84711005Y-68824190D02*
X84711005Y-68324190D01*
X84711005Y-68800380D02*
X84663386Y-68824190D01*
X84568148Y-68824190D01*
X84520529Y-68800380D01*
X84496720Y-68776571D01*
X84472910Y-68728952D01*
X84472910Y-68586095D01*
X84496720Y-68538476D01*
X84520529Y-68514666D01*
X84568148Y-68490857D01*
X84663386Y-68490857D01*
X84711005Y-68514666D01*
X84949100Y-68490857D02*
X84949100Y-68919428D01*
X84925291Y-68967047D01*
X84877672Y-68990857D01*
X84853862Y-68990857D01*
X84949100Y-68324190D02*
X84925291Y-68348000D01*
X84949100Y-68371809D01*
X84972910Y-68348000D01*
X84949100Y-68324190D01*
X84949100Y-68371809D01*
X85449100Y-68824190D02*
X85163386Y-68824190D01*
X85306243Y-68824190D02*
X85306243Y-68324190D01*
X85258624Y-68395619D01*
X85211005Y-68443238D01*
X85163386Y-68467047D01*
G04 #@! TO.C,2CByp1*
X90959809Y-76481619D02*
X90936000Y-76457809D01*
X90912190Y-76410190D01*
X90912190Y-76291142D01*
X90936000Y-76243523D01*
X90959809Y-76219714D01*
X91007428Y-76195904D01*
X91055047Y-76195904D01*
X91126476Y-76219714D01*
X91412190Y-76505428D01*
X91412190Y-76195904D01*
X91364571Y-75695904D02*
X91388380Y-75719714D01*
X91412190Y-75791142D01*
X91412190Y-75838761D01*
X91388380Y-75910190D01*
X91340761Y-75957809D01*
X91293142Y-75981619D01*
X91197904Y-76005428D01*
X91126476Y-76005428D01*
X91031238Y-75981619D01*
X90983619Y-75957809D01*
X90936000Y-75910190D01*
X90912190Y-75838761D01*
X90912190Y-75791142D01*
X90936000Y-75719714D01*
X90959809Y-75695904D01*
X91150285Y-75314952D02*
X91174095Y-75243523D01*
X91197904Y-75219714D01*
X91245523Y-75195904D01*
X91316952Y-75195904D01*
X91364571Y-75219714D01*
X91388380Y-75243523D01*
X91412190Y-75291142D01*
X91412190Y-75481619D01*
X90912190Y-75481619D01*
X90912190Y-75314952D01*
X90936000Y-75267333D01*
X90959809Y-75243523D01*
X91007428Y-75219714D01*
X91055047Y-75219714D01*
X91102666Y-75243523D01*
X91126476Y-75267333D01*
X91150285Y-75314952D01*
X91150285Y-75481619D01*
X91078857Y-75029238D02*
X91412190Y-74910190D01*
X91078857Y-74791142D02*
X91412190Y-74910190D01*
X91531238Y-74957809D01*
X91555047Y-74981619D01*
X91578857Y-75029238D01*
X91078857Y-74600666D02*
X91578857Y-74600666D01*
X91102666Y-74600666D02*
X91078857Y-74553047D01*
X91078857Y-74457809D01*
X91102666Y-74410190D01*
X91126476Y-74386380D01*
X91174095Y-74362571D01*
X91316952Y-74362571D01*
X91364571Y-74386380D01*
X91388380Y-74410190D01*
X91412190Y-74457809D01*
X91412190Y-74553047D01*
X91388380Y-74600666D01*
X91412190Y-73886380D02*
X91412190Y-74172095D01*
X91412190Y-74029238D02*
X90912190Y-74029238D01*
X90983619Y-74076857D01*
X91031238Y-74124476D01*
X91055047Y-74172095D01*
G04 #@! TO.C,2Cout1*
X80226529Y-68335809D02*
X80250339Y-68312000D01*
X80297958Y-68288190D01*
X80417005Y-68288190D01*
X80464624Y-68312000D01*
X80488434Y-68335809D01*
X80512243Y-68383428D01*
X80512243Y-68431047D01*
X80488434Y-68502476D01*
X80202720Y-68788190D01*
X80512243Y-68788190D01*
X81012243Y-68740571D02*
X80988434Y-68764380D01*
X80917005Y-68788190D01*
X80869386Y-68788190D01*
X80797958Y-68764380D01*
X80750339Y-68716761D01*
X80726529Y-68669142D01*
X80702720Y-68573904D01*
X80702720Y-68502476D01*
X80726529Y-68407238D01*
X80750339Y-68359619D01*
X80797958Y-68312000D01*
X80869386Y-68288190D01*
X80917005Y-68288190D01*
X80988434Y-68312000D01*
X81012243Y-68335809D01*
X81297958Y-68788190D02*
X81250339Y-68764380D01*
X81226529Y-68740571D01*
X81202720Y-68692952D01*
X81202720Y-68550095D01*
X81226529Y-68502476D01*
X81250339Y-68478666D01*
X81297958Y-68454857D01*
X81369386Y-68454857D01*
X81417005Y-68478666D01*
X81440815Y-68502476D01*
X81464624Y-68550095D01*
X81464624Y-68692952D01*
X81440815Y-68740571D01*
X81417005Y-68764380D01*
X81369386Y-68788190D01*
X81297958Y-68788190D01*
X81893196Y-68454857D02*
X81893196Y-68788190D01*
X81678910Y-68454857D02*
X81678910Y-68716761D01*
X81702720Y-68764380D01*
X81750339Y-68788190D01*
X81821767Y-68788190D01*
X81869386Y-68764380D01*
X81893196Y-68740571D01*
X82059862Y-68454857D02*
X82250339Y-68454857D01*
X82131291Y-68288190D02*
X82131291Y-68716761D01*
X82155100Y-68764380D01*
X82202720Y-68788190D01*
X82250339Y-68788190D01*
X82678910Y-68788190D02*
X82393196Y-68788190D01*
X82536053Y-68788190D02*
X82536053Y-68288190D01*
X82488434Y-68359619D01*
X82440815Y-68407238D01*
X82393196Y-68431047D01*
G04 #@! TO.C,2R1*
X89853529Y-69972952D02*
X89829720Y-69949142D01*
X89805910Y-69901523D01*
X89805910Y-69782476D01*
X89829720Y-69734857D01*
X89853529Y-69711047D01*
X89901148Y-69687238D01*
X89948767Y-69687238D01*
X90020196Y-69711047D01*
X90305910Y-69996761D01*
X90305910Y-69687238D01*
X90305910Y-69187238D02*
X90067815Y-69353904D01*
X90305910Y-69472952D02*
X89805910Y-69472952D01*
X89805910Y-69282476D01*
X89829720Y-69234857D01*
X89853529Y-69211047D01*
X89901148Y-69187238D01*
X89972577Y-69187238D01*
X90020196Y-69211047D01*
X90044005Y-69234857D01*
X90067815Y-69282476D01*
X90067815Y-69472952D01*
X90305910Y-68711047D02*
X90305910Y-68996761D01*
X90305910Y-68853904D02*
X89805910Y-68853904D01*
X89877339Y-68901523D01*
X89924958Y-68949142D01*
X89948767Y-68996761D01*
G04 #@! TO.C,2R2*
X89862529Y-72512952D02*
X89838720Y-72489142D01*
X89814910Y-72441523D01*
X89814910Y-72322476D01*
X89838720Y-72274857D01*
X89862529Y-72251047D01*
X89910148Y-72227238D01*
X89957767Y-72227238D01*
X90029196Y-72251047D01*
X90314910Y-72536761D01*
X90314910Y-72227238D01*
X90314910Y-71727238D02*
X90076815Y-71893904D01*
X90314910Y-72012952D02*
X89814910Y-72012952D01*
X89814910Y-71822476D01*
X89838720Y-71774857D01*
X89862529Y-71751047D01*
X89910148Y-71727238D01*
X89981577Y-71727238D01*
X90029196Y-71751047D01*
X90053005Y-71774857D01*
X90076815Y-71822476D01*
X90076815Y-72012952D01*
X89862529Y-71536761D02*
X89838720Y-71512952D01*
X89814910Y-71465333D01*
X89814910Y-71346285D01*
X89838720Y-71298666D01*
X89862529Y-71274857D01*
X89910148Y-71251047D01*
X89957767Y-71251047D01*
X90029196Y-71274857D01*
X90314910Y-71560571D01*
X90314910Y-71251047D01*
G04 #@! TO.C,CFly1*
D10*
X79934571Y-78343047D02*
X79958380Y-78366857D01*
X79982190Y-78438285D01*
X79982190Y-78485904D01*
X79958380Y-78557333D01*
X79910761Y-78604952D01*
X79863142Y-78628761D01*
X79767904Y-78652571D01*
X79696476Y-78652571D01*
X79601238Y-78628761D01*
X79553619Y-78604952D01*
X79506000Y-78557333D01*
X79482190Y-78485904D01*
X79482190Y-78438285D01*
X79506000Y-78366857D01*
X79529809Y-78343047D01*
X79720285Y-77962095D02*
X79720285Y-78128761D01*
X79982190Y-78128761D02*
X79482190Y-78128761D01*
X79482190Y-77890666D01*
X79982190Y-77628761D02*
X79958380Y-77676380D01*
X79910761Y-77700190D01*
X79482190Y-77700190D01*
X79648857Y-77485904D02*
X79982190Y-77366857D01*
X79648857Y-77247809D02*
X79982190Y-77366857D01*
X80101238Y-77414476D01*
X80125047Y-77438285D01*
X80148857Y-77485904D01*
X79982190Y-76795428D02*
X79982190Y-77081142D01*
X79982190Y-76938285D02*
X79482190Y-76938285D01*
X79553619Y-76985904D01*
X79601238Y-77033523D01*
X79625047Y-77081142D01*
G04 #@! TO.C,J1*
D14*
X74750300Y-84234613D02*
X75464586Y-84234613D01*
X75607443Y-84282232D01*
X75702681Y-84377470D01*
X75750300Y-84520327D01*
X75750300Y-84615565D01*
X75750300Y-83234613D02*
X75750300Y-83806041D01*
X75750300Y-83520327D02*
X74750300Y-83520327D01*
X74893158Y-83615565D01*
X74988396Y-83710803D01*
X75036015Y-83806041D01*
G04 #@! TO.C,J2*
D15*
X101244910Y-72302666D02*
X101602053Y-72302666D01*
X101673481Y-72326476D01*
X101721100Y-72374095D01*
X101744910Y-72445523D01*
X101744910Y-72493142D01*
X101292529Y-72088380D02*
X101268720Y-72064571D01*
X101244910Y-72016952D01*
X101244910Y-71897904D01*
X101268720Y-71850285D01*
X101292529Y-71826476D01*
X101340148Y-71802666D01*
X101387767Y-71802666D01*
X101459196Y-71826476D01*
X101744910Y-72112190D01*
X101744910Y-71802666D01*
G04 #@! TO.C,J3*
X101244910Y-83732666D02*
X101602053Y-83732666D01*
X101673481Y-83756476D01*
X101721100Y-83804095D01*
X101744910Y-83875523D01*
X101744910Y-83923142D01*
X101244910Y-83542190D02*
X101244910Y-83232666D01*
X101435386Y-83399333D01*
X101435386Y-83327904D01*
X101459196Y-83280285D01*
X101483005Y-83256476D01*
X101530624Y-83232666D01*
X101649672Y-83232666D01*
X101697291Y-83256476D01*
X101721100Y-83280285D01*
X101744910Y-83327904D01*
X101744910Y-83470761D01*
X101721100Y-83518380D01*
X101697291Y-83542190D01*
G04 #@! TO.C,U1*
X82194910Y-80390952D02*
X82599672Y-80390952D01*
X82647291Y-80367142D01*
X82671100Y-80343333D01*
X82694910Y-80295714D01*
X82694910Y-80200476D01*
X82671100Y-80152857D01*
X82647291Y-80129047D01*
X82599672Y-80105238D01*
X82194910Y-80105238D01*
X82694910Y-79605238D02*
X82694910Y-79890952D01*
X82694910Y-79748095D02*
X82194910Y-79748095D01*
X82266339Y-79795714D01*
X82313958Y-79843333D01*
X82337767Y-79890952D01*
G04 #@! TO.C,1Cout2*
X90926243Y-87348190D02*
X90640529Y-87348190D01*
X90783386Y-87348190D02*
X90783386Y-86848190D01*
X90735767Y-86919619D01*
X90688148Y-86967238D01*
X90640529Y-86991047D01*
X91426243Y-87300571D02*
X91402434Y-87324380D01*
X91331005Y-87348190D01*
X91283386Y-87348190D01*
X91211958Y-87324380D01*
X91164339Y-87276761D01*
X91140529Y-87229142D01*
X91116720Y-87133904D01*
X91116720Y-87062476D01*
X91140529Y-86967238D01*
X91164339Y-86919619D01*
X91211958Y-86872000D01*
X91283386Y-86848190D01*
X91331005Y-86848190D01*
X91402434Y-86872000D01*
X91426243Y-86895809D01*
X91711958Y-87348190D02*
X91664339Y-87324380D01*
X91640529Y-87300571D01*
X91616720Y-87252952D01*
X91616720Y-87110095D01*
X91640529Y-87062476D01*
X91664339Y-87038666D01*
X91711958Y-87014857D01*
X91783386Y-87014857D01*
X91831005Y-87038666D01*
X91854815Y-87062476D01*
X91878624Y-87110095D01*
X91878624Y-87252952D01*
X91854815Y-87300571D01*
X91831005Y-87324380D01*
X91783386Y-87348190D01*
X91711958Y-87348190D01*
X92307196Y-87014857D02*
X92307196Y-87348190D01*
X92092910Y-87014857D02*
X92092910Y-87276761D01*
X92116720Y-87324380D01*
X92164339Y-87348190D01*
X92235767Y-87348190D01*
X92283386Y-87324380D01*
X92307196Y-87300571D01*
X92473862Y-87014857D02*
X92664339Y-87014857D01*
X92545291Y-86848190D02*
X92545291Y-87276761D01*
X92569100Y-87324380D01*
X92616720Y-87348190D01*
X92664339Y-87348190D01*
X92807196Y-86895809D02*
X92831005Y-86872000D01*
X92878624Y-86848190D01*
X92997672Y-86848190D01*
X93045291Y-86872000D01*
X93069100Y-86895809D01*
X93092910Y-86943428D01*
X93092910Y-86991047D01*
X93069100Y-87062476D01*
X92783386Y-87348190D01*
X93092910Y-87348190D01*
G04 #@! TO.C,2Cout2*
X90640529Y-68353809D02*
X90664339Y-68330000D01*
X90711958Y-68306190D01*
X90831005Y-68306190D01*
X90878624Y-68330000D01*
X90902434Y-68353809D01*
X90926243Y-68401428D01*
X90926243Y-68449047D01*
X90902434Y-68520476D01*
X90616720Y-68806190D01*
X90926243Y-68806190D01*
X91426243Y-68758571D02*
X91402434Y-68782380D01*
X91331005Y-68806190D01*
X91283386Y-68806190D01*
X91211958Y-68782380D01*
X91164339Y-68734761D01*
X91140529Y-68687142D01*
X91116720Y-68591904D01*
X91116720Y-68520476D01*
X91140529Y-68425238D01*
X91164339Y-68377619D01*
X91211958Y-68330000D01*
X91283386Y-68306190D01*
X91331005Y-68306190D01*
X91402434Y-68330000D01*
X91426243Y-68353809D01*
X91711958Y-68806190D02*
X91664339Y-68782380D01*
X91640529Y-68758571D01*
X91616720Y-68710952D01*
X91616720Y-68568095D01*
X91640529Y-68520476D01*
X91664339Y-68496666D01*
X91711958Y-68472857D01*
X91783386Y-68472857D01*
X91831005Y-68496666D01*
X91854815Y-68520476D01*
X91878624Y-68568095D01*
X91878624Y-68710952D01*
X91854815Y-68758571D01*
X91831005Y-68782380D01*
X91783386Y-68806190D01*
X91711958Y-68806190D01*
X92307196Y-68472857D02*
X92307196Y-68806190D01*
X92092910Y-68472857D02*
X92092910Y-68734761D01*
X92116720Y-68782380D01*
X92164339Y-68806190D01*
X92235767Y-68806190D01*
X92283386Y-68782380D01*
X92307196Y-68758571D01*
X92473862Y-68472857D02*
X92664339Y-68472857D01*
X92545291Y-68306190D02*
X92545291Y-68734761D01*
X92569100Y-68782380D01*
X92616720Y-68806190D01*
X92664339Y-68806190D01*
X92807196Y-68353809D02*
X92831005Y-68330000D01*
X92878624Y-68306190D01*
X92997672Y-68306190D01*
X93045291Y-68330000D01*
X93069100Y-68353809D01*
X93092910Y-68401428D01*
X93092910Y-68449047D01*
X93069100Y-68520476D01*
X92783386Y-68806190D01*
X93092910Y-68806190D01*
G04 #@! TO.C,Cin1*
X80119908Y-87797251D02*
X80096099Y-87821060D01*
X80024670Y-87844870D01*
X79977051Y-87844870D01*
X79905622Y-87821060D01*
X79858003Y-87773441D01*
X79834194Y-87725822D01*
X79810384Y-87630584D01*
X79810384Y-87559156D01*
X79834194Y-87463918D01*
X79858003Y-87416299D01*
X79905622Y-87368680D01*
X79977051Y-87344870D01*
X80024670Y-87344870D01*
X80096099Y-87368680D01*
X80119908Y-87392489D01*
X80334194Y-87844870D02*
X80334194Y-87511537D01*
X80334194Y-87344870D02*
X80310384Y-87368680D01*
X80334194Y-87392489D01*
X80358003Y-87368680D01*
X80334194Y-87344870D01*
X80334194Y-87392489D01*
X80572289Y-87511537D02*
X80572289Y-87844870D01*
X80572289Y-87559156D02*
X80596099Y-87535346D01*
X80643718Y-87511537D01*
X80715146Y-87511537D01*
X80762765Y-87535346D01*
X80786575Y-87582965D01*
X80786575Y-87844870D01*
X81286575Y-87844870D02*
X81000860Y-87844870D01*
X81143718Y-87844870D02*
X81143718Y-87344870D01*
X81096099Y-87416299D01*
X81048480Y-87463918D01*
X81000860Y-87487727D01*
G04 #@! TO.C,Cin2*
X80696571Y-82597571D02*
X80720380Y-82621380D01*
X80744190Y-82692809D01*
X80744190Y-82740428D01*
X80720380Y-82811857D01*
X80672761Y-82859476D01*
X80625142Y-82883285D01*
X80529904Y-82907095D01*
X80458476Y-82907095D01*
X80363238Y-82883285D01*
X80315619Y-82859476D01*
X80268000Y-82811857D01*
X80244190Y-82740428D01*
X80244190Y-82692809D01*
X80268000Y-82621380D01*
X80291809Y-82597571D01*
X80744190Y-82383285D02*
X80410857Y-82383285D01*
X80244190Y-82383285D02*
X80268000Y-82407095D01*
X80291809Y-82383285D01*
X80268000Y-82359476D01*
X80244190Y-82383285D01*
X80291809Y-82383285D01*
X80410857Y-82145190D02*
X80744190Y-82145190D01*
X80458476Y-82145190D02*
X80434666Y-82121380D01*
X80410857Y-82073761D01*
X80410857Y-82002333D01*
X80434666Y-81954714D01*
X80482285Y-81930904D01*
X80744190Y-81930904D01*
X80291809Y-81716619D02*
X80268000Y-81692809D01*
X80244190Y-81645190D01*
X80244190Y-81526142D01*
X80268000Y-81478523D01*
X80291809Y-81454714D01*
X80339428Y-81430904D01*
X80387047Y-81430904D01*
X80458476Y-81454714D01*
X80744190Y-81740428D01*
X80744190Y-81430904D01*
G04 #@! TO.C,2Creg1*
X79799809Y-74957809D02*
X79823619Y-74934000D01*
X79871238Y-74910190D01*
X79990285Y-74910190D01*
X80037904Y-74934000D01*
X80061714Y-74957809D01*
X80085523Y-75005428D01*
X80085523Y-75053047D01*
X80061714Y-75124476D01*
X79776000Y-75410190D01*
X80085523Y-75410190D01*
X80585523Y-75362571D02*
X80561714Y-75386380D01*
X80490285Y-75410190D01*
X80442666Y-75410190D01*
X80371238Y-75386380D01*
X80323619Y-75338761D01*
X80299809Y-75291142D01*
X80276000Y-75195904D01*
X80276000Y-75124476D01*
X80299809Y-75029238D01*
X80323619Y-74981619D01*
X80371238Y-74934000D01*
X80442666Y-74910190D01*
X80490285Y-74910190D01*
X80561714Y-74934000D01*
X80585523Y-74957809D01*
X80799809Y-75410190D02*
X80799809Y-75076857D01*
X80799809Y-75172095D02*
X80823619Y-75124476D01*
X80847428Y-75100666D01*
X80895047Y-75076857D01*
X80942666Y-75076857D01*
X81299809Y-75386380D02*
X81252190Y-75410190D01*
X81156952Y-75410190D01*
X81109333Y-75386380D01*
X81085523Y-75338761D01*
X81085523Y-75148285D01*
X81109333Y-75100666D01*
X81156952Y-75076857D01*
X81252190Y-75076857D01*
X81299809Y-75100666D01*
X81323619Y-75148285D01*
X81323619Y-75195904D01*
X81085523Y-75243523D01*
X81752190Y-75076857D02*
X81752190Y-75481619D01*
X81728380Y-75529238D01*
X81704571Y-75553047D01*
X81656952Y-75576857D01*
X81585523Y-75576857D01*
X81537904Y-75553047D01*
X81752190Y-75386380D02*
X81704571Y-75410190D01*
X81609333Y-75410190D01*
X81561714Y-75386380D01*
X81537904Y-75362571D01*
X81514095Y-75314952D01*
X81514095Y-75172095D01*
X81537904Y-75124476D01*
X81561714Y-75100666D01*
X81609333Y-75076857D01*
X81704571Y-75076857D01*
X81752190Y-75100666D01*
X82252190Y-75410190D02*
X81966476Y-75410190D01*
X82109333Y-75410190D02*
X82109333Y-74910190D01*
X82061714Y-74981619D01*
X82014095Y-75029238D01*
X81966476Y-75053047D01*
G04 #@! TD*
M02*
