M48
;DRILL file {KiCad (5.0.2)-1} date 8/18/2019 2:58:20 PM
;FORMAT={-:-/ absolute / inch / decimal}
FMAT,2
INCH,TZ
T1C0.0157
T2C0.0472
T3C0.0512
T4C0.0591
%
G90
G05
T1
X2.72Y-2.69
X2.72Y-2.8
X2.72Y-2.92
X2.72Y-3.04
X2.72Y-3.17
X2.72Y-3.28
X2.72Y-3.38
X2.74Y-3.47
X2.75Y-2.61
X2.7866Y-2.997
X2.84Y-3.47
X2.87Y-2.61
X2.9178Y-2.9698
X2.94Y-3.47
X2.99Y-2.61
X3.0248Y-2.9896
X3.06Y-3.47
X3.11Y-2.61
X3.11Y-3.39
X3.11Y-3.44
X3.13Y-3.17
X3.18Y-3.15
X3.22Y-2.61
X3.2225Y-3.4425
X3.225Y-3.39
X3.2668Y-2.7325
X3.2668Y-2.7695
X3.2673Y-2.673
X3.3268Y-2.6715
X3.3688Y-2.7445
X3.3688Y-2.78
X3.3688Y-3.382
X3.3688Y-3.418
X3.3868Y-3.188
X3.3948Y-3.35
X3.4158Y-2.7805
X3.4488Y-3.35
X3.4603Y-2.78
X3.4833Y-3.0555
X3.4838Y-3.1025
X3.485Y-2.995
X3.55Y-2.61
X3.5658Y-2.878
X3.5843Y-3.227
X3.6023Y-3.0365
X3.6108Y-2.879
X3.6133Y-3.0855
X3.6663Y-2.87
X3.67Y-2.61
X3.67Y-3.47
X3.78Y-3.47
X3.8Y-2.61
X3.89Y-3.47
X3.91Y-2.61
X3.99Y-2.67
X3.99Y-2.76
X3.99Y-2.89
X3.99Y-2.98
X3.99Y-3.07
X3.99Y-3.15
X3.99Y-3.24
X3.99Y-3.35
X3.99Y-3.45
T3
X3.7384Y-2.7416
X3.7384Y-2.9384
X3.9352Y-2.7416
X3.9352Y-2.9384
X3.7384Y-3.1816
X3.7384Y-3.3784
X3.9352Y-3.1816
X3.9352Y-3.3784
T4
X3.8368Y-2.84
X3.8368Y-3.28
T2
X2.9606Y-3.062G85X2.878Y-3.062
G05
X2.9685Y-3.2982G85X2.8701Y-3.2982
G05
T0
M30
