G04 #@! TF.GenerationSoftware,KiCad,Pcbnew,(5.0.2)-1*
G04 #@! TF.CreationDate,2019-08-18T14:58:17-04:00*
G04 #@! TF.ProjectId,LTC3260-DualRail,4c544333-3236-4302-9d44-75616c526169,rev?*
G04 #@! TF.SameCoordinates,Original*
G04 #@! TF.FileFunction,Soldermask,Bot*
G04 #@! TF.FilePolarity,Negative*
%FSLAX46Y46*%
G04 Gerber Fmt 4.6, Leading zero omitted, Abs format (unit mm)*
G04 Created by KiCad (PCBNEW (5.0.2)-1) date 8/18/2019 2:58:17 PM*
%MOMM*%
%LPD*%
G01*
G04 APERTURE LIST*
%ADD10C,0.100000*%
G04 APERTURE END LIST*
D10*
G36*
X95232116Y-84897546D02*
X95405186Y-84969234D01*
X95560950Y-85073312D01*
X95693408Y-85205770D01*
X95797486Y-85361534D01*
X95869174Y-85534604D01*
X95905720Y-85718333D01*
X95905720Y-85905667D01*
X95869174Y-86089396D01*
X95797486Y-86262466D01*
X95693408Y-86418230D01*
X95560950Y-86550688D01*
X95405186Y-86654766D01*
X95232116Y-86726454D01*
X95048387Y-86763000D01*
X94861053Y-86763000D01*
X94677324Y-86726454D01*
X94504254Y-86654766D01*
X94348490Y-86550688D01*
X94216032Y-86418230D01*
X94111954Y-86262466D01*
X94040266Y-86089396D01*
X94003720Y-85905667D01*
X94003720Y-85718333D01*
X94040266Y-85534604D01*
X94111954Y-85361534D01*
X94216032Y-85205770D01*
X94348490Y-85073312D01*
X94504254Y-84969234D01*
X94677324Y-84897546D01*
X94861053Y-84861000D01*
X95048387Y-84861000D01*
X95232116Y-84897546D01*
X95232116Y-84897546D01*
G37*
G36*
X100232116Y-84897546D02*
X100405186Y-84969234D01*
X100560950Y-85073312D01*
X100693408Y-85205770D01*
X100797486Y-85361534D01*
X100869174Y-85534604D01*
X100905720Y-85718333D01*
X100905720Y-85905667D01*
X100869174Y-86089396D01*
X100797486Y-86262466D01*
X100693408Y-86418230D01*
X100560950Y-86550688D01*
X100405186Y-86654766D01*
X100232116Y-86726454D01*
X100048387Y-86763000D01*
X99861053Y-86763000D01*
X99677324Y-86726454D01*
X99504254Y-86654766D01*
X99348490Y-86550688D01*
X99216032Y-86418230D01*
X99111954Y-86262466D01*
X99040266Y-86089396D01*
X99003720Y-85905667D01*
X99003720Y-85718333D01*
X99040266Y-85534604D01*
X99111954Y-85361534D01*
X99216032Y-85205770D01*
X99348490Y-85073312D01*
X99504254Y-84969234D01*
X99677324Y-84897546D01*
X99861053Y-84861000D01*
X100048387Y-84861000D01*
X100232116Y-84897546D01*
X100232116Y-84897546D01*
G37*
G36*
X75511909Y-82477986D02*
X75655260Y-82492105D01*
X75900500Y-82566498D01*
X75900502Y-82566499D01*
X76126516Y-82687306D01*
X76324617Y-82849883D01*
X76487194Y-83047984D01*
X76487195Y-83047986D01*
X76608002Y-83274000D01*
X76682395Y-83519240D01*
X76707514Y-83774280D01*
X76682395Y-84029320D01*
X76610738Y-84265539D01*
X76608001Y-84274562D01*
X76487194Y-84500576D01*
X76324617Y-84698677D01*
X76126516Y-84861254D01*
X75924498Y-84969235D01*
X75900500Y-84982062D01*
X75655260Y-85056455D01*
X75511909Y-85070574D01*
X75464126Y-85075280D01*
X72836314Y-85075280D01*
X72788531Y-85070574D01*
X72645180Y-85056455D01*
X72399940Y-84982062D01*
X72375942Y-84969235D01*
X72173924Y-84861254D01*
X71975823Y-84698677D01*
X71813246Y-84500576D01*
X71692439Y-84274562D01*
X71689702Y-84265539D01*
X71618045Y-84029320D01*
X71592926Y-83774280D01*
X71618045Y-83519240D01*
X71692438Y-83274000D01*
X71813245Y-83047986D01*
X71813246Y-83047984D01*
X71975823Y-82849883D01*
X72173924Y-82687306D01*
X72399938Y-82566499D01*
X72399940Y-82566498D01*
X72645180Y-82492105D01*
X72788531Y-82477986D01*
X72836314Y-82473280D01*
X75464126Y-82473280D01*
X75511909Y-82477986D01*
X75511909Y-82477986D01*
G37*
G36*
X97612667Y-82246337D02*
X97768578Y-82277350D01*
X97964397Y-82358461D01*
X97964398Y-82358462D01*
X98140633Y-82476218D01*
X98290502Y-82626087D01*
X98290504Y-82626090D01*
X98408259Y-82802323D01*
X98489370Y-82998142D01*
X98530720Y-83206023D01*
X98530720Y-83417977D01*
X98489370Y-83625858D01*
X98408259Y-83821677D01*
X98408258Y-83821678D01*
X98290502Y-83997913D01*
X98140633Y-84147782D01*
X98140630Y-84147784D01*
X97964397Y-84265539D01*
X97768578Y-84346650D01*
X97612667Y-84377663D01*
X97560698Y-84388000D01*
X97348742Y-84388000D01*
X97296773Y-84377663D01*
X97140862Y-84346650D01*
X96945043Y-84265539D01*
X96768810Y-84147784D01*
X96768807Y-84147782D01*
X96618938Y-83997913D01*
X96501182Y-83821678D01*
X96501181Y-83821677D01*
X96420070Y-83625858D01*
X96378720Y-83417977D01*
X96378720Y-83206023D01*
X96420070Y-82998142D01*
X96501181Y-82802323D01*
X96618936Y-82626090D01*
X96618938Y-82626087D01*
X96768807Y-82476218D01*
X96945042Y-82358462D01*
X96945043Y-82358461D01*
X97140862Y-82277350D01*
X97296773Y-82246337D01*
X97348742Y-82236000D01*
X97560698Y-82236000D01*
X97612667Y-82246337D01*
X97612667Y-82246337D01*
G37*
G36*
X100232116Y-79897546D02*
X100405186Y-79969234D01*
X100560950Y-80073312D01*
X100693408Y-80205770D01*
X100797486Y-80361534D01*
X100869174Y-80534604D01*
X100905720Y-80718333D01*
X100905720Y-80905667D01*
X100869174Y-81089396D01*
X100797486Y-81262466D01*
X100693408Y-81418230D01*
X100560950Y-81550688D01*
X100405186Y-81654766D01*
X100232116Y-81726454D01*
X100048387Y-81763000D01*
X99861053Y-81763000D01*
X99677324Y-81726454D01*
X99504254Y-81654766D01*
X99348490Y-81550688D01*
X99216032Y-81418230D01*
X99111954Y-81262466D01*
X99040266Y-81089396D01*
X99003720Y-80905667D01*
X99003720Y-80718333D01*
X99040266Y-80534604D01*
X99111954Y-80361534D01*
X99216032Y-80205770D01*
X99348490Y-80073312D01*
X99504254Y-79969234D01*
X99677324Y-79897546D01*
X99861053Y-79861000D01*
X100048387Y-79861000D01*
X100232116Y-79897546D01*
X100232116Y-79897546D01*
G37*
G36*
X95232116Y-79897546D02*
X95405186Y-79969234D01*
X95560950Y-80073312D01*
X95693408Y-80205770D01*
X95797486Y-80361534D01*
X95869174Y-80534604D01*
X95905720Y-80718333D01*
X95905720Y-80905667D01*
X95869174Y-81089396D01*
X95797486Y-81262466D01*
X95693408Y-81418230D01*
X95560950Y-81550688D01*
X95405186Y-81654766D01*
X95232116Y-81726454D01*
X95048387Y-81763000D01*
X94861053Y-81763000D01*
X94677324Y-81726454D01*
X94504254Y-81654766D01*
X94348490Y-81550688D01*
X94216032Y-81418230D01*
X94111954Y-81262466D01*
X94040266Y-81089396D01*
X94003720Y-80905667D01*
X94003720Y-80718333D01*
X94040266Y-80534604D01*
X94111954Y-80361534D01*
X94216032Y-80205770D01*
X94348490Y-80073312D01*
X94504254Y-79969234D01*
X94677324Y-79897546D01*
X94861053Y-79861000D01*
X95048387Y-79861000D01*
X95232116Y-79897546D01*
X95232116Y-79897546D01*
G37*
G36*
X75505756Y-76615296D02*
X75727433Y-76682541D01*
X75931732Y-76791741D01*
X76110801Y-76938699D01*
X76257759Y-77117768D01*
X76366959Y-77322067D01*
X76434204Y-77543744D01*
X76456910Y-77774280D01*
X76434204Y-78004816D01*
X76366959Y-78226493D01*
X76257759Y-78430792D01*
X76110801Y-78609861D01*
X75931732Y-78756819D01*
X75727433Y-78866019D01*
X75505756Y-78933264D01*
X75332991Y-78950280D01*
X72967449Y-78950280D01*
X72794684Y-78933264D01*
X72573007Y-78866019D01*
X72368708Y-78756819D01*
X72189639Y-78609861D01*
X72042681Y-78430792D01*
X71933481Y-78226493D01*
X71866236Y-78004816D01*
X71843530Y-77774280D01*
X71866236Y-77543744D01*
X71933481Y-77322067D01*
X72042681Y-77117768D01*
X72189639Y-76938699D01*
X72368708Y-76791741D01*
X72573007Y-76682541D01*
X72794684Y-76615296D01*
X72967449Y-76598280D01*
X75332991Y-76598280D01*
X75505756Y-76615296D01*
X75505756Y-76615296D01*
G37*
G36*
X95232116Y-73721546D02*
X95405186Y-73793234D01*
X95560950Y-73897312D01*
X95693408Y-74029770D01*
X95797486Y-74185534D01*
X95869174Y-74358604D01*
X95905720Y-74542333D01*
X95905720Y-74729667D01*
X95869174Y-74913396D01*
X95797486Y-75086466D01*
X95693408Y-75242230D01*
X95560950Y-75374688D01*
X95405186Y-75478766D01*
X95232116Y-75550454D01*
X95048387Y-75587000D01*
X94861053Y-75587000D01*
X94677324Y-75550454D01*
X94504254Y-75478766D01*
X94348490Y-75374688D01*
X94216032Y-75242230D01*
X94111954Y-75086466D01*
X94040266Y-74913396D01*
X94003720Y-74729667D01*
X94003720Y-74542333D01*
X94040266Y-74358604D01*
X94111954Y-74185534D01*
X94216032Y-74029770D01*
X94348490Y-73897312D01*
X94504254Y-73793234D01*
X94677324Y-73721546D01*
X94861053Y-73685000D01*
X95048387Y-73685000D01*
X95232116Y-73721546D01*
X95232116Y-73721546D01*
G37*
G36*
X100232116Y-73721546D02*
X100405186Y-73793234D01*
X100560950Y-73897312D01*
X100693408Y-74029770D01*
X100797486Y-74185534D01*
X100869174Y-74358604D01*
X100905720Y-74542333D01*
X100905720Y-74729667D01*
X100869174Y-74913396D01*
X100797486Y-75086466D01*
X100693408Y-75242230D01*
X100560950Y-75374688D01*
X100405186Y-75478766D01*
X100232116Y-75550454D01*
X100048387Y-75587000D01*
X99861053Y-75587000D01*
X99677324Y-75550454D01*
X99504254Y-75478766D01*
X99348490Y-75374688D01*
X99216032Y-75242230D01*
X99111954Y-75086466D01*
X99040266Y-74913396D01*
X99003720Y-74729667D01*
X99003720Y-74542333D01*
X99040266Y-74358604D01*
X99111954Y-74185534D01*
X99216032Y-74029770D01*
X99348490Y-73897312D01*
X99504254Y-73793234D01*
X99677324Y-73721546D01*
X99861053Y-73685000D01*
X100048387Y-73685000D01*
X100232116Y-73721546D01*
X100232116Y-73721546D01*
G37*
G36*
X97612667Y-71070337D02*
X97768578Y-71101350D01*
X97964397Y-71182461D01*
X97964398Y-71182462D01*
X98140633Y-71300218D01*
X98290502Y-71450087D01*
X98290504Y-71450090D01*
X98408259Y-71626323D01*
X98489370Y-71822142D01*
X98530720Y-72030023D01*
X98530720Y-72241977D01*
X98489370Y-72449858D01*
X98408259Y-72645677D01*
X98408258Y-72645678D01*
X98290502Y-72821913D01*
X98140633Y-72971782D01*
X98140630Y-72971784D01*
X97964397Y-73089539D01*
X97768578Y-73170650D01*
X97612667Y-73201663D01*
X97560698Y-73212000D01*
X97348742Y-73212000D01*
X97296773Y-73201663D01*
X97140862Y-73170650D01*
X96945043Y-73089539D01*
X96768810Y-72971784D01*
X96768807Y-72971782D01*
X96618938Y-72821913D01*
X96501182Y-72645678D01*
X96501181Y-72645677D01*
X96420070Y-72449858D01*
X96378720Y-72241977D01*
X96378720Y-72030023D01*
X96420070Y-71822142D01*
X96501181Y-71626323D01*
X96618936Y-71450090D01*
X96618938Y-71450087D01*
X96768807Y-71300218D01*
X96945042Y-71182462D01*
X96945043Y-71182461D01*
X97140862Y-71101350D01*
X97296773Y-71070337D01*
X97348742Y-71060000D01*
X97560698Y-71060000D01*
X97612667Y-71070337D01*
X97612667Y-71070337D01*
G37*
G36*
X95232116Y-68721546D02*
X95405186Y-68793234D01*
X95560950Y-68897312D01*
X95693408Y-69029770D01*
X95797486Y-69185534D01*
X95869174Y-69358604D01*
X95905720Y-69542333D01*
X95905720Y-69729667D01*
X95869174Y-69913396D01*
X95797486Y-70086466D01*
X95693408Y-70242230D01*
X95560950Y-70374688D01*
X95405186Y-70478766D01*
X95232116Y-70550454D01*
X95048387Y-70587000D01*
X94861053Y-70587000D01*
X94677324Y-70550454D01*
X94504254Y-70478766D01*
X94348490Y-70374688D01*
X94216032Y-70242230D01*
X94111954Y-70086466D01*
X94040266Y-69913396D01*
X94003720Y-69729667D01*
X94003720Y-69542333D01*
X94040266Y-69358604D01*
X94111954Y-69185534D01*
X94216032Y-69029770D01*
X94348490Y-68897312D01*
X94504254Y-68793234D01*
X94677324Y-68721546D01*
X94861053Y-68685000D01*
X95048387Y-68685000D01*
X95232116Y-68721546D01*
X95232116Y-68721546D01*
G37*
G36*
X100232116Y-68721546D02*
X100405186Y-68793234D01*
X100560950Y-68897312D01*
X100693408Y-69029770D01*
X100797486Y-69185534D01*
X100869174Y-69358604D01*
X100905720Y-69542333D01*
X100905720Y-69729667D01*
X100869174Y-69913396D01*
X100797486Y-70086466D01*
X100693408Y-70242230D01*
X100560950Y-70374688D01*
X100405186Y-70478766D01*
X100232116Y-70550454D01*
X100048387Y-70587000D01*
X99861053Y-70587000D01*
X99677324Y-70550454D01*
X99504254Y-70478766D01*
X99348490Y-70374688D01*
X99216032Y-70242230D01*
X99111954Y-70086466D01*
X99040266Y-69913396D01*
X99003720Y-69729667D01*
X99003720Y-69542333D01*
X99040266Y-69358604D01*
X99111954Y-69185534D01*
X99216032Y-69029770D01*
X99348490Y-68897312D01*
X99504254Y-68793234D01*
X99677324Y-68721546D01*
X99861053Y-68685000D01*
X100048387Y-68685000D01*
X100232116Y-68721546D01*
X100232116Y-68721546D01*
G37*
M02*
