G04 #@! TF.GenerationSoftware,KiCad,Pcbnew,(5.0.2)-1*
G04 #@! TF.CreationDate,2019-08-18T14:58:17-04:00*
G04 #@! TF.ProjectId,LTC3260-DualRail,4c544333-3236-4302-9d44-75616c526169,rev?*
G04 #@! TF.SameCoordinates,Original*
G04 #@! TF.FileFunction,Soldermask,Top*
G04 #@! TF.FilePolarity,Negative*
%FSLAX46Y46*%
G04 Gerber Fmt 4.6, Leading zero omitted, Abs format (unit mm)*
G04 Created by KiCad (PCBNEW (5.0.2)-1) date 8/18/2019 2:58:17 PM*
%MOMM*%
%LPD*%
G01*
G04 APERTURE LIST*
%ADD10C,0.100000*%
G04 APERTURE END LIST*
D10*
G36*
X84835397Y-85992465D02*
X84873084Y-86003898D01*
X84907823Y-86022466D01*
X84938268Y-86047452D01*
X84963254Y-86077897D01*
X84981822Y-86112636D01*
X84993255Y-86150323D01*
X84997720Y-86195661D01*
X84997720Y-87032339D01*
X84993255Y-87077677D01*
X84981822Y-87115364D01*
X84963254Y-87150103D01*
X84938268Y-87180548D01*
X84907823Y-87205534D01*
X84873084Y-87224102D01*
X84835397Y-87235535D01*
X84790059Y-87240000D01*
X83703381Y-87240000D01*
X83658043Y-87235535D01*
X83620356Y-87224102D01*
X83585617Y-87205534D01*
X83555172Y-87180548D01*
X83530186Y-87150103D01*
X83511618Y-87115364D01*
X83500185Y-87077677D01*
X83495720Y-87032339D01*
X83495720Y-86195661D01*
X83500185Y-86150323D01*
X83511618Y-86112636D01*
X83530186Y-86077897D01*
X83555172Y-86047452D01*
X83585617Y-86022466D01*
X83620356Y-86003898D01*
X83658043Y-85992465D01*
X83703381Y-85988000D01*
X84790059Y-85988000D01*
X84835397Y-85992465D01*
X84835397Y-85992465D01*
G37*
G36*
X89282397Y-85613465D02*
X89320084Y-85624898D01*
X89354823Y-85643466D01*
X89385268Y-85668452D01*
X89410254Y-85698897D01*
X89428822Y-85733636D01*
X89440255Y-85771323D01*
X89444720Y-85816661D01*
X89444720Y-86903339D01*
X89440255Y-86948677D01*
X89428822Y-86986364D01*
X89410254Y-87021103D01*
X89385268Y-87051548D01*
X89354823Y-87076534D01*
X89320084Y-87095102D01*
X89282397Y-87106535D01*
X89237059Y-87111000D01*
X88400381Y-87111000D01*
X88355043Y-87106535D01*
X88317356Y-87095102D01*
X88282617Y-87076534D01*
X88252172Y-87051548D01*
X88227186Y-87021103D01*
X88208618Y-86986364D01*
X88197185Y-86948677D01*
X88192720Y-86903339D01*
X88192720Y-85816661D01*
X88197185Y-85771323D01*
X88208618Y-85733636D01*
X88227186Y-85698897D01*
X88252172Y-85668452D01*
X88282617Y-85643466D01*
X88317356Y-85624898D01*
X88355043Y-85613465D01*
X88400381Y-85609000D01*
X89237059Y-85609000D01*
X89282397Y-85613465D01*
X89282397Y-85613465D01*
G37*
G36*
X87232397Y-85613465D02*
X87270084Y-85624898D01*
X87304823Y-85643466D01*
X87335268Y-85668452D01*
X87360254Y-85698897D01*
X87378822Y-85733636D01*
X87390255Y-85771323D01*
X87394720Y-85816661D01*
X87394720Y-86903339D01*
X87390255Y-86948677D01*
X87378822Y-86986364D01*
X87360254Y-87021103D01*
X87335268Y-87051548D01*
X87304823Y-87076534D01*
X87270084Y-87095102D01*
X87232397Y-87106535D01*
X87187059Y-87111000D01*
X86350381Y-87111000D01*
X86305043Y-87106535D01*
X86267356Y-87095102D01*
X86232617Y-87076534D01*
X86202172Y-87051548D01*
X86177186Y-87021103D01*
X86158618Y-86986364D01*
X86147185Y-86948677D01*
X86142720Y-86903339D01*
X86142720Y-85816661D01*
X86147185Y-85771323D01*
X86158618Y-85733636D01*
X86177186Y-85698897D01*
X86202172Y-85668452D01*
X86232617Y-85643466D01*
X86267356Y-85624898D01*
X86305043Y-85613465D01*
X86350381Y-85609000D01*
X87187059Y-85609000D01*
X87232397Y-85613465D01*
X87232397Y-85613465D01*
G37*
G36*
X81106677Y-85747465D02*
X81144364Y-85758898D01*
X81179103Y-85777466D01*
X81209548Y-85802452D01*
X81234534Y-85832897D01*
X81253102Y-85867636D01*
X81264535Y-85905323D01*
X81269000Y-85950661D01*
X81269000Y-86787339D01*
X81264535Y-86832677D01*
X81253102Y-86870364D01*
X81234534Y-86905103D01*
X81209548Y-86935548D01*
X81179103Y-86960534D01*
X81144364Y-86979102D01*
X81106677Y-86990535D01*
X81061339Y-86995000D01*
X79974661Y-86995000D01*
X79929323Y-86990535D01*
X79891636Y-86979102D01*
X79856897Y-86960534D01*
X79826452Y-86935548D01*
X79801466Y-86905103D01*
X79782898Y-86870364D01*
X79771465Y-86832677D01*
X79767000Y-86787339D01*
X79767000Y-85950661D01*
X79771465Y-85905323D01*
X79782898Y-85867636D01*
X79801466Y-85832897D01*
X79826452Y-85802452D01*
X79856897Y-85777466D01*
X79891636Y-85758898D01*
X79929323Y-85747465D01*
X79974661Y-85743000D01*
X81061339Y-85743000D01*
X81106677Y-85747465D01*
X81106677Y-85747465D01*
G37*
G36*
X100232116Y-84897546D02*
X100405186Y-84969234D01*
X100560950Y-85073312D01*
X100693408Y-85205770D01*
X100797486Y-85361534D01*
X100869174Y-85534604D01*
X100905720Y-85718333D01*
X100905720Y-85905667D01*
X100869174Y-86089396D01*
X100797486Y-86262466D01*
X100693408Y-86418230D01*
X100560950Y-86550688D01*
X100405186Y-86654766D01*
X100232116Y-86726454D01*
X100048387Y-86763000D01*
X99861053Y-86763000D01*
X99677324Y-86726454D01*
X99504254Y-86654766D01*
X99348490Y-86550688D01*
X99216032Y-86418230D01*
X99111954Y-86262466D01*
X99040266Y-86089396D01*
X99003720Y-85905667D01*
X99003720Y-85718333D01*
X99040266Y-85534604D01*
X99111954Y-85361534D01*
X99216032Y-85205770D01*
X99348490Y-85073312D01*
X99504254Y-84969234D01*
X99677324Y-84897546D01*
X99861053Y-84861000D01*
X100048387Y-84861000D01*
X100232116Y-84897546D01*
X100232116Y-84897546D01*
G37*
G36*
X95232116Y-84897546D02*
X95405186Y-84969234D01*
X95560950Y-85073312D01*
X95693408Y-85205770D01*
X95797486Y-85361534D01*
X95869174Y-85534604D01*
X95905720Y-85718333D01*
X95905720Y-85905667D01*
X95869174Y-86089396D01*
X95797486Y-86262466D01*
X95693408Y-86418230D01*
X95560950Y-86550688D01*
X95405186Y-86654766D01*
X95232116Y-86726454D01*
X95048387Y-86763000D01*
X94861053Y-86763000D01*
X94677324Y-86726454D01*
X94504254Y-86654766D01*
X94348490Y-86550688D01*
X94216032Y-86418230D01*
X94111954Y-86262466D01*
X94040266Y-86089396D01*
X94003720Y-85905667D01*
X94003720Y-85718333D01*
X94040266Y-85534604D01*
X94111954Y-85361534D01*
X94216032Y-85205770D01*
X94348490Y-85073312D01*
X94504254Y-84969234D01*
X94677324Y-84897546D01*
X94861053Y-84861000D01*
X95048387Y-84861000D01*
X95232116Y-84897546D01*
X95232116Y-84897546D01*
G37*
G36*
X92201397Y-85248465D02*
X92239084Y-85259898D01*
X92273823Y-85278466D01*
X92304268Y-85303452D01*
X92329254Y-85333897D01*
X92347822Y-85368636D01*
X92359255Y-85406323D01*
X92363720Y-85451661D01*
X92363720Y-86288339D01*
X92359255Y-86333677D01*
X92347822Y-86371364D01*
X92329254Y-86406103D01*
X92304268Y-86436548D01*
X92273823Y-86461534D01*
X92239084Y-86480102D01*
X92201397Y-86491535D01*
X92156059Y-86496000D01*
X91069381Y-86496000D01*
X91024043Y-86491535D01*
X90986356Y-86480102D01*
X90951617Y-86461534D01*
X90921172Y-86436548D01*
X90896186Y-86406103D01*
X90877618Y-86371364D01*
X90866185Y-86333677D01*
X90861720Y-86288339D01*
X90861720Y-85451661D01*
X90866185Y-85406323D01*
X90877618Y-85368636D01*
X90896186Y-85333897D01*
X90921172Y-85303452D01*
X90951617Y-85278466D01*
X90986356Y-85259898D01*
X91024043Y-85248465D01*
X91069381Y-85244000D01*
X92156059Y-85244000D01*
X92201397Y-85248465D01*
X92201397Y-85248465D01*
G37*
G36*
X84835397Y-83942465D02*
X84873084Y-83953898D01*
X84907823Y-83972466D01*
X84938268Y-83997452D01*
X84963254Y-84027897D01*
X84981822Y-84062636D01*
X84993255Y-84100323D01*
X84997720Y-84145661D01*
X84997720Y-84982339D01*
X84993255Y-85027677D01*
X84981822Y-85065364D01*
X84963254Y-85100103D01*
X84938268Y-85130548D01*
X84907823Y-85155534D01*
X84873084Y-85174102D01*
X84835397Y-85185535D01*
X84790059Y-85190000D01*
X83703381Y-85190000D01*
X83658043Y-85185535D01*
X83620356Y-85174102D01*
X83585617Y-85155534D01*
X83555172Y-85130548D01*
X83530186Y-85100103D01*
X83511618Y-85065364D01*
X83500185Y-85027677D01*
X83495720Y-84982339D01*
X83495720Y-84145661D01*
X83500185Y-84100323D01*
X83511618Y-84062636D01*
X83530186Y-84027897D01*
X83555172Y-83997452D01*
X83585617Y-83972466D01*
X83620356Y-83953898D01*
X83658043Y-83942465D01*
X83703381Y-83938000D01*
X84790059Y-83938000D01*
X84835397Y-83942465D01*
X84835397Y-83942465D01*
G37*
G36*
X75511909Y-82477986D02*
X75655260Y-82492105D01*
X75900500Y-82566498D01*
X75900502Y-82566499D01*
X76126516Y-82687306D01*
X76324617Y-82849883D01*
X76487194Y-83047984D01*
X76487195Y-83047986D01*
X76608002Y-83274000D01*
X76682395Y-83519240D01*
X76707514Y-83774280D01*
X76682395Y-84029320D01*
X76610738Y-84265539D01*
X76608001Y-84274562D01*
X76487194Y-84500576D01*
X76324617Y-84698677D01*
X76126516Y-84861254D01*
X75924498Y-84969235D01*
X75900500Y-84982062D01*
X75655260Y-85056455D01*
X75511909Y-85070574D01*
X75464126Y-85075280D01*
X72836314Y-85075280D01*
X72788531Y-85070574D01*
X72645180Y-85056455D01*
X72399940Y-84982062D01*
X72375942Y-84969235D01*
X72173924Y-84861254D01*
X71975823Y-84698677D01*
X71813246Y-84500576D01*
X71692439Y-84274562D01*
X71689702Y-84265539D01*
X71618045Y-84029320D01*
X71592926Y-83774280D01*
X71618045Y-83519240D01*
X71692438Y-83274000D01*
X71813245Y-83047986D01*
X71813246Y-83047984D01*
X71975823Y-82849883D01*
X72173924Y-82687306D01*
X72399938Y-82566499D01*
X72399940Y-82566498D01*
X72645180Y-82492105D01*
X72788531Y-82477986D01*
X72836314Y-82473280D01*
X75464126Y-82473280D01*
X75511909Y-82477986D01*
X75511909Y-82477986D01*
G37*
G36*
X81106677Y-83697465D02*
X81144364Y-83708898D01*
X81179103Y-83727466D01*
X81209548Y-83752452D01*
X81234534Y-83782897D01*
X81253102Y-83817636D01*
X81264535Y-83855323D01*
X81269000Y-83900661D01*
X81269000Y-84737339D01*
X81264535Y-84782677D01*
X81253102Y-84820364D01*
X81234534Y-84855103D01*
X81209548Y-84885548D01*
X81179103Y-84910534D01*
X81144364Y-84929102D01*
X81106677Y-84940535D01*
X81061339Y-84945000D01*
X79974661Y-84945000D01*
X79929323Y-84940535D01*
X79891636Y-84929102D01*
X79856897Y-84910534D01*
X79826452Y-84885548D01*
X79801466Y-84855103D01*
X79782898Y-84820364D01*
X79771465Y-84782677D01*
X79767000Y-84737339D01*
X79767000Y-83900661D01*
X79771465Y-83855323D01*
X79782898Y-83817636D01*
X79801466Y-83782897D01*
X79826452Y-83752452D01*
X79856897Y-83727466D01*
X79891636Y-83708898D01*
X79929323Y-83697465D01*
X79974661Y-83693000D01*
X81061339Y-83693000D01*
X81106677Y-83697465D01*
X81106677Y-83697465D01*
G37*
G36*
X87250397Y-83073465D02*
X87288084Y-83084898D01*
X87322823Y-83103466D01*
X87353268Y-83128452D01*
X87378254Y-83158897D01*
X87396822Y-83193636D01*
X87408255Y-83231323D01*
X87412720Y-83276661D01*
X87412720Y-84363339D01*
X87408255Y-84408677D01*
X87396822Y-84446364D01*
X87378254Y-84481103D01*
X87353268Y-84511548D01*
X87322823Y-84536534D01*
X87288084Y-84555102D01*
X87250397Y-84566535D01*
X87205059Y-84571000D01*
X86368381Y-84571000D01*
X86323043Y-84566535D01*
X86285356Y-84555102D01*
X86250617Y-84536534D01*
X86220172Y-84511548D01*
X86195186Y-84481103D01*
X86176618Y-84446364D01*
X86165185Y-84408677D01*
X86160720Y-84363339D01*
X86160720Y-83276661D01*
X86165185Y-83231323D01*
X86176618Y-83193636D01*
X86195186Y-83158897D01*
X86220172Y-83128452D01*
X86250617Y-83103466D01*
X86285356Y-83084898D01*
X86323043Y-83073465D01*
X86368381Y-83069000D01*
X87205059Y-83069000D01*
X87250397Y-83073465D01*
X87250397Y-83073465D01*
G37*
G36*
X89300397Y-83073465D02*
X89338084Y-83084898D01*
X89372823Y-83103466D01*
X89403268Y-83128452D01*
X89428254Y-83158897D01*
X89446822Y-83193636D01*
X89458255Y-83231323D01*
X89462720Y-83276661D01*
X89462720Y-84363339D01*
X89458255Y-84408677D01*
X89446822Y-84446364D01*
X89428254Y-84481103D01*
X89403268Y-84511548D01*
X89372823Y-84536534D01*
X89338084Y-84555102D01*
X89300397Y-84566535D01*
X89255059Y-84571000D01*
X88418381Y-84571000D01*
X88373043Y-84566535D01*
X88335356Y-84555102D01*
X88300617Y-84536534D01*
X88270172Y-84511548D01*
X88245186Y-84481103D01*
X88226618Y-84446364D01*
X88215185Y-84408677D01*
X88210720Y-84363339D01*
X88210720Y-83276661D01*
X88215185Y-83231323D01*
X88226618Y-83193636D01*
X88245186Y-83158897D01*
X88270172Y-83128452D01*
X88300617Y-83103466D01*
X88335356Y-83084898D01*
X88373043Y-83073465D01*
X88418381Y-83069000D01*
X89255059Y-83069000D01*
X89300397Y-83073465D01*
X89300397Y-83073465D01*
G37*
G36*
X92201397Y-83198465D02*
X92239084Y-83209898D01*
X92273823Y-83228466D01*
X92304268Y-83253452D01*
X92329254Y-83283897D01*
X92347822Y-83318636D01*
X92359255Y-83356323D01*
X92363720Y-83401661D01*
X92363720Y-84238339D01*
X92359255Y-84283677D01*
X92347822Y-84321364D01*
X92329254Y-84356103D01*
X92304268Y-84386548D01*
X92273823Y-84411534D01*
X92239084Y-84430102D01*
X92201397Y-84441535D01*
X92156059Y-84446000D01*
X91069381Y-84446000D01*
X91024043Y-84441535D01*
X90986356Y-84430102D01*
X90951617Y-84411534D01*
X90921172Y-84386548D01*
X90896186Y-84356103D01*
X90877618Y-84321364D01*
X90866185Y-84283677D01*
X90861720Y-84238339D01*
X90861720Y-83401661D01*
X90866185Y-83356323D01*
X90877618Y-83318636D01*
X90896186Y-83283897D01*
X90921172Y-83253452D01*
X90951617Y-83228466D01*
X90986356Y-83209898D01*
X91024043Y-83198465D01*
X91069381Y-83194000D01*
X92156059Y-83194000D01*
X92201397Y-83198465D01*
X92201397Y-83198465D01*
G37*
G36*
X97612667Y-82246337D02*
X97768578Y-82277350D01*
X97964397Y-82358461D01*
X97964398Y-82358462D01*
X98140633Y-82476218D01*
X98290502Y-82626087D01*
X98290504Y-82626090D01*
X98408259Y-82802323D01*
X98489370Y-82998142D01*
X98510320Y-83103466D01*
X98528329Y-83194000D01*
X98530720Y-83206023D01*
X98530720Y-83417977D01*
X98489370Y-83625858D01*
X98408259Y-83821677D01*
X98327551Y-83942465D01*
X98290502Y-83997913D01*
X98140633Y-84147782D01*
X98140630Y-84147784D01*
X97964397Y-84265539D01*
X97768578Y-84346650D01*
X97612667Y-84377663D01*
X97560698Y-84388000D01*
X97348742Y-84388000D01*
X97296773Y-84377663D01*
X97140862Y-84346650D01*
X96945043Y-84265539D01*
X96768810Y-84147784D01*
X96768807Y-84147782D01*
X96618938Y-83997913D01*
X96581889Y-83942465D01*
X96501181Y-83821677D01*
X96420070Y-83625858D01*
X96378720Y-83417977D01*
X96378720Y-83206023D01*
X96381112Y-83194000D01*
X96399120Y-83103466D01*
X96420070Y-82998142D01*
X96501181Y-82802323D01*
X96618936Y-82626090D01*
X96618938Y-82626087D01*
X96768807Y-82476218D01*
X96945042Y-82358462D01*
X96945043Y-82358461D01*
X97140862Y-82277350D01*
X97296773Y-82246337D01*
X97348742Y-82236000D01*
X97560698Y-82236000D01*
X97612667Y-82246337D01*
X97612667Y-82246337D01*
G37*
G36*
X82233677Y-81422465D02*
X82271364Y-81433898D01*
X82306103Y-81452466D01*
X82336548Y-81477452D01*
X82361534Y-81507897D01*
X82380102Y-81542636D01*
X82391535Y-81580323D01*
X82396000Y-81625661D01*
X82396000Y-82712339D01*
X82391535Y-82757677D01*
X82380102Y-82795364D01*
X82361534Y-82830103D01*
X82336548Y-82860548D01*
X82306103Y-82885534D01*
X82271364Y-82904102D01*
X82233677Y-82915535D01*
X82188339Y-82920000D01*
X81351661Y-82920000D01*
X81306323Y-82915535D01*
X81268636Y-82904102D01*
X81233897Y-82885534D01*
X81203452Y-82860548D01*
X81178466Y-82830103D01*
X81159898Y-82795364D01*
X81148465Y-82757677D01*
X81144000Y-82712339D01*
X81144000Y-81625661D01*
X81148465Y-81580323D01*
X81159898Y-81542636D01*
X81178466Y-81507897D01*
X81203452Y-81477452D01*
X81233897Y-81452466D01*
X81268636Y-81433898D01*
X81306323Y-81422465D01*
X81351661Y-81418000D01*
X82188339Y-81418000D01*
X82233677Y-81422465D01*
X82233677Y-81422465D01*
G37*
G36*
X84283677Y-81422465D02*
X84321364Y-81433898D01*
X84356103Y-81452466D01*
X84386548Y-81477452D01*
X84411534Y-81507897D01*
X84430102Y-81542636D01*
X84441535Y-81580323D01*
X84446000Y-81625661D01*
X84446000Y-82712339D01*
X84441535Y-82757677D01*
X84430102Y-82795364D01*
X84411534Y-82830103D01*
X84386548Y-82860548D01*
X84356103Y-82885534D01*
X84321364Y-82904102D01*
X84283677Y-82915535D01*
X84238339Y-82920000D01*
X83401661Y-82920000D01*
X83356323Y-82915535D01*
X83318636Y-82904102D01*
X83283897Y-82885534D01*
X83253452Y-82860548D01*
X83228466Y-82830103D01*
X83209898Y-82795364D01*
X83198465Y-82757677D01*
X83194000Y-82712339D01*
X83194000Y-81625661D01*
X83198465Y-81580323D01*
X83209898Y-81542636D01*
X83228466Y-81507897D01*
X83253452Y-81477452D01*
X83283897Y-81452466D01*
X83318636Y-81433898D01*
X83356323Y-81422465D01*
X83401661Y-81418000D01*
X84238339Y-81418000D01*
X84283677Y-81422465D01*
X84283677Y-81422465D01*
G37*
G36*
X100232116Y-79897546D02*
X100405186Y-79969234D01*
X100560950Y-80073312D01*
X100693408Y-80205770D01*
X100797486Y-80361534D01*
X100869174Y-80534604D01*
X100905720Y-80718333D01*
X100905720Y-80905667D01*
X100869174Y-81089396D01*
X100797486Y-81262466D01*
X100693408Y-81418230D01*
X100560950Y-81550688D01*
X100405186Y-81654766D01*
X100232116Y-81726454D01*
X100048387Y-81763000D01*
X99861053Y-81763000D01*
X99677324Y-81726454D01*
X99504254Y-81654766D01*
X99348490Y-81550688D01*
X99216032Y-81418230D01*
X99111954Y-81262466D01*
X99040266Y-81089396D01*
X99003720Y-80905667D01*
X99003720Y-80718333D01*
X99040266Y-80534604D01*
X99111954Y-80361534D01*
X99216032Y-80205770D01*
X99348490Y-80073312D01*
X99504254Y-79969234D01*
X99677324Y-79897546D01*
X99861053Y-79861000D01*
X100048387Y-79861000D01*
X100232116Y-79897546D01*
X100232116Y-79897546D01*
G37*
G36*
X95232116Y-79897546D02*
X95405186Y-79969234D01*
X95560950Y-80073312D01*
X95693408Y-80205770D01*
X95797486Y-80361534D01*
X95869174Y-80534604D01*
X95905720Y-80718333D01*
X95905720Y-80905667D01*
X95869174Y-81089396D01*
X95797486Y-81262466D01*
X95693408Y-81418230D01*
X95560950Y-81550688D01*
X95405186Y-81654766D01*
X95232116Y-81726454D01*
X95048387Y-81763000D01*
X94861053Y-81763000D01*
X94677324Y-81726454D01*
X94504254Y-81654766D01*
X94348490Y-81550688D01*
X94216032Y-81418230D01*
X94111954Y-81262466D01*
X94040266Y-81089396D01*
X94003720Y-80905667D01*
X94003720Y-80718333D01*
X94040266Y-80534604D01*
X94111954Y-80361534D01*
X94216032Y-80205770D01*
X94348490Y-80073312D01*
X94504254Y-79969234D01*
X94677324Y-79897546D01*
X94861053Y-79861000D01*
X95048387Y-79861000D01*
X95232116Y-79897546D01*
X95232116Y-79897546D01*
G37*
G36*
X90423397Y-80150465D02*
X90461084Y-80161898D01*
X90495823Y-80180466D01*
X90526268Y-80205452D01*
X90551254Y-80235897D01*
X90569822Y-80270636D01*
X90581255Y-80308323D01*
X90585720Y-80353661D01*
X90585720Y-81190339D01*
X90581255Y-81235677D01*
X90569822Y-81273364D01*
X90551254Y-81308103D01*
X90526268Y-81338548D01*
X90495823Y-81363534D01*
X90461084Y-81382102D01*
X90423397Y-81393535D01*
X90378059Y-81398000D01*
X89291381Y-81398000D01*
X89246043Y-81393535D01*
X89208356Y-81382102D01*
X89173617Y-81363534D01*
X89143172Y-81338548D01*
X89118186Y-81308103D01*
X89099618Y-81273364D01*
X89088185Y-81235677D01*
X89083720Y-81190339D01*
X89083720Y-80353661D01*
X89088185Y-80308323D01*
X89099618Y-80270636D01*
X89118186Y-80235897D01*
X89143172Y-80205452D01*
X89173617Y-80180466D01*
X89208356Y-80161898D01*
X89246043Y-80150465D01*
X89291381Y-80146000D01*
X90378059Y-80146000D01*
X90423397Y-80150465D01*
X90423397Y-80150465D01*
G37*
G36*
X87467720Y-80421000D02*
X83565720Y-80421000D01*
X83565720Y-78919000D01*
X87467720Y-78919000D01*
X87467720Y-80421000D01*
X87467720Y-80421000D01*
G37*
G36*
X81787397Y-78127465D02*
X81825084Y-78138898D01*
X81859823Y-78157466D01*
X81890268Y-78182452D01*
X81915254Y-78212897D01*
X81933822Y-78247636D01*
X81945255Y-78285323D01*
X81949720Y-78330661D01*
X81949720Y-79167339D01*
X81945255Y-79212677D01*
X81933822Y-79250364D01*
X81915254Y-79285103D01*
X81890268Y-79315548D01*
X81859823Y-79340534D01*
X81825084Y-79359102D01*
X81787397Y-79370535D01*
X81742059Y-79375000D01*
X80655381Y-79375000D01*
X80610043Y-79370535D01*
X80572356Y-79359102D01*
X80537617Y-79340534D01*
X80507172Y-79315548D01*
X80482186Y-79285103D01*
X80463618Y-79250364D01*
X80452185Y-79212677D01*
X80447720Y-79167339D01*
X80447720Y-78330661D01*
X80452185Y-78285323D01*
X80463618Y-78247636D01*
X80482186Y-78212897D01*
X80507172Y-78182452D01*
X80537617Y-78157466D01*
X80572356Y-78138898D01*
X80610043Y-78127465D01*
X80655381Y-78123000D01*
X81742059Y-78123000D01*
X81787397Y-78127465D01*
X81787397Y-78127465D01*
G37*
G36*
X90423397Y-78100465D02*
X90461084Y-78111898D01*
X90495823Y-78130466D01*
X90526268Y-78155452D01*
X90551254Y-78185897D01*
X90569822Y-78220636D01*
X90581255Y-78258323D01*
X90585720Y-78303661D01*
X90585720Y-79140339D01*
X90581255Y-79185677D01*
X90569822Y-79223364D01*
X90551254Y-79258103D01*
X90526268Y-79288548D01*
X90495823Y-79313534D01*
X90461084Y-79332102D01*
X90423397Y-79343535D01*
X90378059Y-79348000D01*
X89291381Y-79348000D01*
X89246043Y-79343535D01*
X89208356Y-79332102D01*
X89173617Y-79313534D01*
X89143172Y-79288548D01*
X89118186Y-79258103D01*
X89099618Y-79223364D01*
X89088185Y-79185677D01*
X89083720Y-79140339D01*
X89083720Y-78303661D01*
X89088185Y-78258323D01*
X89099618Y-78220636D01*
X89118186Y-78185897D01*
X89143172Y-78155452D01*
X89173617Y-78130466D01*
X89208356Y-78111898D01*
X89246043Y-78100465D01*
X89291381Y-78096000D01*
X90378059Y-78096000D01*
X90423397Y-78100465D01*
X90423397Y-78100465D01*
G37*
G36*
X75505756Y-76615296D02*
X75727433Y-76682541D01*
X75931732Y-76791741D01*
X76110801Y-76938699D01*
X76257759Y-77117768D01*
X76366959Y-77322067D01*
X76434204Y-77543744D01*
X76456910Y-77774280D01*
X76434204Y-78004816D01*
X76366959Y-78226493D01*
X76257759Y-78430792D01*
X76110801Y-78609861D01*
X75931732Y-78756819D01*
X75727433Y-78866019D01*
X75505756Y-78933264D01*
X75332991Y-78950280D01*
X72967449Y-78950280D01*
X72794684Y-78933264D01*
X72573007Y-78866019D01*
X72368708Y-78756819D01*
X72189639Y-78609861D01*
X72042681Y-78430792D01*
X71933481Y-78226493D01*
X71866236Y-78004816D01*
X71843530Y-77774280D01*
X71866236Y-77543744D01*
X71933481Y-77322067D01*
X72042681Y-77117768D01*
X72189639Y-76938699D01*
X72368708Y-76791741D01*
X72573007Y-76682541D01*
X72794684Y-76615296D01*
X72967449Y-76598280D01*
X75332991Y-76598280D01*
X75505756Y-76615296D01*
X75505756Y-76615296D01*
G37*
G36*
X86992720Y-78346000D02*
X84040720Y-78346000D01*
X84040720Y-76594000D01*
X86992720Y-76594000D01*
X86992720Y-78346000D01*
X86992720Y-78346000D01*
G37*
G36*
X81787397Y-76077465D02*
X81825084Y-76088898D01*
X81859823Y-76107466D01*
X81890268Y-76132452D01*
X81915254Y-76162897D01*
X81933822Y-76197636D01*
X81945255Y-76235323D01*
X81949720Y-76280661D01*
X81949720Y-77117339D01*
X81945255Y-77162677D01*
X81933822Y-77200364D01*
X81915254Y-77235103D01*
X81890268Y-77265548D01*
X81859823Y-77290534D01*
X81825084Y-77309102D01*
X81787397Y-77320535D01*
X81742059Y-77325000D01*
X80655381Y-77325000D01*
X80610043Y-77320535D01*
X80572356Y-77309102D01*
X80537617Y-77290534D01*
X80507172Y-77265548D01*
X80482186Y-77235103D01*
X80463618Y-77200364D01*
X80452185Y-77162677D01*
X80447720Y-77117339D01*
X80447720Y-76280661D01*
X80452185Y-76235323D01*
X80463618Y-76197636D01*
X80482186Y-76162897D01*
X80507172Y-76132452D01*
X80537617Y-76107466D01*
X80572356Y-76088898D01*
X80610043Y-76077465D01*
X80655381Y-76073000D01*
X81742059Y-76073000D01*
X81787397Y-76077465D01*
X81787397Y-76077465D01*
G37*
G36*
X90423397Y-75832465D02*
X90461084Y-75843898D01*
X90495823Y-75862466D01*
X90526268Y-75887452D01*
X90551254Y-75917897D01*
X90569822Y-75952636D01*
X90581255Y-75990323D01*
X90585720Y-76035661D01*
X90585720Y-76872339D01*
X90581255Y-76917677D01*
X90569822Y-76955364D01*
X90551254Y-76990103D01*
X90526268Y-77020548D01*
X90495823Y-77045534D01*
X90461084Y-77064102D01*
X90423397Y-77075535D01*
X90378059Y-77080000D01*
X89291381Y-77080000D01*
X89246043Y-77075535D01*
X89208356Y-77064102D01*
X89173617Y-77045534D01*
X89143172Y-77020548D01*
X89118186Y-76990103D01*
X89099618Y-76955364D01*
X89088185Y-76917677D01*
X89083720Y-76872339D01*
X89083720Y-76035661D01*
X89088185Y-75990323D01*
X89099618Y-75952636D01*
X89118186Y-75917897D01*
X89143172Y-75887452D01*
X89173617Y-75862466D01*
X89208356Y-75843898D01*
X89246043Y-75832465D01*
X89291381Y-75828000D01*
X90378059Y-75828000D01*
X90423397Y-75832465D01*
X90423397Y-75832465D01*
G37*
G36*
X87467720Y-76021000D02*
X83565720Y-76021000D01*
X83565720Y-74519000D01*
X87467720Y-74519000D01*
X87467720Y-76021000D01*
X87467720Y-76021000D01*
G37*
G36*
X100232116Y-73721546D02*
X100405186Y-73793234D01*
X100560950Y-73897312D01*
X100693408Y-74029770D01*
X100797486Y-74185534D01*
X100869174Y-74358604D01*
X100905720Y-74542333D01*
X100905720Y-74729667D01*
X100869174Y-74913396D01*
X100797486Y-75086466D01*
X100693408Y-75242230D01*
X100560950Y-75374688D01*
X100405186Y-75478766D01*
X100232116Y-75550454D01*
X100048387Y-75587000D01*
X99861053Y-75587000D01*
X99677324Y-75550454D01*
X99504254Y-75478766D01*
X99348490Y-75374688D01*
X99216032Y-75242230D01*
X99111954Y-75086466D01*
X99040266Y-74913396D01*
X99003720Y-74729667D01*
X99003720Y-74542333D01*
X99040266Y-74358604D01*
X99111954Y-74185534D01*
X99216032Y-74029770D01*
X99348490Y-73897312D01*
X99504254Y-73793234D01*
X99677324Y-73721546D01*
X99861053Y-73685000D01*
X100048387Y-73685000D01*
X100232116Y-73721546D01*
X100232116Y-73721546D01*
G37*
G36*
X95232116Y-73721546D02*
X95405186Y-73793234D01*
X95560950Y-73897312D01*
X95693408Y-74029770D01*
X95797486Y-74185534D01*
X95869174Y-74358604D01*
X95905720Y-74542333D01*
X95905720Y-74729667D01*
X95869174Y-74913396D01*
X95797486Y-75086466D01*
X95693408Y-75242230D01*
X95560950Y-75374688D01*
X95405186Y-75478766D01*
X95232116Y-75550454D01*
X95048387Y-75587000D01*
X94861053Y-75587000D01*
X94677324Y-75550454D01*
X94504254Y-75478766D01*
X94348490Y-75374688D01*
X94216032Y-75242230D01*
X94111954Y-75086466D01*
X94040266Y-74913396D01*
X94003720Y-74729667D01*
X94003720Y-74542333D01*
X94040266Y-74358604D01*
X94111954Y-74185534D01*
X94216032Y-74029770D01*
X94348490Y-73897312D01*
X94504254Y-73793234D01*
X94677324Y-73721546D01*
X94861053Y-73685000D01*
X95048387Y-73685000D01*
X95232116Y-73721546D01*
X95232116Y-73721546D01*
G37*
G36*
X90423397Y-73782465D02*
X90461084Y-73793898D01*
X90495823Y-73812466D01*
X90526268Y-73837452D01*
X90551254Y-73867897D01*
X90569822Y-73902636D01*
X90581255Y-73940323D01*
X90585720Y-73985661D01*
X90585720Y-74822339D01*
X90581255Y-74867677D01*
X90569822Y-74905364D01*
X90551254Y-74940103D01*
X90526268Y-74970548D01*
X90495823Y-74995534D01*
X90461084Y-75014102D01*
X90423397Y-75025535D01*
X90378059Y-75030000D01*
X89291381Y-75030000D01*
X89246043Y-75025535D01*
X89208356Y-75014102D01*
X89173617Y-74995534D01*
X89143172Y-74970548D01*
X89118186Y-74940103D01*
X89099618Y-74905364D01*
X89088185Y-74867677D01*
X89083720Y-74822339D01*
X89083720Y-73985661D01*
X89088185Y-73940323D01*
X89099618Y-73902636D01*
X89118186Y-73867897D01*
X89143172Y-73837452D01*
X89173617Y-73812466D01*
X89208356Y-73793898D01*
X89246043Y-73782465D01*
X89291381Y-73778000D01*
X90378059Y-73778000D01*
X90423397Y-73782465D01*
X90423397Y-73782465D01*
G37*
G36*
X80337677Y-73167465D02*
X80375364Y-73178898D01*
X80410103Y-73197466D01*
X80440548Y-73222452D01*
X80465534Y-73252897D01*
X80484102Y-73287636D01*
X80495535Y-73325323D01*
X80500000Y-73370661D01*
X80500000Y-74457339D01*
X80495535Y-74502677D01*
X80484102Y-74540364D01*
X80465534Y-74575103D01*
X80440548Y-74605548D01*
X80410103Y-74630534D01*
X80375364Y-74649102D01*
X80337677Y-74660535D01*
X80292339Y-74665000D01*
X79455661Y-74665000D01*
X79410323Y-74660535D01*
X79372636Y-74649102D01*
X79337897Y-74630534D01*
X79307452Y-74605548D01*
X79282466Y-74575103D01*
X79263898Y-74540364D01*
X79252465Y-74502677D01*
X79248000Y-74457339D01*
X79248000Y-73370661D01*
X79252465Y-73325323D01*
X79263898Y-73287636D01*
X79282466Y-73252897D01*
X79307452Y-73222452D01*
X79337897Y-73197466D01*
X79372636Y-73178898D01*
X79410323Y-73167465D01*
X79455661Y-73163000D01*
X80292339Y-73163000D01*
X80337677Y-73167465D01*
X80337677Y-73167465D01*
G37*
G36*
X82387677Y-73167465D02*
X82425364Y-73178898D01*
X82460103Y-73197466D01*
X82490548Y-73222452D01*
X82515534Y-73252897D01*
X82534102Y-73287636D01*
X82545535Y-73325323D01*
X82550000Y-73370661D01*
X82550000Y-74457339D01*
X82545535Y-74502677D01*
X82534102Y-74540364D01*
X82515534Y-74575103D01*
X82490548Y-74605548D01*
X82460103Y-74630534D01*
X82425364Y-74649102D01*
X82387677Y-74660535D01*
X82342339Y-74665000D01*
X81505661Y-74665000D01*
X81460323Y-74660535D01*
X81422636Y-74649102D01*
X81387897Y-74630534D01*
X81357452Y-74605548D01*
X81332466Y-74575103D01*
X81313898Y-74540364D01*
X81302465Y-74502677D01*
X81298000Y-74457339D01*
X81298000Y-73370661D01*
X81302465Y-73325323D01*
X81313898Y-73287636D01*
X81332466Y-73252897D01*
X81357452Y-73222452D01*
X81387897Y-73197466D01*
X81422636Y-73178898D01*
X81460323Y-73167465D01*
X81505661Y-73163000D01*
X82342339Y-73163000D01*
X82387677Y-73167465D01*
X82387677Y-73167465D01*
G37*
G36*
X97612667Y-71070337D02*
X97768578Y-71101350D01*
X97964397Y-71182461D01*
X98068413Y-71251962D01*
X98140633Y-71300218D01*
X98290502Y-71450087D01*
X98290504Y-71450090D01*
X98408259Y-71626323D01*
X98489370Y-71822142D01*
X98520382Y-71978053D01*
X98530720Y-72030022D01*
X98530720Y-72241978D01*
X98520383Y-72293947D01*
X98489370Y-72449858D01*
X98408259Y-72645677D01*
X98408258Y-72645678D01*
X98290502Y-72821913D01*
X98140633Y-72971782D01*
X98140630Y-72971784D01*
X97964397Y-73089539D01*
X97768578Y-73170650D01*
X97612667Y-73201663D01*
X97560698Y-73212000D01*
X97348742Y-73212000D01*
X97296773Y-73201663D01*
X97140862Y-73170650D01*
X96945043Y-73089539D01*
X96768810Y-72971784D01*
X96768807Y-72971782D01*
X96618938Y-72821913D01*
X96501182Y-72645678D01*
X96501181Y-72645677D01*
X96420070Y-72449858D01*
X96389057Y-72293947D01*
X96378720Y-72241978D01*
X96378720Y-72030022D01*
X96389058Y-71978053D01*
X96420070Y-71822142D01*
X96501181Y-71626323D01*
X96618936Y-71450090D01*
X96618938Y-71450087D01*
X96768807Y-71300218D01*
X96841027Y-71251962D01*
X96945043Y-71182461D01*
X97140862Y-71101350D01*
X97296773Y-71070337D01*
X97348742Y-71060000D01*
X97560698Y-71060000D01*
X97612667Y-71070337D01*
X97612667Y-71070337D01*
G37*
G36*
X87232397Y-71135465D02*
X87270084Y-71146898D01*
X87304823Y-71165466D01*
X87335268Y-71190452D01*
X87360254Y-71220897D01*
X87378822Y-71255636D01*
X87390255Y-71293323D01*
X87394720Y-71338661D01*
X87394720Y-72425339D01*
X87390255Y-72470677D01*
X87378822Y-72508364D01*
X87360254Y-72543103D01*
X87335268Y-72573548D01*
X87304823Y-72598534D01*
X87270084Y-72617102D01*
X87232397Y-72628535D01*
X87187059Y-72633000D01*
X86350381Y-72633000D01*
X86305043Y-72628535D01*
X86267356Y-72617102D01*
X86232617Y-72598534D01*
X86202172Y-72573548D01*
X86177186Y-72543103D01*
X86158618Y-72508364D01*
X86147185Y-72470677D01*
X86142720Y-72425339D01*
X86142720Y-71338661D01*
X86147185Y-71293323D01*
X86158618Y-71255636D01*
X86177186Y-71220897D01*
X86202172Y-71190452D01*
X86232617Y-71165466D01*
X86267356Y-71146898D01*
X86305043Y-71135465D01*
X86350381Y-71131000D01*
X87187059Y-71131000D01*
X87232397Y-71135465D01*
X87232397Y-71135465D01*
G37*
G36*
X89282397Y-71135465D02*
X89320084Y-71146898D01*
X89354823Y-71165466D01*
X89385268Y-71190452D01*
X89410254Y-71220897D01*
X89428822Y-71255636D01*
X89440255Y-71293323D01*
X89444720Y-71338661D01*
X89444720Y-72425339D01*
X89440255Y-72470677D01*
X89428822Y-72508364D01*
X89410254Y-72543103D01*
X89385268Y-72573548D01*
X89354823Y-72598534D01*
X89320084Y-72617102D01*
X89282397Y-72628535D01*
X89237059Y-72633000D01*
X88400381Y-72633000D01*
X88355043Y-72628535D01*
X88317356Y-72617102D01*
X88282617Y-72598534D01*
X88252172Y-72573548D01*
X88227186Y-72543103D01*
X88208618Y-72508364D01*
X88197185Y-72470677D01*
X88192720Y-72425339D01*
X88192720Y-71338661D01*
X88197185Y-71293323D01*
X88208618Y-71255636D01*
X88227186Y-71220897D01*
X88252172Y-71190452D01*
X88282617Y-71165466D01*
X88317356Y-71146898D01*
X88355043Y-71135465D01*
X88400381Y-71131000D01*
X89237059Y-71131000D01*
X89282397Y-71135465D01*
X89282397Y-71135465D01*
G37*
G36*
X84835397Y-71278465D02*
X84873084Y-71289898D01*
X84907823Y-71308466D01*
X84938268Y-71333452D01*
X84963254Y-71363897D01*
X84981822Y-71398636D01*
X84993255Y-71436323D01*
X84997720Y-71481661D01*
X84997720Y-72318339D01*
X84993255Y-72363677D01*
X84981822Y-72401364D01*
X84963254Y-72436103D01*
X84938268Y-72466548D01*
X84907823Y-72491534D01*
X84873084Y-72510102D01*
X84835397Y-72521535D01*
X84790059Y-72526000D01*
X83703381Y-72526000D01*
X83658043Y-72521535D01*
X83620356Y-72510102D01*
X83585617Y-72491534D01*
X83555172Y-72466548D01*
X83530186Y-72436103D01*
X83511618Y-72401364D01*
X83500185Y-72363677D01*
X83495720Y-72318339D01*
X83495720Y-71481661D01*
X83500185Y-71436323D01*
X83511618Y-71398636D01*
X83530186Y-71363897D01*
X83555172Y-71333452D01*
X83585617Y-71308466D01*
X83620356Y-71289898D01*
X83658043Y-71278465D01*
X83703381Y-71274000D01*
X84790059Y-71274000D01*
X84835397Y-71278465D01*
X84835397Y-71278465D01*
G37*
G36*
X92201397Y-71260465D02*
X92239084Y-71271898D01*
X92273823Y-71290466D01*
X92304268Y-71315452D01*
X92329254Y-71345897D01*
X92347822Y-71380636D01*
X92359255Y-71418323D01*
X92363720Y-71463661D01*
X92363720Y-72300339D01*
X92359255Y-72345677D01*
X92347822Y-72383364D01*
X92329254Y-72418103D01*
X92304268Y-72448548D01*
X92273823Y-72473534D01*
X92239084Y-72492102D01*
X92201397Y-72503535D01*
X92156059Y-72508000D01*
X91069381Y-72508000D01*
X91024043Y-72503535D01*
X90986356Y-72492102D01*
X90951617Y-72473534D01*
X90921172Y-72448548D01*
X90896186Y-72418103D01*
X90877618Y-72383364D01*
X90866185Y-72345677D01*
X90861720Y-72300339D01*
X90861720Y-71463661D01*
X90866185Y-71418323D01*
X90877618Y-71380636D01*
X90896186Y-71345897D01*
X90921172Y-71315452D01*
X90951617Y-71290466D01*
X90986356Y-71271898D01*
X91024043Y-71260465D01*
X91069381Y-71256000D01*
X92156059Y-71256000D01*
X92201397Y-71260465D01*
X92201397Y-71260465D01*
G37*
G36*
X82295397Y-71260465D02*
X82333084Y-71271898D01*
X82367823Y-71290466D01*
X82398268Y-71315452D01*
X82423254Y-71345897D01*
X82441822Y-71380636D01*
X82453255Y-71418323D01*
X82457720Y-71463661D01*
X82457720Y-72300339D01*
X82453255Y-72345677D01*
X82441822Y-72383364D01*
X82423254Y-72418103D01*
X82398268Y-72448548D01*
X82367823Y-72473534D01*
X82333084Y-72492102D01*
X82295397Y-72503535D01*
X82250059Y-72508000D01*
X81163381Y-72508000D01*
X81118043Y-72503535D01*
X81080356Y-72492102D01*
X81045617Y-72473534D01*
X81015172Y-72448548D01*
X80990186Y-72418103D01*
X80971618Y-72383364D01*
X80960185Y-72345677D01*
X80955720Y-72300339D01*
X80955720Y-71463661D01*
X80960185Y-71418323D01*
X80971618Y-71380636D01*
X80990186Y-71345897D01*
X81015172Y-71315452D01*
X81045617Y-71290466D01*
X81080356Y-71271898D01*
X81118043Y-71260465D01*
X81163381Y-71256000D01*
X82250059Y-71256000D01*
X82295397Y-71260465D01*
X82295397Y-71260465D01*
G37*
G36*
X95232116Y-68721546D02*
X95405186Y-68793234D01*
X95560950Y-68897312D01*
X95693408Y-69029770D01*
X95797486Y-69185534D01*
X95869174Y-69358604D01*
X95905720Y-69542333D01*
X95905720Y-69729667D01*
X95869174Y-69913396D01*
X95797486Y-70086466D01*
X95693408Y-70242230D01*
X95560950Y-70374688D01*
X95405186Y-70478766D01*
X95232116Y-70550454D01*
X95048387Y-70587000D01*
X94861053Y-70587000D01*
X94677324Y-70550454D01*
X94504254Y-70478766D01*
X94348490Y-70374688D01*
X94216032Y-70242230D01*
X94111954Y-70086466D01*
X94040266Y-69913396D01*
X94003720Y-69729667D01*
X94003720Y-69542333D01*
X94040266Y-69358604D01*
X94111954Y-69185534D01*
X94216032Y-69029770D01*
X94348490Y-68897312D01*
X94504254Y-68793234D01*
X94677324Y-68721546D01*
X94861053Y-68685000D01*
X95048387Y-68685000D01*
X95232116Y-68721546D01*
X95232116Y-68721546D01*
G37*
G36*
X100232116Y-68721546D02*
X100405186Y-68793234D01*
X100560950Y-68897312D01*
X100693408Y-69029770D01*
X100797486Y-69185534D01*
X100869174Y-69358604D01*
X100905720Y-69542333D01*
X100905720Y-69729667D01*
X100869174Y-69913396D01*
X100797486Y-70086466D01*
X100693408Y-70242230D01*
X100560950Y-70374688D01*
X100405186Y-70478766D01*
X100232116Y-70550454D01*
X100048387Y-70587000D01*
X99861053Y-70587000D01*
X99677324Y-70550454D01*
X99504254Y-70478766D01*
X99348490Y-70374688D01*
X99216032Y-70242230D01*
X99111954Y-70086466D01*
X99040266Y-69913396D01*
X99003720Y-69729667D01*
X99003720Y-69542333D01*
X99040266Y-69358604D01*
X99111954Y-69185534D01*
X99216032Y-69029770D01*
X99348490Y-68897312D01*
X99504254Y-68793234D01*
X99677324Y-68721546D01*
X99861053Y-68685000D01*
X100048387Y-68685000D01*
X100232116Y-68721546D01*
X100232116Y-68721546D01*
G37*
G36*
X84835397Y-69228465D02*
X84873084Y-69239898D01*
X84907823Y-69258466D01*
X84938268Y-69283452D01*
X84963254Y-69313897D01*
X84981822Y-69348636D01*
X84993255Y-69386323D01*
X84997720Y-69431661D01*
X84997720Y-70268339D01*
X84993255Y-70313677D01*
X84981822Y-70351364D01*
X84963254Y-70386103D01*
X84938268Y-70416548D01*
X84907823Y-70441534D01*
X84873084Y-70460102D01*
X84835397Y-70471535D01*
X84790059Y-70476000D01*
X83703381Y-70476000D01*
X83658043Y-70471535D01*
X83620356Y-70460102D01*
X83585617Y-70441534D01*
X83555172Y-70416548D01*
X83530186Y-70386103D01*
X83511618Y-70351364D01*
X83500185Y-70313677D01*
X83495720Y-70268339D01*
X83495720Y-69431661D01*
X83500185Y-69386323D01*
X83511618Y-69348636D01*
X83530186Y-69313897D01*
X83555172Y-69283452D01*
X83585617Y-69258466D01*
X83620356Y-69239898D01*
X83658043Y-69228465D01*
X83703381Y-69224000D01*
X84790059Y-69224000D01*
X84835397Y-69228465D01*
X84835397Y-69228465D01*
G37*
G36*
X82295397Y-69210465D02*
X82333084Y-69221898D01*
X82367823Y-69240466D01*
X82398268Y-69265452D01*
X82423254Y-69295897D01*
X82441822Y-69330636D01*
X82453255Y-69368323D01*
X82457720Y-69413661D01*
X82457720Y-70250339D01*
X82453255Y-70295677D01*
X82441822Y-70333364D01*
X82423254Y-70368103D01*
X82398268Y-70398548D01*
X82367823Y-70423534D01*
X82333084Y-70442102D01*
X82295397Y-70453535D01*
X82250059Y-70458000D01*
X81163381Y-70458000D01*
X81118043Y-70453535D01*
X81080356Y-70442102D01*
X81045617Y-70423534D01*
X81015172Y-70398548D01*
X80990186Y-70368103D01*
X80971618Y-70333364D01*
X80960185Y-70295677D01*
X80955720Y-70250339D01*
X80955720Y-69413661D01*
X80960185Y-69368323D01*
X80971618Y-69330636D01*
X80990186Y-69295897D01*
X81015172Y-69265452D01*
X81045617Y-69240466D01*
X81080356Y-69221898D01*
X81118043Y-69210465D01*
X81163381Y-69206000D01*
X82250059Y-69206000D01*
X82295397Y-69210465D01*
X82295397Y-69210465D01*
G37*
G36*
X92201397Y-69210465D02*
X92239084Y-69221898D01*
X92273823Y-69240466D01*
X92304268Y-69265452D01*
X92329254Y-69295897D01*
X92347822Y-69330636D01*
X92359255Y-69368323D01*
X92363720Y-69413661D01*
X92363720Y-70250339D01*
X92359255Y-70295677D01*
X92347822Y-70333364D01*
X92329254Y-70368103D01*
X92304268Y-70398548D01*
X92273823Y-70423534D01*
X92239084Y-70442102D01*
X92201397Y-70453535D01*
X92156059Y-70458000D01*
X91069381Y-70458000D01*
X91024043Y-70453535D01*
X90986356Y-70442102D01*
X90951617Y-70423534D01*
X90921172Y-70398548D01*
X90896186Y-70368103D01*
X90877618Y-70333364D01*
X90866185Y-70295677D01*
X90861720Y-70250339D01*
X90861720Y-69413661D01*
X90866185Y-69368323D01*
X90877618Y-69330636D01*
X90896186Y-69295897D01*
X90921172Y-69265452D01*
X90951617Y-69240466D01*
X90986356Y-69221898D01*
X91024043Y-69210465D01*
X91069381Y-69206000D01*
X92156059Y-69206000D01*
X92201397Y-69210465D01*
X92201397Y-69210465D01*
G37*
G36*
X89291397Y-68595465D02*
X89329084Y-68606898D01*
X89363823Y-68625466D01*
X89394268Y-68650452D01*
X89419254Y-68680897D01*
X89437822Y-68715636D01*
X89449255Y-68753323D01*
X89453720Y-68798661D01*
X89453720Y-69885339D01*
X89449255Y-69930677D01*
X89437822Y-69968364D01*
X89419254Y-70003103D01*
X89394268Y-70033548D01*
X89363823Y-70058534D01*
X89329084Y-70077102D01*
X89291397Y-70088535D01*
X89246059Y-70093000D01*
X88409381Y-70093000D01*
X88364043Y-70088535D01*
X88326356Y-70077102D01*
X88291617Y-70058534D01*
X88261172Y-70033548D01*
X88236186Y-70003103D01*
X88217618Y-69968364D01*
X88206185Y-69930677D01*
X88201720Y-69885339D01*
X88201720Y-68798661D01*
X88206185Y-68753323D01*
X88217618Y-68715636D01*
X88236186Y-68680897D01*
X88261172Y-68650452D01*
X88291617Y-68625466D01*
X88326356Y-68606898D01*
X88364043Y-68595465D01*
X88409381Y-68591000D01*
X89246059Y-68591000D01*
X89291397Y-68595465D01*
X89291397Y-68595465D01*
G37*
G36*
X87241397Y-68595465D02*
X87279084Y-68606898D01*
X87313823Y-68625466D01*
X87344268Y-68650452D01*
X87369254Y-68680897D01*
X87387822Y-68715636D01*
X87399255Y-68753323D01*
X87403720Y-68798661D01*
X87403720Y-69885339D01*
X87399255Y-69930677D01*
X87387822Y-69968364D01*
X87369254Y-70003103D01*
X87344268Y-70033548D01*
X87313823Y-70058534D01*
X87279084Y-70077102D01*
X87241397Y-70088535D01*
X87196059Y-70093000D01*
X86359381Y-70093000D01*
X86314043Y-70088535D01*
X86276356Y-70077102D01*
X86241617Y-70058534D01*
X86211172Y-70033548D01*
X86186186Y-70003103D01*
X86167618Y-69968364D01*
X86156185Y-69930677D01*
X86151720Y-69885339D01*
X86151720Y-68798661D01*
X86156185Y-68753323D01*
X86167618Y-68715636D01*
X86186186Y-68680897D01*
X86211172Y-68650452D01*
X86241617Y-68625466D01*
X86276356Y-68606898D01*
X86314043Y-68595465D01*
X86359381Y-68591000D01*
X87196059Y-68591000D01*
X87241397Y-68595465D01*
X87241397Y-68595465D01*
G37*
M02*
